<svg xmlns="http://www.w3.org/2000/svg" width="65.578" height="94" viewBox="0 0 65.578 94">
  <g id="Group_7688" data-name="Group 7688" transform="translate(-286.078 -489.539)">
    <g id="Group_7687" data-name="Group 7687" transform="translate(291.324 489.54)" opacity="0.6">
      <path id="Subtraction_11" data-name="Subtraction 11" d="M57.333,88.723H3a3,3,0,0,1-3-3V70.979A3.553,3.553,0,0,0,3.549,67.43,3.553,3.553,0,0,0,0,63.881V3A3,3,0,0,1,3,0H57.333a3,3,0,0,1,3,3V64.881a3.549,3.549,0,1,0,0,7.1V85.723A3,3,0,0,1,57.333,88.723Z" fill="#fff"/>
    </g>
    <g id="Group_7686" data-name="Group 7686" transform="translate(288.958 491.906)">
      <path id="Subtraction_11-2" data-name="Subtraction 11" d="M57.333,88.723H3a3,3,0,0,1-3-3V70.979A3.553,3.553,0,0,0,3.549,67.43,3.553,3.553,0,0,0,0,63.881V3A3,3,0,0,1,3,0H57.333a3,3,0,0,1,3,3V64.881a3.549,3.549,0,1,0,0,7.1V85.723A3,3,0,0,1,57.333,88.723Z" fill="#f9e5e8"/>
    </g>
    <g id="Group_7685" data-name="Group 7685" transform="translate(286.078 494.817)">
      <path id="Subtraction_11-3" data-name="Subtraction 11" d="M55.332,88.723H5a5.006,5.006,0,0,1-5-5V70.979A3.553,3.553,0,0,0,3.549,67.43,3.553,3.553,0,0,0,0,63.881V5A5.006,5.006,0,0,1,5,0H55.332a5.006,5.006,0,0,1,5,5V63.881a3.549,3.549,0,1,0,0,7.1V83.723A5.006,5.006,0,0,1,55.332,88.723Z" fill="#fff"/>
      <path id="Path_31393" data-name="Path 31393" d="M1914-5547.5h49.686" transform="translate(-1907.198 5614.93)" fill="none" stroke="#d8364d" stroke-width="1" stroke-dasharray="3"/>
    </g>
    <text id="_1" data-name="1" transform="translate(309.66 536.28)" fill="#3b454b" font-size="33" font-family="Montserrat-Bold, Montserrat" font-weight="700"><tspan x="0" y="0">1</tspan></text>
    <text id="Month" transform="translate(301.078 548.77)" fill="#3b454b" font-size="9" font-family="Montserrat-Bold, Montserrat" font-weight="700"><tspan x="0" y="0">Month</tspan></text>
    <text id="XXXXXX" transform="translate(297.078 575.978)" fill="#d53249" font-size="9" font-family="Montserrat-Bold, Montserrat" font-weight="700"><tspan x="0" y="0">XXXXXX</tspan></text>
  </g>
</svg>
