<svg xmlns="http://www.w3.org/2000/svg" xmlns:xlink="http://www.w3.org/1999/xlink" width="988" height="599" viewBox="0 0 1488 599">
  <defs>
    <linearGradient id="linear-gradient" x1="0.478" y1="0.126" x2="0.43" y2="0.987" gradientUnits="objectBoundingBox">
      <stop offset="0" stop-color="#fff6ef"/>
      <stop offset="1" stop-color="#fee8e8"/>
    </linearGradient>
    <clipPath id="clip-path">
      <rect id="Rectangle_3605" data-name="Rectangle 3605" width="1488" height="599" rx="30" transform="translate(277.538 137.363)" fill="url(#linear-gradient)"/>
    </clipPath>
    <linearGradient id="linear-gradient-2" x1="0.165" y1="0.032" x2="0.754" y2="0.955" gradientUnits="objectBoundingBox">
      <stop offset="0" stop-color="#f36175"/>
      <stop offset="1" stop-color="#d43047"/>
    </linearGradient>
    <clipPath id="clip-path-2">
      <path id="Intersection_1" data-name="Intersection 1" d="M0,726.374V0H587V726.374A1187.689,1187.689,0,0,1,293.5,763,1187.689,1187.689,0,0,1,0,726.374Z" transform="translate(-0.242 -0.488)" fill="#fff" stroke="#707070" stroke-width="1"/>
    </clipPath>
    <clipPath id="clip-path-3">
      <rect id="Rectangle_1223" data-name="Rectangle 1223" width="576.133" height="565.423" fill="none"/>
    </clipPath>
    <clipPath id="clip-path-9">
      <path id="Path_43" data-name="Path 43" d="M124.506,324.178l-16.488,14.365,18.627,17.943c-3.719,14.606,1.214,25.335,1.467,25.881-7.639-4.547-12.139-.971-12.139-.971l8,8.032-3.873,3.555c-6.1-7.266-8.067-4.524-8.067-4.524s3.33,7.51,7.478,11.788a2.916,2.916,0,0,0,1.87.793c6.358.716,22.136-10.023,22.136-10.023s12.811-49.116,7.17-49.005c-3.05.051-10.081-5.486-15.9-10.594-2.43-2.132-4.666-4.193-6.291-5.732-1.677-1.587-2.719-2.61-2.719-2.61Z" transform="translate(-108.018 -323.074)" fill="none"/>
    </clipPath>
    <clipPath id="clip-path-10">
      <rect id="Rectangle_1229" data-name="Rectangle 1229" width="26.767" height="76.859" fill="none"/>
    </clipPath>
    <clipPath id="clip-path-12">
      <rect id="Rectangle_1230" data-name="Rectangle 1230" width="39.953" height="21.574" fill="none"/>
    </clipPath>
    <clipPath id="clip-path-13">
      <rect id="Rectangle_1231" data-name="Rectangle 1231" width="55.726" height="55.977" fill="none"/>
    </clipPath>
    <clipPath id="clip-path-14">
      <rect id="Rectangle_1232" data-name="Rectangle 1232" width="50.934" height="50.358" fill="none"/>
    </clipPath>
    <clipPath id="clip-path-15">
      <rect id="Rectangle_1233" data-name="Rectangle 1233" width="110.275" height="81.162" fill="none"/>
    </clipPath>
    <clipPath id="clip-path-16">
      <rect id="Rectangle_1234" data-name="Rectangle 1234" width="61.921" height="81.957" fill="none"/>
    </clipPath>
    <clipPath id="clip-path-17">
      <rect id="Rectangle_1235" data-name="Rectangle 1235" width="59.186" height="35.755" fill="none"/>
    </clipPath>
    <clipPath id="clip-path-18">
      <rect id="Rectangle_1236" data-name="Rectangle 1236" width="61.231" height="51.667" fill="none"/>
    </clipPath>
    <clipPath id="clip-path-19">
      <rect id="Rectangle_1237" data-name="Rectangle 1237" width="119.145" height="129.148" fill="none"/>
    </clipPath>
    <clipPath id="clip-path-20">
      <path id="Path_88" data-name="Path 88" d="M276.741,220.675a.014.014,0,0,0-.016.013c-2.857,7.662-8.11,25.572-2.11,41.351,7.594,19.993,30.112,36.629,50.188,33.765,20.273-11.595,24.275-41.215,24.275-41.215s-37.24-36.343-62.435-36.343a19.664,19.664,0,0,0-9.9,2.429" transform="translate(-271.861 -218.246)" fill="none"/>
    </clipPath>
    <clipPath id="clip-path-21">
      <rect id="Rectangle_1239" data-name="Rectangle 1239" width="77.217" height="77.881" fill="none"/>
    </clipPath>
    <clipPath id="clip-path-23">
      <rect id="Rectangle_1242" data-name="Rectangle 1242" width="4.251" height="3.481" fill="none"/>
    </clipPath>
    <filter id="Path_21250">
      <feOffset dy="3" input="SourceAlpha"/>
      <feGaussianBlur stdDeviation="3" result="blur"/>
      <feFlood flood-opacity="0.161" result="color"/>
      <feComposite operator="out" in="SourceGraphic" in2="blur"/>
      <feComposite operator="in" in="color"/>
      <feComposite operator="in" in2="SourceGraphic"/>
    </filter>
    <filter id="Path_21251">
      <feOffset dy="3" input="SourceAlpha"/>
      <feGaussianBlur stdDeviation="3" result="blur-2"/>
      <feFlood flood-opacity="0.161" result="color-2"/>
      <feComposite operator="out" in="SourceGraphic" in2="blur-2"/>
      <feComposite operator="in" in="color-2"/>
      <feComposite operator="in" in2="SourceGraphic"/>
    </filter>
    <filter id="Path_21252">
      <feOffset dy="3" input="SourceAlpha"/>
      <feGaussianBlur stdDeviation="3" result="blur-3"/>
      <feFlood flood-opacity="0.161" result="color-3"/>
      <feComposite operator="out" in="SourceGraphic" in2="blur-3"/>
      <feComposite operator="in" in="color-3"/>
      <feComposite operator="in" in2="SourceGraphic"/>
    </filter>
    <filter id="Path_21253">
      <feOffset dy="3" input="SourceAlpha"/>
      <feGaussianBlur stdDeviation="3" result="blur-4"/>
      <feFlood flood-opacity="0.161" result="color-4"/>
      <feComposite operator="out" in="SourceGraphic" in2="blur-4"/>
      <feComposite operator="in" in="color-4"/>
      <feComposite operator="in" in2="SourceGraphic"/>
    </filter>
    <filter id="Path_21254">
      <feOffset dy="3" input="SourceAlpha"/>
      <feGaussianBlur stdDeviation="3" result="blur-5"/>
      <feFlood flood-opacity="0.161" result="color-5"/>
      <feComposite operator="out" in="SourceGraphic" in2="blur-5"/>
      <feComposite operator="in" in="color-5"/>
      <feComposite operator="in" in2="SourceGraphic"/>
    </filter>
    <filter id="Path_21255">
      <feOffset dy="3" input="SourceAlpha"/>
      <feGaussianBlur stdDeviation="3" result="blur-6"/>
      <feFlood flood-opacity="0.161" result="color-6"/>
      <feComposite operator="out" in="SourceGraphic" in2="blur-6"/>
      <feComposite operator="in" in="color-6"/>
      <feComposite operator="in" in2="SourceGraphic"/>
    </filter>
    <filter id="Path_21256">
      <feOffset dy="3" input="SourceAlpha"/>
      <feGaussianBlur stdDeviation="3" result="blur-7"/>
      <feFlood flood-opacity="0.161" result="color-7"/>
      <feComposite operator="out" in="SourceGraphic" in2="blur-7"/>
      <feComposite operator="in" in="color-7"/>
      <feComposite operator="in" in2="SourceGraphic"/>
    </filter>
    <filter id="Path_21257">
      <feOffset dy="3" input="SourceAlpha"/>
      <feGaussianBlur stdDeviation="3" result="blur-8"/>
      <feFlood flood-opacity="0.161" result="color-8"/>
      <feComposite operator="out" in="SourceGraphic" in2="blur-8"/>
      <feComposite operator="in" in="color-8"/>
      <feComposite operator="in" in2="SourceGraphic"/>
    </filter>
  </defs>
  <g id="Mask_Group_62" data-name="Mask Group 62" transform="translate(-277.538 -137.363)" clip-path="url(#clip-path)">
    <g id="Group_7535" data-name="Group 7535" transform="translate(1121.78 -12.149)">
      <circle id="Ellipse_845" data-name="Ellipse 845" cx="54.5" cy="54.5" r="54.5" transform="translate(276.758 243.512)" fill="url(#linear-gradient-2)"/>
      <ellipse id="Ellipse_846" data-name="Ellipse 846" cx="31.5" cy="32" rx="31.5" ry="32" transform="translate(153.758 270.512)" fill="url(#linear-gradient-2)"/>
      <circle id="Ellipse_847" data-name="Ellipse 847" cx="41" cy="41" r="41" transform="translate(39.758 454.512)" fill="url(#linear-gradient-2)"/>
      <g id="Mask_Group_1" data-name="Mask Group 1" transform="translate(0 0)" clip-path="url(#clip-path-2)">
        <g id="Group_6702" data-name="Group 6702" transform="translate(-51.611 193.002)">
          <g id="Group_7" data-name="Group 7" transform="translate(0 0)">
            <g id="Group_6" data-name="Group 6" transform="translate(76.562)" clip-path="url(#clip-path-3)">
              <path id="Path_9" data-name="Path 9" d="M129.473,56.075A38.827,38.827,0,0,1,141.437,72.6" transform="translate(54.096 23.429)" fill="none" stroke="#dd384f" stroke-linecap="round" stroke-linejoin="round" stroke-width="1"/>
              <path id="Path_10" data-name="Path 10" d="M85.641,79.114a38.938,38.938,0,0,1,58.522-23.089" transform="translate(35.783 20.88)" fill="none" stroke="#dd384f" stroke-linecap="round" stroke-linejoin="round" stroke-width="1"/>
              <path id="Path_11" data-name="Path 11" d="M98,105.121A38.775,38.775,0,0,1,85.055,81.414" transform="translate(35.538 34.016)" fill="none" stroke="#dd384f" stroke-linecap="round" stroke-linejoin="round" stroke-width="1"/>
              <path id="Path_12" data-name="Path 12" d="M117.026,106.771A38.787,38.787,0,0,1,97.07,100.33" transform="translate(40.558 41.92)" fill="none" stroke="#dd384f" stroke-linecap="round" stroke-linejoin="round" stroke-width="1"/>
              <path id="Path_13" data-name="Path 13" d="M149.074,73.453A38.928,38.928,0,0,1,116.2,117.614" transform="translate(48.552 30.69)" fill="none" stroke="#dd384f" stroke-linecap="round" stroke-linejoin="round" stroke-width="1"/>
            </g>
            <g id="Group_6710" data-name="Group 6710" transform="translate(0 77.98)" clip-path="url(#clip-path-3)">
              <path id="Path_21263" data-name="Path 21263" d="M129.473,56.075A38.827,38.827,0,0,1,141.437,72.6" transform="translate(54.096 23.429)" fill="none" stroke="#dd384f" stroke-linecap="round" stroke-linejoin="round" stroke-width="1"/>
              <path id="Path_21264" data-name="Path 21264" d="M85.641,79.114a38.938,38.938,0,0,1,58.522-23.089" transform="translate(35.783 20.88)" fill="none" stroke="#dd384f" stroke-linecap="round" stroke-linejoin="round" stroke-width="1"/>
              <path id="Path_21265" data-name="Path 21265" d="M98,105.121A38.775,38.775,0,0,1,85.055,81.414" transform="translate(35.538 34.016)" fill="none" stroke="#dd384f" stroke-linecap="round" stroke-linejoin="round" stroke-width="1"/>
              <path id="Path_21266" data-name="Path 21266" d="M117.026,106.771A38.787,38.787,0,0,1,97.07,100.33" transform="translate(40.558 41.92)" fill="none" stroke="#dd384f" stroke-linecap="round" stroke-linejoin="round" stroke-width="1"/>
              <path id="Path_21267" data-name="Path 21267" d="M149.074,73.453A38.928,38.928,0,0,1,116.2,117.614" transform="translate(48.552 30.69)" fill="none" stroke="#dd384f" stroke-linecap="round" stroke-linejoin="round" stroke-width="1"/>
            </g>
          </g>
          <g id="Group_9" data-name="Group 9" transform="translate(48.206 56.713)">
            <g id="Group_8" data-name="Group 8" transform="translate(0 0)" clip-path="url(#clip-path-3)">
              <path id="Path_22" data-name="Path 22" d="M87.147,150.894a49.584,49.584,0,0,1,10.234,23.957" transform="translate(36.412 63.047)" fill="none" stroke="#dd384f" stroke-linecap="round" stroke-linejoin="round" stroke-width="1"/>
              <path id="Path_23" data-name="Path 23" d="M28.479,164.437a49.723,49.723,0,0,1,79.4-12.233" transform="translate(11.899 57.476)" fill="none" stroke="#dd384f" stroke-linecap="round" stroke-linejoin="round" stroke-width="1"/>
              <path id="Path_24" data-name="Path 24" d="M34.148,203.09a49.514,49.514,0,0,1-9.427-33.18" transform="translate(10.266 70.992)" fill="none" stroke="#dd384f" stroke-linecap="round" stroke-linejoin="round" stroke-width="1"/>
              <path id="Path_25" data-name="Path 25" d="M57.332,210.516A49.558,49.558,0,0,1,34.3,196.861" transform="translate(14.33 82.253)" fill="none" stroke="#dd384f" stroke-linecap="round" stroke-linejoin="round" stroke-width="1"/>
              <path id="Path_26" data-name="Path 26" d="M110.325,175.336a49.71,49.71,0,0,1-53.406,45.715" transform="translate(23.782 73.259)" fill="none" stroke="#dd384f" stroke-linecap="round" stroke-linejoin="round" stroke-width="1"/>
            </g>
          </g>
          <g id="Group_11" data-name="Group 11" transform="translate(62.384 14.178)">
            <g id="Group_10" data-name="Group 10" clip-path="url(#clip-path-3)">
              <line id="Line_1" data-name="Line 1" x1="9.599" y1="4.911" transform="translate(279.52 67.115)" fill="#757575"/>
              <line id="Line_3" data-name="Line 3" x1="6.048" y1="10.587" transform="translate(294.315 46.039)" fill="#757575"/>
              <line id="Line_5" data-name="Line 5" x1="12.125" y2="1.29" transform="translate(271.087 90.15)" fill="#757575"/>
              <path id="Path_32" data-name="Path 32" d="M265.132,35.848A64.05,64.05,0,0,0,235.3,20.272" transform="translate(98.312 8.47)" fill="none" stroke="#dd384f" stroke-linecap="round" stroke-linejoin="round" stroke-width="1"/>
              <path id="Path_33" data-name="Path 33" d="M243.233,136.042a64.241,64.241,0,0,0,23.695-101.05" transform="translate(101.628 14.62)" fill="none" stroke="#dd384f" stroke-linecap="round" stroke-linejoin="round" stroke-width="1"/>
              <path id="Path_34" data-name="Path 34" d="M196.124,98.919a63.971,63.971,0,0,0,41.795,15.46" transform="translate(81.945 41.33)" fill="none" stroke="#dd384f" stroke-linecap="round" stroke-linejoin="round" stroke-width="1"/>
              <path id="Path_35" data-name="Path 35" d="M181.069,72.846a64.008,64.008,0,0,0,15.287,31.036" transform="translate(75.654 30.437)" fill="none" stroke="#dd384f" stroke-linecap="round" stroke-linejoin="round" stroke-width="1"/>
              <path id="Path_36" data-name="Path 36" d="M244.527,19.232a64.22,64.22,0,0,0-64.22,64.22" transform="translate(75.336 8.036)" fill="none" stroke="#dd384f" stroke-linecap="round" stroke-linejoin="round" stroke-width="1"/>
            </g>
          </g>
          <g id="Group_13" data-name="Group 13" transform="translate(62.384 14.178)">
            <g id="Group_12" data-name="Group 12" clip-path="url(#clip-path-3)">
              <path id="Path_37" data-name="Path 37" d="M156.009,140.687c-5.391-4.816-10.975-2.7-13.835-1.012-.574-3.272-2.613-8.894-9.777-9.858-7.778-1.035-14.14,6.555-12.057,17.117,1.509,7.6,6.362,14.56,8.966,17.853.309.4.6.74.838,1.018.366,0,.818,0,1.32-.024,4.2-.164,12.638-1,19.38-4.8C160.237,155.7,161.854,145.923,156.009,140.687Z" transform="translate(50.114 54.201)" fill="none" stroke="#263238" stroke-linecap="round" stroke-linejoin="round" stroke-width="1"/>
              <path id="Path_38" data-name="Path 38" d="M124.29,158.654s-.379.706-.893,1.925" transform="translate(51.558 66.289)" fill="none" stroke="#263238" stroke-linecap="round" stroke-linejoin="round" stroke-width="1"/>
              <path id="Path_39" data-name="Path 39" d="M122.811,162.784c-2.073,6.986-3.306,18.61,7.824,25.707,27.958,17.825,37.367-24.223,15.959-20.445-14.674,2.59.749,41.305,23.7,33.8" transform="translate(50.739 68.015)" fill="none" stroke="#263238" stroke-linecap="round" stroke-linejoin="round" stroke-width="1" stroke-dasharray="2.948 2.948"/>
              <path id="Path_40" data-name="Path 40" d="M157.284,190.08q.948-.413,1.911-.936" transform="translate(65.717 79.028)" fill="none" stroke="#263238" stroke-linecap="round" stroke-linejoin="round" stroke-width="1"/>
            </g>
          </g>
          <g id="Group_15" data-name="Group 15" transform="translate(62.384 14.178)">
            <g id="Group_14" data-name="Group 14" clip-path="url(#clip-path-3)">
              <path id="Path_41" data-name="Path 41" d="M143.513,391.016s-15.78,10.737-22.138,10.023a2.935,2.935,0,0,1-1.87-.793c-4.147-4.278-7.478-11.788-7.478-11.788s1.972-2.742,8.067,4.524l3.873-3.554-8-8.032s4.5-3.576,12.139.971c-.254-.547-5.186-11.275-1.467-25.881l-18.627-17.943,16.488-14.365,1.27-1.106s1.041,1.024,2.718,2.612c1.625,1.54,3.861,3.6,6.291,5.731,5.816,5.11,12.848,10.646,15.9,10.6,5.642-.111-7.168,49.006-7.168,49.006" transform="translate(45.132 134.987)" fill="#fff"/>
            </g>
          </g>
          <g id="Group_20" data-name="Group 20" transform="translate(215.534 472.239)">
            <g id="Group_19" data-name="Group 19" transform="translate(0)" clip-path="url(#clip-path-9)">
              <g id="Group_18" data-name="Group 18" transform="translate(0 1.105)" opacity="0.4">
                <g id="Group_17" data-name="Group 17">
                  <g id="Group_16" data-name="Group 16" clip-path="url(#clip-path-10)">
                    <path id="Path_42" data-name="Path 42" d="M131.31,383.653s-8.989,9.27-9.935,17.059a2.92,2.92,0,0,1-1.872-.793c-4.147-4.278-7.478-11.788-7.478-11.788s1.974-2.742,8.069,4.524l3.873-3.555-8-8.032s4.5-3.574,12.141.973c-.255-.547-5.186-11.276-1.467-25.881l-18.629-17.944L124.5,323.854l3.988,1.5c1.625,1.54,3.862,3.6,6.292,5.732-3.489,5.121-10.963,15.7-10.963,15.7l6.457,8.761s-3.915,22.087,1.031,28.107" transform="translate(-108.018 -323.853)" fill="#fcf3e3"/>
                  </g>
                </g>
              </g>
            </g>
          </g>
          <g id="Group_46" data-name="Group 46" transform="translate(62.384 14.178)">
            <g id="Group_45" data-name="Group 45" clip-path="url(#clip-path-3)">
              <path id="Path_44" data-name="Path 44" d="M143.513,391.016s-15.78,10.737-22.138,10.023a2.935,2.935,0,0,1-1.87-.793c-4.147-4.278-7.478-11.788-7.478-11.788s1.972-2.742,8.067,4.524l3.873-3.554-8-8.032s4.5-3.576,12.139.971c-.254-.547-5.186-11.275-1.467-25.881l-18.627-17.943,16.488-14.365,1.27-1.106s1.041,1.024,2.718,2.612c1.625,1.54,3.861,3.6,6.291,5.731,5.816,5.11,12.848,10.646,15.9,10.6C156.323,341.9,143.513,391.016,143.513,391.016Z" transform="translate(45.132 134.987)" fill="none" stroke="#263238" stroke-linecap="round" stroke-linejoin="round" stroke-width="1"/>
              <path id="Path_45" data-name="Path 45" d="M119.269,371.955a19.772,19.772,0,0,1,4.16-7.052" transform="translate(49.833 152.464)" fill="none" stroke="#263238" stroke-linecap="round" stroke-linejoin="round" stroke-width="1"/>
              <path id="Path_46" data-name="Path 46" d="M438.211,309.37a44.677,44.677,0,0,1-8.934,9.63.012.012,0,0,0-.014.013c-29.023,24.029-95.935,35.9-95.935,35.9s-2.236,3.36-5.683,8.144c-6.189,8.588-16.322,21.776-24.584,28.388h-.014c-3.485,2.8-6.647,4.425-9.029,3.99L306.566,441.8l5.619,20.13s-57.693,25.169-156.38-3.618c0,0-1.114-12.878-.281-15.627.04-.125.079-.264.133-.4.919-2.216,3.865-4.865,3.865-4.865s-.55-8.28-.832-16.71c-.221-6.548-.281-13.181.2-16.129.7-4.253,3.813-14.527,5.375-19.577.557-1.791.92-2.926.92-2.926l-4.911-45.991-1.414-13.244s-.023-.244-.072-.689c-.006-.1-.011-.2-.03-.329l-.774-7.1L132.6,322.475s1.353,2.969,3.162,7.142c3.335,7.625,8.236,19.247,9.328,23.846a9.849,9.849,0,0,0,.323,1.106c2.356,6.708,11.293,12.8,11.293,12.8l-24.032,28.091-7.108-4.96a21.973,21.973,0,0,1-2.864,1.8c-4.673,2.536-14.477,6.263-25.182.57a37.469,37.469,0,0,1-11.877-10.509C66.7,357.832,58.565,337.854,61.229,314.342S169.474,218.5,190.424,219.249l31.162,6.885c.671-.557,2.5-2,3.9-1.931,5.667.289,5.814,6.874,5.814,6.874l69.833,11.337s7.237-3.623,8.5-3.563a5.442,5.442,0,0,1,4.409,2.8s18.093-10.835,23.92-8.313c19.131,8.255,114.388,54.545,100.253,76.028" transform="translate(25.377 91.604)" fill="url(#linear-gradient-2)"/>
              <g id="Group_23" data-name="Group 23" transform="translate(181.034 512.317)" opacity="0.2">
                <g id="Group_22" data-name="Group 22">
                  <g id="Group_21" data-name="Group 21" clip-path="url(#clip-path-12)">
                    <path id="Path_47" data-name="Path 47" d="M167.638,364.768a52.151,52.151,0,0,1-30.222,16.393c-3.675.583-6.909,1.173-9.731,1.755.92-2.216,3.866-4.865,3.866-4.865s-.552-8.28-.834-16.71c8.2,5.361,22.472,11.6,36.92,3.427" transform="translate(-127.685 -361.341)"/>
                  </g>
                </g>
              </g>
              <g id="Group_26" data-name="Group 26" transform="translate(185.652 427.693)" opacity="0.2">
                <g id="Group_25" data-name="Group 25">
                  <g id="Group_24" data-name="Group 24" clip-path="url(#clip-path-13)">
                    <path id="Path_48" data-name="Path 48" d="M134.933,350.572c.557-1.789.92-2.926.92-2.926l-4.911-45.99c7.339,10.524,33.513,46.394,51.563,50.265,18.861,4.035-31.576,11.175-47.572-1.348" transform="translate(-130.942 -301.655)"/>
                  </g>
                </g>
              </g>
              <g id="Group_29" data-name="Group 29" transform="translate(281.009 483.051)" opacity="0.2">
                <g id="Group_28" data-name="Group 28">
                  <g id="Group_27" data-name="Group 27" clip-path="url(#clip-path-14)">
                    <path id="Path_49" data-name="Path 49" d="M249.132,391.057c-19.7-2.242-47.581-7.21-50.37-17.521-4.339-16.114,16.788-25.776,46.85-32.837-3.485,2.8-6.647,4.425-9.029,3.99Z" transform="translate(-198.198 -340.699)"/>
                  </g>
                </g>
              </g>
              <g id="Group_32" data-name="Group 32" transform="translate(344.363 373.502)" opacity="0.2">
                <g id="Group_31" data-name="Group 31">
                  <g id="Group_30" data-name="Group 30" clip-path="url(#clip-path-15)">
                    <path id="Path_50" data-name="Path 50" d="M353.157,300.548c-29.023,24.029-95.934,35.9-95.934,35.9s-2.236,3.36-5.684,8.144a111.539,111.539,0,0,1-4.273-74.146s5.157,27.917,26.553,34.548c0,0-16.377-12.2-10.662-41.563,0,0,5.583,34.565,41.949,44.106,17.689,4.638,34.963-.5,48.051-6.991" transform="translate(-242.882 -263.434)"/>
                  </g>
                </g>
              </g>
              <g id="Group_35" data-name="Group 35" transform="translate(129.383 342.086)" opacity="0.2">
                <g id="Group_34" data-name="Group 34">
                  <g id="Group_33" data-name="Group 33" clip-path="url(#clip-path-16)">
                    <path id="Path_51" data-name="Path 51" d="M146.038,312.95l-.8-7.434-25.382,7.753s1.353,2.969,3.162,7.141c-9.706-1-28.12,8.014-31.334-1.806-3.873-11.852,19.963-7.767,19.963-7.767l22.485-13.081C129.874,279.573,140.7,265.9,140.7,265.9l2.056,12.685c.987-24.12,10.42-37.311,10.42-37.311-7.848,19.074-7.631,66.017-7.137,71.675" transform="translate(-91.255 -241.276)"/>
                  </g>
                </g>
              </g>
              <g id="Group_38" data-name="Group 38" transform="translate(122.901 451.709)" opacity="0.2">
                <g id="Group_37" data-name="Group 37">
                  <g id="Group_36" data-name="Group 36" clip-path="url(#clip-path-17)">
                    <path id="Path_52" data-name="Path 52" d="M145.869,325.853l-24.032,28.09-7.109-4.958a21.792,21.792,0,0,1-2.863,1.8c-4.673,2.536-14.477,6.264-25.182.571,7.788-10.775,23.872-26.638,43.018-32.763a192.9,192.9,0,0,0-12.769,21.822l4.938,4.867s12.324-14.048,24-19.43" transform="translate(-86.683 -318.594)"/>
                  </g>
                </g>
              </g>
              <g id="Group_41" data-name="Group 41" transform="translate(236.736 335.248)" opacity="0.2">
                <g id="Group_40" data-name="Group 40">
                  <g id="Group_39" data-name="Group 39" clip-path="url(#clip-path-18)">
                    <path id="Path_53" data-name="Path 53" d="M170.7,236.453c-.007,2.473-1.565,30.58,18.88,38.006s38.623-5.168,38.623-5.168-31.357,30.238-50.433,14.078-7.069-46.916-7.069-46.916" transform="translate(-166.972 -236.453)"/>
                  </g>
                </g>
              </g>
              <path id="Path_54" data-name="Path 54" d="M155.805,458.312s-1.109-12.878-.286-15.622c.688-2.3,4-5.263,4-5.263s-1.737-26.108-.625-32.837c.953-5.768,6.3-22.516,6.3-22.516l-7.2-67.352-25.382,7.758s10.807,23.873,12.48,30.988,11.626,13.9,11.626,13.9l-24.042,28.083-7.1-4.951s-20.975,16.4-39.923-8.137-27.08-44.51-24.419-68.027,108.253-95.839,129.2-95.095l31.158,6.889c.675-.556,2.5-2,3.9-1.928,5.667.289,5.814,6.875,5.814,6.875l69.828,11.335s7.248-3.623,8.507-3.56a5.454,5.454,0,0,1,4.409,2.8s18.086-10.828,23.92-8.31c19.122,8.25,114.38,54.548,100.247,76.029-20.062,30.5-104.878,45.543-104.878,45.543s-28.21,42.542-39.319,40.516l18.169,66.509" transform="translate(25.377 91.602)" fill="none" stroke="#263238" stroke-linecap="round" stroke-linejoin="round" stroke-width="1"/>
              <path id="Path_55" data-name="Path 55" d="M290.142,326.909c32.044,21.169,57.874,17.249,78.095-9.987,0,0,16.832-21.7,15.64-45.111s-6.784-99.766-79.737-80.243c-12,3.213-40.029,40.743-42.391,51.056-1.08,4.713-12.329,28.707-23.248,53.541" transform="translate(99.651 78.721)" fill="url(#linear-gradient-2)"/>
              <path id="Path_56" data-name="Path 56" d="M290.142,326.909c32.044,21.169,57.874,17.249,78.095-9.987,0,0,16.832-21.7,15.64-45.111s-6.784-99.766-79.737-80.243c-12,3.213-40.029,40.743-42.391,51.056-1.08,4.713-12.329,28.707-23.248,53.541" transform="translate(99.651 78.721)" fill="none" stroke="#263238" stroke-linecap="round" stroke-linejoin="round" stroke-width="1"/>
              <path id="Path_57" data-name="Path 57" d="M236.268,128.923s20.408-3.1,34.6,9.6c17.934,16.053,38.064,59.322,9.387,131.039,0,0-42.357-28.124-114.652-9.315,0,0,6.224-16.825-4.7-69.778-4.941-23.941,7.48-79.143,75.37-61.548" transform="translate(66.824 52.445)" fill="#263238"/>
              <path id="Path_58" data-name="Path 58" d="M198.174,282.158c30.214,4.9,62.322-28.548,62.322-28.548s-16.428-2.026-17.9-9.738c-4.714-24.331,14.242-54.386,14.242-54.386s-73.362,2.03-60.534,18.632a41.84,41.84,0,0,1,5.8,9.95c4.449,10.927,1.363,19.173-1,21.184a3.329,3.329,0,0,1-.535.356c-4.439,2.029-22.672-.992-22.672-.992s-7.289,39.072,20.278,43.543" transform="translate(73.964 79.171)" fill="#fff"/>
              <path id="Path_59" data-name="Path 59" d="M198.174,282.158c30.214,4.9,62.322-28.548,62.322-28.548s-16.428-2.026-17.9-9.738c-4.714-24.331,14.242-54.386,14.242-54.386s-73.362,2.03-60.534,18.632a41.84,41.84,0,0,1,5.8,9.95c4.449,10.927,1.363,19.173-1,21.184a3.329,3.329,0,0,1-.535.356c-4.439,2.029-22.672-.992-22.672-.992S170.607,277.687,198.174,282.158Z" transform="translate(73.964 79.171)" fill="none" stroke="#263238" stroke-linecap="round" stroke-linejoin="round" stroke-width="1"/>
              <path id="Path_60" data-name="Path 60" d="M241.39,241.243s-13.93,5.574-34.34,3.916l-9.195,4.5" transform="translate(82.668 100.796)" fill="none" stroke="#263238" stroke-linecap="round" stroke-linejoin="round" stroke-width="1"/>
              <path id="Path_61" data-name="Path 61" d="M197.408,252.462l-.675-6.033s-15.046-4.714-19.7-13.662" transform="translate(73.967 97.255)" fill="none" stroke="#263238" stroke-linecap="round" stroke-linejoin="round" stroke-width="1"/>
              <path id="Path_62" data-name="Path 62" d="M194.007,231.917c22.468,5.873,33.017-22.942,33.017-22.942s-17.974-5.359-32.013,1.757c4.449,10.929,1.363,19.175-1,21.185" transform="translate(81.06 86.506)" fill="#263238"/>
              <path id="Path_63" data-name="Path 63" d="M257.521,197.84c5.466-30.68-.61-67.5-47.306-64.448-33.361,2.179-33.086,38.758-30.879,49.675,3.715,18.362-1.608,25.593,4.113,41.018,4.11,11.086,13.665,23.481,24.905,28.125,6.918,2.857,34.918-16.793,36.987-25.776" transform="translate(74.579 55.659)" fill="#fff"/>
              <path id="Path_64" data-name="Path 64" d="M257.521,197.84c5.466-30.68-.61-67.5-47.306-64.448-33.361,2.179-33.086,38.758-30.879,49.675,3.715,18.362-1.608,25.593,4.113,41.018,4.11,11.086,13.665,23.481,24.905,28.125,6.918,2.857,34.918-16.793,36.987-25.776" transform="translate(74.579 55.659)" fill="none" stroke="#263238" stroke-linecap="round" stroke-linejoin="round" stroke-width="1"/>
              <path id="Path_65" data-name="Path 65" d="M195.55,172.415c-.279,3.444-.685,11.976-7.979,18.27-4.718,4.072,6.114,8.239,6.114,8.239" transform="translate(77.874 72.039)" fill="none" stroke="#263238" stroke-linecap="round" stroke-linejoin="round" stroke-width="1"/>
              <path id="Path_66" data-name="Path 66" d="M192.47,164.273s-10.3-5.019-17.268,3.265" transform="translate(73.203 68.007)" fill="none" stroke="#263238" stroke-linecap="round" stroke-linejoin="round" stroke-width="1"/>
              <path id="Path_67" data-name="Path 67" d="M199.572,163.771a34.868,34.868,0,0,1,22.029.866" transform="translate(83.385 67.859)" fill="none" stroke="#263238" stroke-linecap="round" stroke-linejoin="round" stroke-width="1"/>
              <path id="Path_68" data-name="Path 68" d="M207.134,175.294c.32,2.96,2.312,5.172,4.451,4.941s3.611-2.819,3.291-5.779-2.312-5.171-4.451-4.941-3.611,2.819-3.291,5.779" transform="translate(86.527 70.82)" fill="#263238"/>
              <path id="Path_69" data-name="Path 69" d="M191.892,200.43a58.125,58.125,0,0,0,23.045-8.418s.961,12.871-9.817,15.549c-8.269,2.053-11.472-7.384-11.472-7.384" transform="translate(80.176 80.227)" fill="none" stroke="#263238" stroke-linecap="round" stroke-linejoin="round" stroke-width="1"/>
              <path id="Path_70" data-name="Path 70" d="M233.951,147.617S231,183.973,263.09,197.181l15.035-34.946L255.38,137.043l-34.272-9.9c-51.2,3.192-73.245,35.012-44.816,119.772,0,0-7.95-100.952,57.659-99.3" transform="translate(68.422 53.123)" fill="#263238"/>
              <path id="Path_71" data-name="Path 71" d="M228.873,180.576c-.442-4.086,9.892-14.494,13.39-7.815,5.962,11.382,1.619,21.307-4.547,25.195-2.761,1.741-6.26,5-8.72,1.925" transform="translate(95.622 71.272)" fill="#fff"/>
              <path id="Path_72" data-name="Path 72" d="M228.873,180.576c-.442-4.086,9.892-14.494,13.39-7.815,5.962,11.382,1.619,21.307-4.547,25.195-2.761,1.741-6.26,5-8.72,1.925" transform="translate(95.622 71.272)" fill="none" stroke="#263238" stroke-linecap="round" stroke-linejoin="round" stroke-width="1"/>
              <path id="Path_73" data-name="Path 73" d="M185.1,176.247c.32,2.96,2.312,5.172,4.451,4.941s3.611-2.819,3.291-5.779-2.312-5.171-4.451-4.94-3.611,2.817-3.291,5.778" transform="translate(77.319 71.219)" fill="#263238"/>
              <g id="Group_44" data-name="Group 44" transform="translate(238.667 184.491)" opacity="0.2">
                <g id="Group_43" data-name="Group 43">
                  <g id="Group_42" data-name="Group 42" clip-path="url(#clip-path-19)">
                    <path id="Path_74" data-name="Path 74" d="M169.632,170.331c-.384,2.467-.647,4.954-.8,7.446" transform="translate(-168.125 -113.323)" fill="none" stroke="#fff" stroke-linecap="round" stroke-linejoin="round" stroke-width="1"/>
                    <path id="Path_75" data-name="Path 75" d="M225.953,136.924c-25.938-.685-50.042,15.848-55.779,41.809" transform="translate(-167.565 -127.29)" fill="none" stroke="#fff" stroke-linecap="round" stroke-linejoin="round" stroke-width="1"/>
                    <path id="Path_76" data-name="Path 76" d="M221.4,132.137s-37.4-8.8-51.427,16.013" transform="translate(-167.648 -129.914)" fill="none" stroke="#fff" stroke-linecap="round" stroke-linejoin="round" stroke-width="1"/>
                    <path id="Path_77" data-name="Path 77" d="M227.651,162.176a40.071,40.071,0,0,0,8.063,8.5" transform="translate(-143.55 -116.731)" fill="none" stroke="#fff" stroke-linecap="round" stroke-linejoin="round" stroke-width="1"/>
                    <path id="Path_78" data-name="Path 78" d="M217.188,135.109a101.213,101.213,0,0,0,11.864,33.8" transform="translate(-147.922 -128.04)" fill="none" stroke="#fff" stroke-linecap="round" stroke-linejoin="round" stroke-width="1"/>
                    <path id="Path_79" data-name="Path 79" d="M244.382,214.469q-1,4.47-2.329,8.853" transform="translate(-137.533 -94.881)" fill="none" stroke="#fff" stroke-linecap="round" stroke-linejoin="round" stroke-width="1"/>
                    <path id="Path_80" data-name="Path 80" d="M242.17,179.608c6.07,13.472,5.651,30.234,3.16,44.413" transform="translate(-137.484 -109.447)" fill="none" stroke="#fff" stroke-linecap="round" stroke-linejoin="round" stroke-width="1"/>
                    <path id="Path_81" data-name="Path 81" d="M242.135,196.156a36.236,36.236,0,0,1-10.544,27.72" transform="translate(-141.904 -102.533)" fill="none" stroke="#fff" stroke-linecap="round" stroke-linejoin="round" stroke-width="1"/>
                    <path id="Path_82" data-name="Path 82" d="M226.863,138.169c6.365,8.606,11.087,17.832,18.464,25.691,7.765,8.273,15.529,17.754,16.988,29.41" transform="translate(-143.879 -126.761)" fill="none" stroke="#fff" stroke-linecap="round" stroke-linejoin="round" stroke-width="1"/>
                    <path id="Path_83" data-name="Path 83" d="M220.54,131.86a28.249,28.249,0,0,1,4.991,4.185" transform="translate(-146.521 -129.397)" fill="none" stroke="#fff" stroke-linecap="round" stroke-linejoin="round" stroke-width="1"/>
                  </g>
                </g>
              </g>
              <path id="Path_84" data-name="Path 84" d="M327.055,297.212c-.739.167-1.489.292-2.252.4-20.076,2.864-42.594-13.774-50.188-33.765-6-15.779-.747-33.689,2.108-41.351.907-2.4,1.561-3.8,1.561-3.8,12.1-17.3,82.5,16.533,83.317,35.178s-13.923,38.827-34.547,43.339" transform="translate(113.589 89.379)" fill="#263238"/>
              <path id="Path_85" data-name="Path 85" d="M327.055,297.212c-.739.167-1.489.292-2.252.4-20.076,2.864-42.594-13.774-50.188-33.765-6-15.779-.747-33.689,2.108-41.351.907-2.4,1.561-3.8,1.561-3.8,12.1-17.3,82.5,16.533,83.317,35.178S347.679,292.7,327.055,297.212Z" transform="translate(113.589 89.379)" fill="none" stroke="#263238" stroke-linecap="round" stroke-linejoin="round" stroke-width="1"/>
              <path id="Path_86" data-name="Path 86" d="M349.078,254.59s-4,29.618-24.273,41.215c-20.078,2.864-42.594-13.774-50.188-33.765-6-15.779-.747-33.689,2.108-41.351a.016.016,0,0,1,.016-.014c23.717-13.535,72.337,33.916,72.337,33.916" transform="translate(113.589 91.188)" fill="#fff"/>
            </g>
          </g>
          <g id="Group_51" data-name="Group 51" transform="translate(447.835 323.612)">
            <g id="Group_50" data-name="Group 50" transform="translate(0 0)" clip-path="url(#clip-path-20)">
              <g id="Group_49" data-name="Group 49" transform="translate(0)" opacity="0.4">
                <g id="Group_48" data-name="Group 48">
                  <g id="Group_47" data-name="Group 47" clip-path="url(#clip-path-21)">
                    <path id="Path_87" data-name="Path 87" d="M349.078,254.59s-4,29.618-24.273,41.215c-20.078,2.864-42.594-13.774-50.188-33.765-6-15.779-.747-33.689,2.108-41.351a.016.016,0,0,1,.016-.014c23.717-13.535,72.337,33.916,72.337,33.916" transform="translate(-271.861 -218.246)" fill="#f7e0ba"/>
                  </g>
                </g>
              </g>
            </g>
          </g>
          <g id="Group_56" data-name="Group 56" transform="translate(62.384 14.178)">
            <g id="Group_55" data-name="Group 55" clip-path="url(#clip-path-3)">
              <path id="Path_89" data-name="Path 89" d="M349.078,254.59s-4,29.618-24.273,41.215c-20.078,2.864-42.594-13.774-50.188-33.765-6-15.779-.747-33.689,2.108-41.351a.016.016,0,0,1,.016-.014C300.458,207.14,349.078,254.59,349.078,254.59Z" transform="translate(113.589 91.188)" fill="none" stroke="#263238" stroke-linecap="round" stroke-linejoin="round" stroke-width="1"/>
              <path id="Path_90" data-name="Path 90" d="M267.78,255.226s22.857,32.807,49.547,35.539,43.76-19.75,44.87-36.706" transform="translate(111.884 106.151)" fill="none" stroke="#263238" stroke-linecap="round" stroke-linejoin="round" stroke-width="1"/>
              <path id="Path_91" data-name="Path 91" d="M258.711,161.08c2.012-5.625,16.43-3.737,21,13.8S302.32,235,302.32,235s71.641-105.423,84.494-109.487,7.758,14.2-9.4,39.552c0,0,16.072-2.83,20.29.013s2.166,19.861,4.414,25.828c3.766,10-4.607,12.115-4.607,12.115s6.589-.06,11.191,4.253,2.294,22.144,3.608,27.187-7.471,9.305-7.471,9.305,21.124,11.521,16.355,14.405c-8.042,4.86-12.631-.119-12.631-.119s-32.451,40.765-56.928,49.836-72.133-27-77.254-46.649.991-18.439-2.894-51.137-12.776-49.021-12.776-49.021" transform="translate(108.095 52.204)" fill="#fff"/>
              <path id="Path_92" data-name="Path 92" d="M258.711,161.08c2.012-5.625,16.43-3.737,21,13.8S302.32,235,302.32,235s71.641-105.423,84.494-109.487,7.758,14.2-9.4,39.552c0,0,16.072-2.83,20.29.013s2.166,19.861,4.414,25.828c3.766,10-4.607,12.115-4.607,12.115s6.589-.06,11.191,4.253,2.294,22.144,3.608,27.187-7.471,9.305-7.471,9.305,21.124,11.521,16.355,14.405c-8.042,4.86-12.631-.119-12.631-.119s-32.451,40.765-56.928,49.836-72.133-27-77.254-46.649.991-18.439-2.894-51.137S258.711,161.08,258.711,161.08Z" transform="translate(108.095 52.204)" fill="none" stroke="#263238" stroke-linecap="round" stroke-linejoin="round" stroke-width="1"/>
              <path id="Path_93" data-name="Path 93" d="M361.624,104.828l-94.383,24.6a6.274,6.274,0,0,0-4.489,7.652L307.364,308.25a6.273,6.273,0,0,0,7.652,4.487l94.383-24.6a6.273,6.273,0,0,0,4.487-7.652l-44.61-171.172a6.273,6.273,0,0,0-7.652-4.487" transform="translate(109.698 43.714)" fill="#fff"/>
              <path id="Path_94" data-name="Path 94" d="M361.624,104.828l-94.383,24.6a6.274,6.274,0,0,0-4.489,7.652L307.364,308.25a6.273,6.273,0,0,0,7.652,4.487l94.383-24.6a6.273,6.273,0,0,0,4.487-7.652l-44.61-171.172A6.273,6.273,0,0,0,361.624,104.828Z" transform="translate(109.698 43.714)" fill="none" stroke="#263238" stroke-linecap="round" stroke-linejoin="round" stroke-width="1"/>
              <path id="Path_95" data-name="Path 95" d="M295.18,118.955a1.535,1.535,0,1,1-1.874-1.1,1.536,1.536,0,0,1,1.874,1.1" transform="translate(122.069 49.222)" fill="#92e3a9"/>
              <path id="Path_96" data-name="Path 96" d="M295.18,118.955a1.535,1.535,0,1,1-1.874-1.1A1.536,1.536,0,0,1,295.18,118.955Z" transform="translate(122.069 49.222)" fill="none" stroke="#263238" stroke-linecap="round" stroke-linejoin="round" stroke-width="1"/>
              <path id="Path_97" data-name="Path 97" d="M308.558,115.255a.963.963,0,1,1-1.174-.689.961.961,0,0,1,1.174.689" transform="translate(128.131 47.855)" fill="#92e3a9"/>
              <path id="Path_98" data-name="Path 98" d="M308.558,115.255a.963.963,0,1,1-1.174-.689A.961.961,0,0,1,308.558,115.255Z" transform="translate(128.131 47.855)" fill="none" stroke="#263238" stroke-linecap="round" stroke-linejoin="round" stroke-width="1"/>
              <path id="Path_99" data-name="Path 99" d="M307.944,116.684l-11.321,2.95a.451.451,0,0,1-.55-.322l-.047-.18a.45.45,0,0,1,.322-.549l11.323-2.952a.45.45,0,0,1,.549.323l.047.179a.45.45,0,0,1-.322.55" transform="translate(123.679 48.308)" fill="#92e3a9"/>
              <path id="Rectangle_1240" data-name="Rectangle 1240" d="M.318,0H12.283A.317.317,0,0,1,12.6.317V.769a.317.317,0,0,1-.317.317H.319A.319.319,0,0,1,0,.768V.318A.318.318,0,0,1,.318,0Z" transform="translate(419.592 167.004) rotate(-14.607)" fill="none" stroke="#263238" stroke-linecap="round" stroke-linejoin="round" stroke-width="1"/>
              <path id="Path_100" data-name="Path 100" d="M365.43,109.969l44.246,169.773a3.712,3.712,0,0,1-2.656,4.529l-93.173,24.283a3.712,3.712,0,0,1-4.529-2.657L265.071,136.124a3.712,3.712,0,0,1,2.657-4.529l19.128-4.986a3.119,3.119,0,0,1,3.338,1.226l1.381,1.972a3.114,3.114,0,0,0,3.336,1.225L336.9,120.09a3.117,3.117,0,0,0,2.314-2.7l.244-2.395a3.112,3.112,0,0,1,2.314-2.7l19.128-4.986a3.714,3.714,0,0,1,4.529,2.657" transform="translate(110.702 44.787)" fill="url(#linear-gradient-2)"/>
              <path id="Path_101" data-name="Path 101" d="M365.43,109.969l44.246,169.773a3.712,3.712,0,0,1-2.656,4.529l-93.173,24.283a3.712,3.712,0,0,1-4.529-2.657L265.071,136.124a3.712,3.712,0,0,1,2.657-4.529l19.128-4.986a3.119,3.119,0,0,1,3.338,1.226l1.381,1.972a3.114,3.114,0,0,0,3.336,1.225L336.9,120.09a3.117,3.117,0,0,0,2.314-2.7l.244-2.395a3.112,3.112,0,0,1,2.314-2.7l19.128-4.986A3.714,3.714,0,0,1,365.43,109.969Z" transform="translate(110.702 44.787)" fill="none" stroke="#263238" stroke-linecap="round" stroke-linejoin="round" stroke-width="1"/>
              <path id="Path_102" data-name="Path 102" d="M362.353,166.992a39.361,39.361,0,1,1-48.016-28.162,39.361,39.361,0,0,1,48.016,28.162" transform="translate(119.034 57.47)" fill="#fff"/>
              <path id="Path_103" data-name="Path 103" d="M362.353,166.992a39.361,39.361,0,1,1-48.016-28.162A39.361,39.361,0,0,1,362.353,166.992Z" transform="translate(119.034 57.47)" fill="none" stroke="#263238" stroke-linecap="round" stroke-linejoin="round" stroke-width="1"/>
              <line id="Line_7" data-name="Line 7" x1="5.704" y2="1.648" transform="translate(446.279 252.462)" fill="#92e3a9"/>
              <line id="Line_9" data-name="Line 9" x1="26.163" y2="7.558" transform="translate(434.264 243.327)" fill="#92e3a9"/>
              <path id="Path_106" data-name="Path 106" d="M364.078,215.819,310.96,229.662a11.915,11.915,0,1,1-6.009-23.059l53.117-13.844a11.915,11.915,0,1,1,6.01,23.059" transform="translate(123.69 80.377)" fill="#fff"/>
              <path id="Path_107" data-name="Path 107" d="M302.514,207.37a2.975,2.975,0,0,1,3.8-.99,3.066,3.066,0,0,1,1.175,1.879l.089.345-1.63.425-.119-.454a1.294,1.294,0,0,0-.434-.766.957.957,0,0,0-1.286.335,1.313,1.313,0,0,0-.006.879,2.1,2.1,0,0,0,.685,1.113,7.832,7.832,0,0,0,1.412.888,14.031,14.031,0,0,1,1.248.739,4.227,4.227,0,0,1,.915.875,3.584,3.584,0,0,1,.629,1.327,3.021,3.021,0,0,1-.123,2.219,3.025,3.025,0,0,1-3.828,1,3.011,3.011,0,0,1-1.192-1.874l-.177-.675,1.632-.425.2.784c.186.712.577.988,1.174.834s.8-.588.615-1.3a2.1,2.1,0,0,0-.683-1.11,7.694,7.694,0,0,0-1.412-.889,13.722,13.722,0,0,1-1.246-.739,4.109,4.109,0,0,1-.917-.875,3.6,3.6,0,0,1-.63-1.327,3.055,3.055,0,0,1,.109-2.213" transform="translate(126.288 86.087)" fill="#d7354c"/>
              <path id="Path_108" data-name="Path 108" d="M310.046,213.99c.186.712.574.988,1.171.834s.8-.588.618-1.3l-2.209-8.47,1.631-.425,2.179,8.359a3,3,0,0,1-.125,2.217,3.016,3.016,0,0,1-3.828,1,2.992,2.992,0,0,1-1.191-1.873l-2.179-8.359,1.725-.451Z" transform="translate(127.9 85.499)" fill="#d7354c"/>
              <path id="Path_109" data-name="Path 109" d="M315.281,204.092a2.706,2.706,0,0,1,1.107,1.747l.1.391a3.209,3.209,0,0,1,.088,1.467,1.813,1.813,0,0,1-.625,1.035q1.416.166,1.9,2.018l.234.893a2.418,2.418,0,0,1-1.942,3.287l-2.714.706-2.86-10.978,2.6-.679a2.728,2.728,0,0,1,2.107.113m-1.819,4.587.672-.176a1.066,1.066,0,0,0,.707-.469,1.307,1.307,0,0,0,.027-.961l-.159-.613a1.439,1.439,0,0,0-.438-.807.825.825,0,0,0-.734-.094l-.831.217Zm1.287,4.94.987-.258a.885.885,0,0,0,.611-.418,1.288,1.288,0,0,0,0-.9l-.25-.957a1.658,1.658,0,0,0-.53-.975,1.136,1.136,0,0,0-.93-.068l-.768.2Z" transform="translate(129.763 85.164)" fill="#d7354c"/>
              <path id="Path_110" data-name="Path 110" d="M315.546,203.973a2.969,2.969,0,0,1,3.794-.988,3.047,3.047,0,0,1,1.177,1.879l.089.345-1.63.425-.118-.455a1.287,1.287,0,0,0-.435-.766.956.956,0,0,0-1.285.335,1.3,1.3,0,0,0-.006.88,2.081,2.081,0,0,0,.683,1.112,7.828,7.828,0,0,0,1.414.888c.5.272.92.516,1.246.739a4.139,4.139,0,0,1,.914.876,3.564,3.564,0,0,1,.629,1.326,3,3,0,0,1-.125,2.219,3.022,3.022,0,0,1-3.827,1,3,3,0,0,1-1.191-1.873l-.177-.676,1.632-.425.2.784q.279,1.068,1.173.835c.594-.155.8-.59.615-1.3a2.1,2.1,0,0,0-.682-1.112,7.763,7.763,0,0,0-1.414-.889,13.584,13.584,0,0,1-1.246-.739,4.075,4.075,0,0,1-.916-.875,3.579,3.579,0,0,1-.631-1.326,3.05,3.05,0,0,1,.111-2.215" transform="translate(131.733 84.668)" fill="#d7354c"/>
              <path id="Path_111" data-name="Path 111" d="M326.26,209.464a3.011,3.011,0,0,1-.128,2.22,3.021,3.021,0,0,1-3.825,1,3,3,0,0,1-1.192-1.876l-1.489-5.71a3.01,3.01,0,0,1,.126-2.217,3.019,3.019,0,0,1,3.825-1,3,3,0,0,1,1.194,1.876l.278,1.066-1.632.425-.306-1.177q-.283-1.08-1.177-.848t-.611,1.314l1.544,5.928c.186.712.577.988,1.173.834s.8-.588.617-1.3l-.41-1.57,1.632-.424Z" transform="translate(133.485 84.209)" fill="#d7354c"/>
              <path id="Path_112" data-name="Path 112" d="M329.681,210.866a8.111,8.111,0,0,1-.252-.839l-.449-1.725a1.747,1.747,0,0,0-.547-1.005,1.1,1.1,0,0,0-.946-.1l-.6.155,1.164,4.47-1.724.449L323.468,201.3l2.6-.678a2.281,2.281,0,0,1,3.214,1.857l.225.863a2.282,2.282,0,0,1-.55,2.522,1.639,1.639,0,0,1,1.1.61,3.747,3.747,0,0,1,.656,1.428l.442,1.7a7.642,7.642,0,0,0,.23.751,1.931,1.931,0,0,0,.306.532l-1.755.457a2.42,2.42,0,0,1-.258-.468m-3.2-5.079.673-.176a1.072,1.072,0,0,0,.707-.469,1.315,1.315,0,0,0,.026-.961l-.282-1.082a1.427,1.427,0,0,0-.438-.808.823.823,0,0,0-.734-.092l-.831.216Z" transform="translate(135.152 83.76)" fill="#d7354c"/>
              <rect id="Rectangle_1241" data-name="Rectangle 1241" width="1.783" height="11.346" transform="translate(464.925 283.414) rotate(-14.614)" fill="#d7354c"/>
              <path id="Path_113" data-name="Path 113" d="M334.726,199.024a2.7,2.7,0,0,1,1.109,1.747l.1.391a3.23,3.23,0,0,1,.088,1.467,1.808,1.808,0,0,1-.625,1.035q1.417.168,1.9,2.018l.234.893a2.418,2.418,0,0,1-1.941,3.287l-2.714.708-2.861-10.978,2.6-.679a2.724,2.724,0,0,1,2.105.112m-1.818,4.587.672-.176a1.061,1.061,0,0,0,.707-.469,1.3,1.3,0,0,0,.027-.961l-.159-.611a1.434,1.434,0,0,0-.438-.807.827.827,0,0,0-.736-.1l-.831.217Zm1.287,4.94.987-.258a.891.891,0,0,0,.613-.418,1.3,1.3,0,0,0,0-.895l-.25-.957a1.636,1.636,0,0,0-.532-.977,1.132,1.132,0,0,0-.929-.068l-.768.2Z" transform="translate(137.888 83.047)" fill="#d7354c"/>
              <path id="Path_114" data-name="Path 114" d="M339.807,202.1l.408,1.568-2.368.618.838,3.216,2.98-.777.408,1.568-4.706,1.225-2.861-10.978,4.706-1.225.408,1.567-2.979.777.8,3.06Z" transform="translate(139.764 82.441)" fill="#d7354c"/>
              <path id="Path_115" data-name="Path 115" d="M341.307,196.652a2.6,2.6,0,0,1,2.111.187,2.972,2.972,0,0,1,1.17,1.855l1.446,5.552a2.966,2.966,0,0,1-.115,2.192,2.6,2.6,0,0,1-1.75,1.192l-2.731.712-2.86-10.978Zm1.45,9.671.971-.254a.859.859,0,0,0,.587-.421,1.243,1.243,0,0,0,.014-.873l-1.489-5.708a1.233,1.233,0,0,0-.44-.757.861.861,0,0,0-.716-.082l-.971.254Z" transform="translate(141.465 82.11)" fill="#d7354c"/>
              <path id="Path_116" data-name="Path 116" d="M256.015,339.385s-16.116-37.5-7.9-82.982" transform="translate(102.693 107.131)" fill="none" stroke="#263238" stroke-linecap="round" stroke-linejoin="round" stroke-width="1"/>
              <path id="Path_117" data-name="Path 117" d="M235.963,343.508s-32.58,9.96-35.885,17.458,14.612,1.188,14.612,1.188" transform="translate(83.427 143.525)" fill="none" stroke="#263238" stroke-linecap="round" stroke-linejoin="round" stroke-width="1"/>
              <path id="Path_118" data-name="Path 118" d="M254.151,235.046s-30,29.732-50.073,37.667" transform="translate(85.268 98.207)" fill="none" stroke="#263238" stroke-linecap="round" stroke-linejoin="round" stroke-width="1"/>
              <path id="Path_119" data-name="Path 119" d="M170.256,229.412s-5.463,40.143,14.937,47.721" transform="translate(70.859 95.853)" fill="none" stroke="#263238" stroke-linecap="round" stroke-linejoin="round" stroke-width="1"/>
              <path id="Path_120" data-name="Path 120" d="M129.329,306.889s-.166-52.63,10.289-68.9" transform="translate(54.036 99.436)" fill="none" stroke="#263238" stroke-linecap="round" stroke-linejoin="round" stroke-width="1"/>
              <path id="Path_121" data-name="Path 121" d="M126.774,248.766s-2.941,32.682,3.651,43.347" transform="translate(52.696 103.94)" fill="none" stroke="#263238" stroke-linecap="round" stroke-linejoin="round" stroke-width="1"/>
              <path id="Path_122" data-name="Path 122" d="M119.775,292.94s-22.818-7.859-27.548,1.886,13.607,1.106,13.607,1.106" transform="translate(38.208 121.145)" fill="none" stroke="#263238" stroke-linecap="round" stroke-linejoin="round" stroke-width="1"/>
              <path id="Path_123" data-name="Path 123" d="M128.049,316.127S105.64,328.75,104.49,335.972" transform="translate(43.658 132.085)" fill="none" stroke="#263238" stroke-linecap="round" stroke-linejoin="round" stroke-width="1"/>
              <path id="Path_124" data-name="Path 124" d="M146.923,291.5s42.889,64.824,66.565,58.869" transform="translate(61.387 121.794)" fill="none" stroke="#263238" stroke-linecap="round" stroke-linejoin="round" stroke-width="1"/>
              <path id="Path_125" data-name="Path 125" d="M178.947,355.626s-33.632,24.655-38.528,22.567" transform="translate(58.67 148.588)" fill="none" stroke="#263238" stroke-linecap="round" stroke-linejoin="round" stroke-width="1"/>
              <g id="Group_54" data-name="Group 54" transform="translate(473.178 395.541)" opacity="0.2">
                <g id="Group_53" data-name="Group 53">
                  <g id="Group_52" data-name="Group 52" clip-path="url(#clip-path-23)">
                    <path id="Path_126" data-name="Path 126" d="M333.736,282.459c2.27-1.864,3.764-3.094,4.251-3.481-.5.442-1.975,1.717-4.251,3.481" transform="translate(-333.736 -278.978)"/>
                  </g>
                </g>
              </g>
              <g id="diamond" transform="translate(422.385 228.296) rotate(-14)">
                <g data-type="innerShadowGroup">
                  <path id="Path_21250-2" data-name="Path 21250" d="M18.326,22.236,0,0H10.466Z" transform="translate(0 8.563)" fill="#d9233c"/>
                  <g transform="matrix(0.97, 0.24, -0.24, 0.97, -1170.28, -586.5)" filter="url(#Path_21250)">
                    <path id="Path_21250-3" data-name="Path 21250" d="M18.326,22.236,0,0H10.466Z" transform="translate(1279.47 294.27) rotate(-14)" fill="#fff"/>
                  </g>
                </g>
                <g data-type="innerShadowGroup">
                  <path id="Path_21251-2" data-name="Path 21251" d="M15.616,0,7.808,22.107,0,0Z" transform="translate(10.477 8.563)" fill="#ff5169"/>
                  <g transform="matrix(0.97, 0.24, -0.24, 0.97, -1170.28, -586.5)" filter="url(#Path_21251)">
                    <path id="Path_21251-3" data-name="Path 21251" d="M15.616,0,7.808,22.107,0,0Z" transform="translate(1289.64 291.74) rotate(-14)" fill="#fff"/>
                  </g>
                </g>
                <g data-type="innerShadowGroup">
                  <path id="Path_21252-2" data-name="Path 21252" d="M18.3,0,0,22.213,7.844,0Z" transform="translate(18.229 8.563)" fill="#d9233c"/>
                  <g transform="matrix(0.97, 0.24, -0.24, 0.97, -1170.28, -586.5)" filter="url(#Path_21252)">
                    <path id="Path_21252-3" data-name="Path 21252" d="M18.3,0,0,22.213,7.844,0Z" transform="translate(1297.16 289.86) rotate(-14)" fill="#fff"/>
                  </g>
                </g>
                <g data-type="innerShadowGroup">
                  <path id="Path_21253-2" data-name="Path 21253" d="M11.322,0,7.85,8.536,0,0Z" transform="translate(18.229 0.077)" fill="#ff5169"/>
                  <g transform="matrix(0.97, 0.24, -0.24, 0.97, -1170.28, -586.5)" filter="url(#Path_21253)">
                    <path id="Path_21253-3" data-name="Path 21253" d="M11.322,0,7.85,8.536,0,0Z" transform="translate(1295.11 281.63) rotate(-14)" fill="#fff"/>
                  </g>
                </g>
                <g data-type="innerShadowGroup">
                  <path id="Path_21254-2" data-name="Path 21254" d="M11.975,0l-8.3,9.035L0,0Z" transform="translate(7.026 0.092)" fill="#ff5169"/>
                  <g transform="matrix(0.97, 0.24, -0.24, 0.97, -1170.28, -586.5)" filter="url(#Path_21254)">
                    <path id="Path_21254-3" data-name="Path 21254" d="M11.975,0l-8.3,9.035L0,0Z" transform="translate(1284.24 284.35) rotate(-14)" fill="#fff"/>
                  </g>
                </g>
                <g data-type="innerShadowGroup">
                  <path id="Path_21255-2" data-name="Path 21255" d="M10.477,8.563H0L6.99,0Z" transform="translate(0 0)" fill="#ff788b"/>
                  <g transform="matrix(0.97, 0.24, -0.24, 0.97, -1170.28, -586.5)" filter="url(#Path_21255)">
                    <path id="Path_21255-3" data-name="Path 21255" d="M10.477,8.563H0L6.99,0Z" transform="translate(1277.4 285.96) rotate(-14)" fill="#fff"/>
                  </g>
                </g>
                <g data-type="innerShadowGroup">
                  <path id="Path_21256-2" data-name="Path 21256" d="M15.635,8.52H0L7.813,0Z" transform="translate(10.458 0.092)" fill="#ff788b"/>
                  <g transform="matrix(0.97, 0.24, -0.24, 0.97, -1170.28, -586.5)" filter="url(#Path_21256)">
                    <path id="Path_21256-3" data-name="Path 21256" d="M15.635,8.52H0L7.813,0Z" transform="translate(1287.57 283.52) rotate(-14)" fill="#fff"/>
                  </g>
                </g>
                <g data-type="innerShadowGroup">
                  <path id="Path_21257-2" data-name="Path 21257" d="M10.434,8.536H0L3.467,0Z" transform="translate(26.093 0.077)" fill="#ff788b"/>
                  <g transform="matrix(0.97, 0.24, -0.24, 0.97, -1170.28, -586.5)" filter="url(#Path_21257)">
                    <path id="Path_21257-3" data-name="Path 21257" d="M10.434,8.536H0L3.467,0Z" transform="translate(1302.74 279.73) rotate(-14)" fill="#fff"/>
                  </g>
                </g>
              </g>
            </g>
          </g>
          <rect id="Rectangle_1244" data-name="Rectangle 1244" width="576.133" height="565.423" transform="translate(62.384 14.178)" fill="none"/>
        </g>
      </g>
      <g id="flight" transform="translate(60.488 472.97)">
        <path id="Path_21258" data-name="Path 21258" d="M0,0H45.187V45.187H0Z" fill="none"/>
        <path id="Path_21259" data-name="Path 21259" d="M37.773,28.359V24.593L22.711,15.18V4.824a2.824,2.824,0,1,0-5.648,0V15.18L2,24.593v3.766l15.062-4.707V34.007L13.3,36.832v2.824l6.59-1.883,6.59,1.883V36.832l-3.766-2.824V23.652Z" transform="translate(1.766 1.766)" fill="#fff"/>
      </g>
      <path id="island-with-palm-trees_1_Traced_" data-name="island-with-palm-trees 1 (Traced)" d="M8.685.026a3.131,3.131,0,0,0-.892.266.371.371,0,0,0-.051.4,1.768,1.768,0,0,0,.374.226A5.223,5.223,0,0,1,10.7,3.78c.088.234.09.254.012.144A4.491,4.491,0,0,0,9.021,2.493,3.655,3.655,0,0,0,7.31,2.075,4.546,4.546,0,0,0,3.553,3.61c-.347.407-.222.664.276.57a6.744,6.744,0,0,1,1.66,0,6.035,6.035,0,0,1,3.8,2.657c.084.133.056.12-.213-.1a2.733,2.733,0,0,0-3.8.279c-.575.581-.907,1.322-.7,1.555.127.141.205.128.521-.081a2.711,2.711,0,0,1,1.627-.478,3.491,3.491,0,0,1,1.824.351,2.258,2.258,0,0,1,.8.594,2.579,2.579,0,0,1-.406.414,20.07,20.07,0,0,0-2.811,3.335,40.408,40.408,0,0,0-5.1,11.04c-.28.907-.343,1.06-.512,1.241-.467.5-.522.589-.52.816a.6.6,0,0,0,.286.557c.149.1.365.1,11.106.1,10.032,0,10.969-.007,11.132-.084a.592.592,0,0,0,.329-.575c0-.645-2.022-2.214-3.93-3.051a16.816,16.816,0,0,0-3.384-1.072c-.34-.073-.626-.141-.636-.151s-.078-.283-.15-.606a10.246,10.246,0,0,0-.616-1.936c-.2-.447-.2-.461.174-.517a1.53,1.53,0,0,1,1.333.478c.275.3.351.267.322-.139a1.291,1.291,0,0,0-.551-.947c-.207-.149-.258-.162-.634-.162-.463,0-.457-.035.046-.261a2.226,2.226,0,0,1,1.863-.028,1.112,1.112,0,0,0,.389.123c.155-.1-.24-.792-.6-1.056a1.834,1.834,0,0,0-1.253-.432,1.315,1.315,0,0,0-.8.166l-.336.167.259-.24a2.334,2.334,0,0,1,1.108-.563c.13-.018.277-.043.327-.057.157-.043.1-.216-.111-.351a2.041,2.041,0,0,0-1.937-.089,1.85,1.85,0,0,0-.868.892,1.128,1.128,0,0,1-.136.253.838.838,0,0,1-.159-.095,1.824,1.824,0,0,0-1.3-.268,2.094,2.094,0,0,0-1.479,1.119c-.2.459-.127.523.358.3a2.508,2.508,0,0,1,1.25-.2l.31.037-.324.067a1.791,1.791,0,0,0-1.018.542,2.155,2.155,0,0,0-.544,1.052c-.089.43,0,1.012.156,1.012a1.233,1.233,0,0,0,.26-.333,2.129,2.129,0,0,1,1.42-1.011,3.352,3.352,0,0,1,.562-.1c.145,0,.137.01-.116.136a1.222,1.222,0,0,0-.439,1.793c.071.108.156.188.189.177a.672.672,0,0,0,.117-.327,1.535,1.535,0,0,1,.425-.856,1.308,1.308,0,0,1,.65-.407,5.286,5.286,0,0,1,.494,2.017,3.483,3.483,0,0,1,.029.457c-.008.01-.5-.007-1.091-.037a20.129,20.129,0,0,0-5.462.441,3.806,3.806,0,0,1-.634.109A14.277,14.277,0,0,1,6.6,19.761a20.386,20.386,0,0,1,4.273-9.394l.121-.147.266.21A3.751,3.751,0,0,1,12.3,12a3.307,3.307,0,0,1,.033,2.2c-.147.4-.13.543.074.608.255.081,1.043-.57,1.37-1.131a3.032,3.032,0,0,0,.37-2.138A3.024,3.024,0,0,0,13.06,9.911c-.247-.179-.228-.18.208-.016a5.846,5.846,0,0,1,1.984,1.316A4.977,4.977,0,0,1,16.8,14.335c.05.446.109.548.316.548.152,0,.325-.2.637-.739a4.691,4.691,0,0,0,.494-2.661,4.376,4.376,0,0,0-2.489-3.637l-.325-.157.284.035a5.873,5.873,0,0,1,2.155.8,5.266,5.266,0,0,1,1.106,1.009c.228.286.287.332.433.332.285,0,.35-.127.35-.682a4.5,4.5,0,0,0-.787-2.465,4.345,4.345,0,0,0-4.6-1.973c-.27.056-.5.1-.511.1a.482.482,0,0,1,.012-.193A4.792,4.792,0,0,0,13.669,3.1,4.559,4.559,0,0,0,9.984.068,4.945,4.945,0,0,0,8.685.026Z" transform="translate(173.739 290.071)" fill="#fff" fill-rule="evenodd"/>
      <circle id="Ellipse_848" data-name="Ellipse 848" cx="32" cy="32" r="32" transform="translate(75.758 349.512)" fill="url(#linear-gradient-2)"/>
      <path id="hotel_2_1_Traced_" data-name="hotel (2) 1 (Traced)" d="M8.628.077a1.057,1.057,0,0,0-.53.56C8.052.76,8.031,4.8,8.031,13.97V27.126h1.66c1.429,0,1.674-.014,1.759-.1s.1-.468.083-3.471l-.016-3.371-.295-.141a1,1,0,0,1-.647-.953.889.889,0,0,1,.559-.89c.244-.111.508-.117,4.937-.117s4.694.006,4.937.117a.889.889,0,0,1,.559.89,1,1,0,0,1-.647.953l-.295.141-.016,3.371c-.014,3-.005,3.382.083,3.471a12.408,12.408,0,0,0,3.321,0c.09-.09.1-1.34.083-13.25L24.081.626l-.13-.173a1.8,1.8,0,0,0-.3-.3c-.173-.129-.209-.13-7.5-.143C10.133,0,8.783.008,8.628.077ZM12.1,3.172c.391.292.423.394.423,1.34s-.031,1.047-.432,1.347a1.143,1.143,0,0,1-1.082,0c-.377-.281-.431-.42-.454-1.169a6.682,6.682,0,0,1,.018-.9,1.112,1.112,0,0,1,.565-.7A1.187,1.187,0,0,1,12.1,3.172Zm4.523,0c.391.292.423.394.423,1.34s-.031,1.047-.432,1.347a1.143,1.143,0,0,1-1.082,0c-.377-.281-.431-.42-.454-1.169a6.683,6.683,0,0,1,.018-.9,1.112,1.112,0,0,1,.565-.7A1.187,1.187,0,0,1,16.622,3.172Zm4.523,0c.391.292.423.394.423,1.34s-.031,1.047-.432,1.347a1.143,1.143,0,0,1-1.082,0c-.377-.281-.431-.42-.454-1.169a6.683,6.683,0,0,1,.018-.9,1.112,1.112,0,0,1,.565-.7A1.187,1.187,0,0,1,21.145,3.172ZM.584,6.61a1.088,1.088,0,0,0-.562.683C0,7.4-.006,11.769,0,16.992c.018,9.479.018,9.5.148,9.67a1.8,1.8,0,0,0,.3.3c.168.125.26.13,2.769.147,2.313.016,2.607.007,2.7-.083s.1-1.019.1-10.205c0-9.1-.01-10.114-.1-10.2s-.41-.1-2.623-.1A15.457,15.457,0,0,0,.584,6.61ZM12.1,8.2c.391.292.423.394.423,1.34s-.031,1.047-.432,1.347a1.143,1.143,0,0,1-1.082,0c-.377-.281-.431-.42-.454-1.169a6.682,6.682,0,0,1,.018-.9,1.112,1.112,0,0,1,.565-.7A1.187,1.187,0,0,1,12.1,8.2Zm4.523,0c.391.292.423.394.423,1.34s-.031,1.047-.432,1.347a1.143,1.143,0,0,1-1.082,0c-.377-.281-.431-.42-.454-1.169a6.683,6.683,0,0,1,.018-.9,1.112,1.112,0,0,1,.565-.7A1.187,1.187,0,0,1,16.622,8.2Zm4.523,0c.391.292.423.394.423,1.34s-.031,1.047-.432,1.347a1.143,1.143,0,0,1-1.082,0c-.377-.281-.431-.42-.454-1.169a6.683,6.683,0,0,1,.018-.9,1.112,1.112,0,0,1,.565-.7A1.187,1.187,0,0,1,21.145,8.2ZM3.556,10.71c.391.292.423.394.423,1.34,0,.781-.013.888-.13,1.044a.9.9,0,0,1-.844.432.9.9,0,0,1-.844-.432c-.109-.145-.133-.285-.151-.866a6.683,6.683,0,0,1,.018-.9,1.112,1.112,0,0,1,.565-.7A1.187,1.187,0,0,1,3.556,10.71ZM12.1,13.223c.391.292.423.394.423,1.34,0,.781-.013.888-.13,1.044a.9.9,0,0,1-.844.432.9.9,0,0,1-.844-.432c-.109-.145-.133-.285-.151-.866a6.682,6.682,0,0,1,.018-.9,1.112,1.112,0,0,1,.565-.7A1.187,1.187,0,0,1,12.1,13.223Zm4.523,0c.391.292.423.394.423,1.34,0,.781-.013.888-.13,1.044a1.04,1.04,0,0,1-1.688,0c-.109-.145-.133-.285-.151-.866a6.683,6.683,0,0,1,.018-.9,1.112,1.112,0,0,1,.565-.7A1.187,1.187,0,0,1,16.622,13.223Zm4.523,0c.391.292.423.394.423,1.34,0,.781-.013.888-.13,1.044a1.04,1.04,0,0,1-1.688,0c-.109-.145-.133-.285-.151-.866a6.683,6.683,0,0,1,.018-.9,1.112,1.112,0,0,1,.565-.7A1.187,1.187,0,0,1,21.145,13.223ZM3.556,15.233c.391.292.423.394.423,1.34,0,.781-.013.888-.13,1.044a.9.9,0,0,1-.844.432.9.9,0,0,1-.844-.432c-.109-.145-.133-.285-.151-.866a6.683,6.683,0,0,1,.018-.9,1.112,1.112,0,0,1,.565-.7A1.187,1.187,0,0,1,3.556,15.233Zm0,4.523c.391.292.423.394.423,1.34,0,.781-.013.888-.13,1.044a.9.9,0,0,1-.844.432.9.9,0,0,1-.844-.432c-.109-.145-.133-.285-.151-.866a6.683,6.683,0,0,1,.018-.9,1.112,1.112,0,0,1,.565-.7A1.187,1.187,0,0,1,3.556,19.756Zm10.1.433c-.087.087-.1.484-.1,3.419s.011,3.332.1,3.419.393.1,2.414.1,2.328-.013,2.414-.1.1-.484.1-3.419-.011-3.332-.1-3.419-.393-.1-2.414-.1S13.744,20.1,13.658,20.189Z" transform="translate(95.843 368.28)" fill="#fff" fill-rule="evenodd"/>
      <path id="Subtraction_1" data-name="Subtraction 1" d="M40,45H5a5.006,5.006,0,0,1-5-5V5A5.006,5.006,0,0,1,5,0H40a5.006,5.006,0,0,1,5,5V40A5.006,5.006,0,0,1,40,45ZM22.5,9.843a9.844,9.844,0,1,0,9.844,9.844A9.855,9.855,0,0,0,22.5,9.843Z" transform="translate(308.758 276.512)" fill="#fff"/>
      <path id="Polygon_1" data-name="Polygon 1" d="M3.1.752a.5.5,0,0,1,.866,0L6.634,5.383a.5.5,0,0,1-.433.75H.865a.5.5,0,0,1-.433-.75Z" transform="translate(335.211 292.913) rotate(90)" fill="#fff"/>
      <path id="Path_21268" data-name="Path 21268" d="M4395.417,168.75h29.42" transform="translate(-4079.103 145.076)" fill="none" stroke="#de4056" stroke-linecap="round" stroke-width="1"/>
      <path id="Path_21269" data-name="Path 21269" d="M0,0H3.544" transform="translate(321.099 312.054) rotate(90)" fill="none" stroke="#de4056" stroke-linecap="round" stroke-width="1"/>
    </g>
  </g>
</svg>
