<svg xmlns="http://www.w3.org/2000/svg" width="20.94" height="24.25" viewBox="0 0 20.94 24.25">
  <path id="island-with-palm-trees_1_Traced_" data-name="island-with-palm-trees 1 (Traced)" d="M7.958.024a2.869,2.869,0,0,0-.817.244.34.34,0,0,0-.047.371,1.62,1.62,0,0,0,.343.207A4.785,4.785,0,0,1,9.806,3.463c.081.214.082.233.011.132A4.115,4.115,0,0,0,8.266,2.284,3.349,3.349,0,0,0,6.7,1.9,4.166,4.166,0,0,0,3.256,3.308c-.318.373-.2.609.253.522a6.179,6.179,0,0,1,1.521,0A5.53,5.53,0,0,1,8.509,6.269c.077.122.051.11-.195-.09a2.5,2.5,0,0,0-3.483.256C4.3,6.966,4,7.646,4.193,7.86c.117.129.188.118.478-.075a2.484,2.484,0,0,1,1.491-.438,3.2,3.2,0,0,1,1.672.321,2.069,2.069,0,0,1,.734.544,2.363,2.363,0,0,1-.372.379,18.39,18.39,0,0,0-2.576,3.056A37.026,37.026,0,0,0,.945,21.763c-.257.831-.315.971-.469,1.137-.428.461-.478.54-.476.748a.545.545,0,0,0,.262.51c.136.09.334.092,10.176.092,9.192,0,10.051-.006,10.2-.077a.542.542,0,0,0,.3-.527c0-.591-1.852-2.029-3.6-2.8a15.408,15.408,0,0,0-3.1-.982c-.311-.067-.573-.129-.583-.139s-.071-.259-.138-.556a9.388,9.388,0,0,0-.565-1.774c-.187-.41-.182-.422.16-.474a1.4,1.4,0,0,1,1.222.438c.252.275.322.245.295-.128a1.183,1.183,0,0,0-.5-.868c-.189-.136-.237-.148-.581-.148-.424,0-.418-.032.042-.239a2.039,2.039,0,0,1,1.707-.026,1.019,1.019,0,0,0,.357.113c.142-.088-.22-.726-.549-.968a1.68,1.68,0,0,0-1.148-.4,1.2,1.2,0,0,0-.734.152l-.308.153.237-.22a2.139,2.139,0,0,1,1.015-.515c.119-.016.254-.04.3-.052.144-.04.094-.2-.1-.321a1.87,1.87,0,0,0-1.775-.081,1.7,1.7,0,0,0-.8.817,1.034,1.034,0,0,1-.125.232.768.768,0,0,1-.146-.087,1.671,1.671,0,0,0-1.192-.245,1.919,1.919,0,0,0-1.355,1.025c-.186.42-.116.479.328.276a2.3,2.3,0,0,1,1.146-.184l.284.034-.3.061a1.641,1.641,0,0,0-.933.5,1.975,1.975,0,0,0-.5.964c-.081.394,0,.928.143.928a1.129,1.129,0,0,0,.238-.305,1.951,1.951,0,0,1,1.3-.926,3.071,3.071,0,0,1,.515-.095c.133,0,.125.009-.107.125a1.12,1.12,0,0,0-.4,1.643c.065.1.143.173.173.163a.616.616,0,0,0,.107-.3,1.406,1.406,0,0,1,.389-.785,1.2,1.2,0,0,1,.6-.373,4.844,4.844,0,0,1,.452,1.848,3.191,3.191,0,0,1,.027.419c-.007.009-.457-.007-1-.034a18.444,18.444,0,0,0-5,.4,3.487,3.487,0,0,1-.581.1,13.082,13.082,0,0,1,.2-1.916A18.679,18.679,0,0,1,9.959,9.5l.111-.135.243.192a3.437,3.437,0,0,1,.958,1.438,3.03,3.03,0,0,1,.03,2.015c-.135.369-.119.5.068.557.233.074.955-.522,1.256-1.037a2.778,2.778,0,0,0,.339-1.959,2.771,2.771,0,0,0-1-1.49c-.226-.164-.209-.165.191-.015a5.357,5.357,0,0,1,1.818,1.205,4.561,4.561,0,0,1,1.418,2.864c.046.409.1.5.289.5.139,0,.3-.183.584-.677a4.3,4.3,0,0,0,.452-2.439,4.01,4.01,0,0,0-2.28-3.332l-.3-.144.261.033a5.382,5.382,0,0,1,1.975.736,4.826,4.826,0,0,1,1.013.924c.209.262.263.3.4.3.261,0,.32-.116.321-.625a4.12,4.12,0,0,0-.721-2.258A3.981,3.981,0,0,0,13.17,4.352c-.248.051-.458.094-.468.094a.442.442,0,0,1,.011-.177,4.391,4.391,0,0,0-.188-1.424A4.178,4.178,0,0,0,9.148.062,4.531,4.531,0,0,0,7.958.024Z" fill="#e04b5d" fill-rule="evenodd"/>
</svg>
