<svg xmlns="http://www.w3.org/2000/svg" width="20.095" height="22.622" viewBox="0 0 20.095 22.622">
  <path id="hotel_2_1_Traced_" data-name="hotel (2) 1 (Traced)" d="M7.193.065a.882.882,0,0,0-.442.467C6.713.634,6.7,4.005,6.7,11.647V22.615H8.08c1.192,0,1.4-.012,1.467-.083s.081-.39.069-2.893L9.6,16.828l-.246-.117a.83.83,0,0,1-.54-.795.742.742,0,0,1,.466-.742c.2-.092.423-.1,4.116-.1s3.913.005,4.116.1a.742.742,0,0,1,.466.742.83.83,0,0,1-.54.795l-.246.117-.014,2.811c-.012,2.5,0,2.82.069,2.893a10.344,10.344,0,0,0,2.769,0c.075-.075.081-1.117.069-11.046L20.076.523,19.968.378a1.5,1.5,0,0,0-.253-.253c-.144-.107-.174-.108-6.255-.119C8.448,0,7.322.007,7.193.065Zm2.894,2.58c.326.243.353.328.353,1.117s-.026.873-.361,1.123a.953.953,0,0,1-.9,0c-.314-.235-.359-.35-.378-.975a5.571,5.571,0,0,1,.015-.754.927.927,0,0,1,.471-.58A.99.99,0,0,1,10.087,2.645Zm3.771,0c.326.243.353.328.353,1.117s-.026.873-.361,1.123a.953.953,0,0,1-.9,0c-.314-.235-.359-.35-.378-.975a5.572,5.572,0,0,1,.015-.754.927.927,0,0,1,.471-.58A.99.99,0,0,1,13.858,2.645Zm3.771,0c.326.243.353.328.353,1.117s-.026.873-.361,1.123a.953.953,0,0,1-.9,0c-.314-.235-.359-.35-.378-.975a5.571,5.571,0,0,1,.015-.754.927.927,0,0,1,.471-.58A.99.99,0,0,1,17.629,2.645ZM.487,5.512a.907.907,0,0,0-.469.569C0,6.174,0,9.812,0,14.167c.015,7.9.015,7.917.123,8.062a1.5,1.5,0,0,0,.253.253c.14.1.217.108,2.309.123,1.928.013,2.173.006,2.248-.069s.084-.849.084-8.508c0-7.588-.008-8.432-.082-8.506S4.6,5.438,2.751,5.44A12.887,12.887,0,0,0,.487,5.512Zm9.6,1.323c.326.243.353.328.353,1.117s-.026.873-.361,1.123a.953.953,0,0,1-.9,0c-.314-.235-.359-.35-.378-.975a5.571,5.571,0,0,1,.015-.754.927.927,0,0,1,.471-.58A.99.99,0,0,1,10.087,6.835Zm3.771,0c.326.243.353.328.353,1.117s-.026.873-.361,1.123a.953.953,0,0,1-.9,0c-.314-.235-.359-.35-.378-.975a5.572,5.572,0,0,1,.015-.754.927.927,0,0,1,.471-.58A.99.99,0,0,1,13.858,6.835Zm3.771,0c.326.243.353.328.353,1.117s-.026.873-.361,1.123a.953.953,0,0,1-.9,0c-.314-.235-.359-.35-.378-.975a5.571,5.571,0,0,1,.015-.754.927.927,0,0,1,.471-.58A.99.99,0,0,1,17.629,6.835ZM2.965,8.929c.326.243.353.328.353,1.117,0,.651-.011.74-.108.87a.747.747,0,0,1-.7.361.747.747,0,0,1-.7-.36c-.091-.121-.111-.238-.126-.722a5.571,5.571,0,0,1,.015-.754.927.927,0,0,1,.471-.58A.99.99,0,0,1,2.965,8.929Zm7.122,2.095c.326.243.353.328.353,1.117,0,.651-.011.74-.108.87a.747.747,0,0,1-.7.361.747.747,0,0,1-.7-.36c-.091-.121-.111-.238-.126-.722a5.571,5.571,0,0,1,.015-.754.927.927,0,0,1,.471-.58A.99.99,0,0,1,10.087,11.024Zm3.771,0c.326.243.353.328.353,1.117,0,.651-.011.74-.108.87a.867.867,0,0,1-1.407,0c-.091-.121-.111-.238-.126-.722a5.572,5.572,0,0,1,.015-.754.927.927,0,0,1,.471-.58A.99.99,0,0,1,13.858,11.024Zm3.771,0c.326.243.353.328.353,1.117,0,.651-.011.74-.108.87a.867.867,0,0,1-1.407,0c-.091-.121-.111-.238-.126-.722a5.571,5.571,0,0,1,.015-.754.927.927,0,0,1,.471-.58A.99.99,0,0,1,17.629,11.024ZM2.965,12.7c.326.243.353.328.353,1.117,0,.651-.011.74-.108.87a.747.747,0,0,1-.7.361.747.747,0,0,1-.7-.36c-.091-.121-.111-.238-.126-.722a5.571,5.571,0,0,1,.015-.754.927.927,0,0,1,.471-.58A.99.99,0,0,1,2.965,12.7Zm0,3.771c.326.243.353.328.353,1.117,0,.651-.011.74-.108.87a.747.747,0,0,1-.7.361.747.747,0,0,1-.7-.36c-.091-.121-.111-.238-.126-.722a5.571,5.571,0,0,1,.015-.754.927.927,0,0,1,.471-.58A.99.99,0,0,1,2.965,16.471Zm8.422.361c-.073.073-.082.4-.082,2.85s.01,2.778.082,2.85.328.082,2.013.082,1.941-.01,2.013-.082.082-.4.082-2.85-.01-2.778-.082-2.85-.328-.082-2.013-.082S11.458,16.76,11.387,16.832Z" transform="translate(0 -0.003)" fill="#e04b5d" fill-rule="evenodd"/>
</svg>
