<svg xmlns="http://www.w3.org/2000/svg" xmlns:xlink="http://www.w3.org/1999/xlink" width="215" height="215" viewBox="0 0 215 215">
  <defs>
    <clipPath id="clip-path">
      <rect id="Rectangle_3723" data-name="Rectangle 3723" width="215" height="215" rx="10" transform="translate(47 412)" fill="#fff1ec"/>
    </clipPath>
  </defs>
  <g id="Mask_Group_222" data-name="Mask Group 222" transform="translate(-47 -412)" clip-path="url(#clip-path)">
    <g id="offers" transform="translate(194.819 559.884)" opacity="0.2">
      <path id="Path_32458" data-name="Path 32458" d="M73.495,20.246l1.736,5.209A7.692,7.692,0,0,0,78.2,29.518l4.393,2.952a7.762,7.762,0,0,1,2.882,9.324l-1.736,4.219a7.744,7.744,0,0,0,0,5.817l1.736,4.115A7.761,7.761,0,0,1,82.8,65.182l-3.907,2.8a7.71,7.71,0,0,0-2.952,4.185l-1.406,4.931A7.744,7.744,0,0,1,66.428,82.7l-4.219-.347a7.658,7.658,0,0,0-5.521,1.736l-4.063,3.282a7.761,7.761,0,0,1-9.81,0l-3.473-2.848a7.726,7.726,0,0,0-4.931-1.736H28.316a7.727,7.727,0,0,1-7.553-6.008l-1.111-4.723a7.71,7.71,0,0,0-3.195-4.671l-3.733-2.743a7.726,7.726,0,0,1-2.934-8.977l1.736-4.757a7.709,7.709,0,0,0,0-5.365L9.963,41.377A7.744,7.744,0,0,1,13,32.14l4.115-2.657a7.779,7.779,0,0,0,3.264-4.428L21.6,20.68a7.761,7.761,0,0,1,8.143-5.643l3.889.33a7.778,7.778,0,0,0,5.539-1.736l3.7-2.986a7.779,7.779,0,0,1,9.845,0l3.23,2.709A7.691,7.691,0,0,0,61.5,15.089l4.08-.3a7.762,7.762,0,0,1,7.918,5.452Z" transform="translate(-9.343 -8.889)" fill="#fff1ec" stroke="#ff7545" stroke-miterlimit="10" stroke-width="3"/>
      <path id="Path_32459" data-name="Path 32459" d="M29.27,33.4a6.546,6.546,0,1,0-6.546-6.546A6.546,6.546,0,0,0,29.27,33.4ZM49.238,60.9a6.546,6.546,0,1,0-6.546-6.546A6.546,6.546,0,0,0,49.238,60.9Zm6.546-37.33L21.3,58.074" transform="translate(-0.539 -0.479)" fill="#fff" stroke="#ff7545" stroke-linecap="round" stroke-linejoin="round" stroke-width="3"/>
    </g>
  </g>
</svg>
