<svg xmlns="http://www.w3.org/2000/svg" xmlns:xlink="http://www.w3.org/1999/xlink" width="322" height="212" viewBox="0 0 322 212">
  <defs>
    <clipPath id="clip-path">
      <path id="Rectangle_3621" data-name="Rectangle 3621" d="M20,0H302a20,20,0,0,1,20,20V212a0,0,0,0,1,0,0H0a0,0,0,0,1,0,0V20A20,20,0,0,1,20,0Z" transform="translate(0.039 -0.036)" fill="none"/>
    </clipPath>
    <linearGradient id="linear-gradient" x1="-548.07" y1="-1753.554" x2="-547.075" y2="-1753.554" gradientUnits="objectBoundingBox">
      <stop offset="0" stop-color="#febbba"/>
      <stop offset="1" stop-color="#ff928e"/>
    </linearGradient>
    <linearGradient id="linear-gradient-2" x1="1.122" y1="0.327" x2="0.236" y2="0.725" xlink:href="#linear-gradient"/>
    <linearGradient id="linear-gradient-3" x1="-65.336" y1="0.838" x2="-65.616" y2="-0.23" xlink:href="#linear-gradient"/>
    <linearGradient id="linear-gradient-4" x1="0.113" y1="0.34" x2="1.188" y2="0.759" xlink:href="#linear-gradient"/>
    <linearGradient id="linear-gradient-5" x1="121.287" y1="139.547" x2="122.197" y2="139.547" gradientUnits="objectBoundingBox">
      <stop offset="0" stop-color="#09005d"/>
      <stop offset="1" stop-color="#1a0f91"/>
    </linearGradient>
    <linearGradient id="linear-gradient-6" x1="-1.789" y1="-0.604" x2="1.155" y2="0.817" xlink:href="#linear-gradient"/>
    <linearGradient id="linear-gradient-7" x1="131.378" y1="0.495" x2="132.391" y2="0.495" xlink:href="#linear-gradient"/>
    <linearGradient id="linear-gradient-8" x1="85.184" y1="-11.414" x2="85.232" y2="1.302" xlink:href="#linear-gradient-5"/>
    <linearGradient id="linear-gradient-9" x1="97.826" y1="0.497" x2="98.823" y2="0.497" xlink:href="#linear-gradient"/>
    <linearGradient id="linear-gradient-10" x1="0.517" y1="0.563" x2="0.577" y2="1.392" gradientUnits="objectBoundingBox">
      <stop offset="0" stop-color="#fe7062"/>
      <stop offset="1" stop-color="#ff928e"/>
    </linearGradient>
    <linearGradient id="linear-gradient-11" x1="-284.198" y1="118.562" x2="-284.143" y2="109.057" gradientUnits="objectBoundingBox">
      <stop offset="0" stop-color="#e1473d"/>
      <stop offset="1" stop-color="#e9605a"/>
    </linearGradient>
    <linearGradient id="linear-gradient-12" x1="-768.023" y1="63.31" x2="-767.873" y2="58.299" xlink:href="#linear-gradient-11"/>
    <linearGradient id="linear-gradient-13" x1="-284.176" y1="119.64" x2="-284.121" y2="110.134" xlink:href="#linear-gradient-11"/>
    <linearGradient id="linear-gradient-14" x1="-743.157" y1="58.841" x2="-743.011" y2="54.231" xlink:href="#linear-gradient-11"/>
    <linearGradient id="linear-gradient-15" x1="-82.545" y1="35.015" x2="-82.529" y2="32.313" xlink:href="#linear-gradient-11"/>
    <linearGradient id="linear-gradient-16" x1="0.508" y1="-0.072" x2="0.546" y2="-4.918" xlink:href="#linear-gradient"/>
    <linearGradient id="linear-gradient-17" x1="0.446" y1="-0.08" x2="0.54" y2="1.088" xlink:href="#linear-gradient-10"/>
    <linearGradient id="linear-gradient-18" x1="0.209" y1="1.189" x2="1.053" y2="-0.829" xlink:href="#linear-gradient-11"/>
    <linearGradient id="linear-gradient-19" x1="1.058" y1="-2.142" x2="0.208" y2="1.936" xlink:href="#linear-gradient-10"/>
    <linearGradient id="linear-gradient-20" x1="0.728" y1="0.159" x2="-0.104" y2="1.383" xlink:href="#linear-gradient"/>
    <linearGradient id="linear-gradient-21" x1="-213.868" y1="-0.844" x2="-214.377" y2="2.39" xlink:href="#linear-gradient"/>
    <linearGradient id="linear-gradient-22" x1="-176.259" y1="-2.135" x2="-176.745" y2="0.595" xlink:href="#linear-gradient"/>
    <linearGradient id="linear-gradient-23" x1="-0.183" y1="1.202" x2="1.15" y2="-0.033" xlink:href="#linear-gradient"/>
    <linearGradient id="linear-gradient-24" x1="0.376" y1="0.718" x2="1.007" y2="-0.071" xlink:href="#linear-gradient"/>
    <linearGradient id="linear-gradient-25" x1="-0.008" y1="-0.153" x2="0.675" y2="0.656" xlink:href="#linear-gradient-5"/>
    <linearGradient id="linear-gradient-26" x1="0.487" y1="0.535" x2="3.058" y2="-2.04" xlink:href="#linear-gradient"/>
    <linearGradient id="linear-gradient-27" x1="0.689" y1="0.245" x2="-0.548" y2="0.986" xlink:href="#linear-gradient-10"/>
    <linearGradient id="linear-gradient-28" x1="1.311" y1="-0.075" x2="0.001" y2="0.945" xlink:href="#linear-gradient"/>
    <linearGradient id="linear-gradient-29" x1="0.998" y1="-1.187" x2="-0.408" y2="2.868" xlink:href="#linear-gradient"/>
    <linearGradient id="linear-gradient-30" x1="0.702" y1="0.019" x2="-1.505" y2="3.328" xlink:href="#linear-gradient"/>
    <linearGradient id="linear-gradient-31" x1="0.797" y1="0.876" x2="-0.159" y2="0.008" xlink:href="#linear-gradient"/>
  </defs>
  <g id="Mask_Group_174" data-name="Mask Group 174" transform="translate(-0.039 0.036)" clip-path="url(#clip-path)">
    <g id="Group_6774" data-name="Group 6774" transform="translate(16.292 168.698)">
      <path id="Path_21295" data-name="Path 21295" d="M296.641,323.566,16.2,324.052s1.456-22.332,22.574-22.17c0,0,14.16-13.189,40.861-8.091a37.674,37.674,0,0,1,36.491-20.309c16.668.971,31.637,20.39,31.637,20.39s15.778-21.765,44.016-2.832c0,0,14.321-8.415,28.319,0,0,0,12.46-4.208,19.823-.809,0,0,18.61-4.45,28.967,10.357.081,0,27.753,1.375,27.753,22.979" transform="translate(-16.2 -273.404)" fill="#f5ccad"/>
    </g>
    <g id="redscreen3" transform="translate(-9.155 2.314)">
      <path id="Path_21389" data-name="Path 21389" d="M298.431,257.537a83.168,83.168,0,0,1-14.646,47.09,84.088,84.088,0,0,1-150.6-25.351,82.392,82.392,0,0,1-2.89-21.8,83.489,83.489,0,0,1,1.9-17.8.241.241,0,0,1,.066-.2,83.193,83.193,0,0,1,22.658-41.113,85.505,85.505,0,0,1,10.18-8.669q2.561-1.872,5.32-3.546a84.146,84.146,0,0,1,44-12.347c2.167,0,4.269.066,6.371.263a77.439,77.439,0,0,1,8.735,1.116,84.048,84.048,0,0,1,55.956,37.567c1.314,2.036,2.5,4.072,3.612,6.239a81.656,81.656,0,0,1,6.436,16.288A88.786,88.786,0,0,1,298.431,257.537Z" transform="translate(-44.724 -137.151)" fill="#ffe1cb"/>
      <path id="Path_21390" data-name="Path 21390" d="M186.792,226.212c-3.35,5.254,1.379,14.449-8.669,11.953s-16.222-3.612-16.748,1.97c-.591,5.582,7.553,5.582,7.553,11.428s-3.612,7.75-9.195,4.991-7.224-6.83-13.726-4.335-10.245.854-11.756-4.2a6.665,6.665,0,0,0-1.051-2.167.241.241,0,0,1,.066-.2,83.193,83.193,0,0,1,22.658-41.113,85.494,85.494,0,0,1,10.18-8.669q2.561-1.872,5.32-3.546a10.928,10.928,0,0,1,8.407,4.4c5.845,7.224,9.786,3.612,8.406,11.953s.854,9.457,5.583,9.195,10.377-.263,10.9,3.35S190.141,220.892,186.792,226.212ZM221.6,276.257s-7.421,2.364-9.392-2.758.263-6.239-6.3-7.815c-6.568-1.51-7.159-5.977-11.3-5.451-4.2.525-2.1,2.233-6.962,5.845s-9.392,1.97-9.195,8.6c.131,6.7,7.422,7.684,8.866,12.084s-1.051,6.239,2.1,9.589,9,1.9,6.3,6.436c-2.758,4.6-6.9,8.144-4.794,15.237s.657,7.487,4.2,12.478,10.508,6.7,11.559,3.35-4.794-7.684-2.955-11.034c1.9-3.349,5.057-1.051,6.3-6.042s6.371-4.991,6.765-8.472-6.174-8.735-3.612-10.968c2.5-2.233,7.553,4.006,11.493-1.511,3.941-5.582,1.248-9.983,5.32-15.3C233.882,275.272,224.424,273.171,221.6,276.257Zm77.826-12.61a83.163,83.163,0,0,1-14.646,47.09,9.431,9.431,0,0,1-6.7-.2c-10.508-4.2-2.758-15.434,1.445-21.082s-6.5-3.152-14.252-8.341.854-19.178-7.159-16.879c-7.947,2.3-17.6,5.188-22.2-2.5s4.2-9,.2-15.434,2.3-10.245,10.246-10.837c7.947-.657,6.9-6.239,16.747-7.093s9.655,11.69,20.557,10.837,10.442,1.642,10.442,1.642a5.53,5.53,0,0,1,2.3.46A84.038,84.038,0,0,1,299.427,263.647Zm-9.392-38.486c-9.063,4.4-12.675-7.553-20.425-3.94-7.816,3.612-6.436-3.35-12.61-7.816s-18.455,3.612-17.864-3.35c.525-6.962,9.786-4.991,11.756-10.574s10.9-4.2,10.9-4.2a6.659,6.659,0,0,1,1.642-.394,84.247,84.247,0,0,1,23.052,23.972c1.248,2.1,2.43,4.138,3.547,6.3Zm-74.477-23.972s4.729-6.83-2.824-8.8c-7.553-2.036-7.421.591-13.266,0s-8.21,3.875-3.744,8.8c4.4,4.925,7.947,14.383,11.953,9.326S210.9,201.649,215.558,201.189Z" transform="translate(-45.719 -143.261)" fill="#ffb27d" opacity="0.44"/>
      <path id="Path_21391" data-name="Path 21391" d="M239.512,276.666s-3.415-2.233-3.875-1.708a9.413,9.413,0,0,0-.919,1.51,1.2,1.2,0,0,0,.2,1.445l.854.92a1.975,1.975,0,0,0,2.955-.131,3.8,3.8,0,0,0,.788-2.036Z" transform="translate(-80.51 -171.844)" fill="url(#linear-gradient)"/>
      <path id="Path_21392" data-name="Path 21392" d="M243.387,268.935s-1.182-3.087-2.5-2.758a8.486,8.486,0,0,0-2.824,1.314l-2.168,2.955s6.108,2.43,8.275,1.051a48.839,48.839,0,0,0,14.186-.2,33.215,33.215,0,0,1-2.233-6.7A35.814,35.814,0,0,1,243.387,268.935Z" transform="translate(-80.97 -168.317)" fill="url(#linear-gradient-2)"/>
      <path id="Path_21393" data-name="Path 21393" d="M287.091,237.4s-8.932,11.3-20.491,17.8a28.5,28.5,0,0,0,2.233,6.7,37.415,37.415,0,0,0,18.783-8.538Z" transform="translate(-91.507 -158.981)" fill="#b5001f"/>
      <path id="Path_21394" data-name="Path 21394" d="M308.366,286.459c-1.773-8.341-3.48-13.135-9.391-28.9-1.839-4.992-3.546-9.983-2.693-15.237l.919-5.845a43.7,43.7,0,0,1,24.038-.132s17.207,7.487,5.517,44.463C321.436,286.656,315.262,288.363,308.366,286.459Z" transform="translate(-101.617 -158.06)" fill="#b5001f"/>
      <path id="Path_21395" data-name="Path 21395" d="M300.7,224.9,303.655,232a1.383,1.383,0,0,0,1.051.854c1.708.263,5.845.722,8.538-1.051a.723.723,0,0,0,.2-.985L307.99,223Z" transform="translate(-103.211 -154.038)" fill="url(#linear-gradient-3)"/>
      <path id="Path_21396" data-name="Path 21396" d="M302.654,209.2c-.132.131-5.254,10.18-5.254,10.18l5.779,2.824,6.239-8.8C309.484,213.333,304.69,207.225,302.654,209.2Z" transform="translate(-102.079 -149.166)" fill="url(#linear-gradient-4)"/>
      <path id="Path_21397" data-name="Path 21397" d="M306.047,212.168l-2.89,4.795c-.066.065-.066.131-.131.2a1.519,1.519,0,0,1-2.43,0,9.575,9.575,0,0,0-2.3-2.5.9.9,0,0,0-1.248.394,39.8,39.8,0,0,0-1.97,4.663.906.906,0,0,0,.525,1.116,29,29,0,0,0,5.583,1.642.791.791,0,0,0,.854-.394c.854-1.182,3.35-4.6,4.2-5.451.788-.788,2.233-.46,2.89-.328a.905.905,0,0,0,.723-.066,2.037,2.037,0,0,0,.788-3.087.934.934,0,0,1,.263-1.248,2.022,2.022,0,0,0,.788-2.89,2.868,2.868,0,0,0-3.152-1.51.931.931,0,0,1-.985-.591.575.575,0,0,0-.46-.394.852.852,0,0,1-.723-1.051,2.274,2.274,0,0,0-1.313-2.693c-2.5-1.379-4.663.854-5.254,2.758-.525,1.9,2.233,3.218,4.006,3.481,1.313.131,1.97,1.576,2.3,2.3A1.211,1.211,0,0,1,306.047,212.168Z" transform="translate(-101.269 -146.95)" fill="url(#linear-gradient-5)"/>
      <path id="Path_21398" data-name="Path 21398" d="M310.2,225.022s1.248-2.955,2.693-2.824,2.561,1.511.788,3.152C311.448,227.321,310.2,225.022,310.2,225.022Z" transform="translate(-106.472 -153.761)" fill="url(#linear-gradient-6)"/>
      <g id="Group_6760" data-name="Group 6760" transform="translate(205.237 192.236)">
        <path id="Path_21399" data-name="Path 21399" d="M312.893,425.1c2.759.263,7.553.656,11.3.788a11.484,11.484,0,0,0,4.334-.394v.263a.728.728,0,0,1-.722.722,129.3,129.3,0,0,1-14.777,0,.575.575,0,0,1-.46-.854A5.924,5.924,0,0,1,312.893,425.1Z" transform="translate(-312.498 -415.642)" fill="#090e1e"/>
        <path id="Path_21400" data-name="Path 21400" d="M324.4,422.971c-3.744-.2-8.538-.526-11.3-.788,2.692-3.349,11.3-5.583,11.3-5.583h2.43a10.54,10.54,0,0,1,1.9,5.911A9,9,0,0,1,324.4,422.971Z" transform="translate(-312.705 -412.725)"/>
        <path id="Path_21401" data-name="Path 21401" d="M332.266,410.7l-.2,4.466a1.049,1.049,0,0,1-.854.985,4.634,4.634,0,0,1-1.839-.131,1.241,1.241,0,0,1-.789-.92l-.788-4.4Z" transform="translate(-317.75 -410.7)" fill="url(#linear-gradient-7)"/>
      </g>
      <g id="Group_6761" data-name="Group 6761" transform="translate(243.133 188.033)">
        <path id="Path_21402" data-name="Path 21402" d="M380.437,425.545a2.309,2.309,0,0,0,1.97-1.445,1.544,1.544,0,0,1-1.051,1.773,7.788,7.788,0,0,1-2.89.46,2.939,2.939,0,0,1-2.167-.985A7.83,7.83,0,0,0,380.437,425.545Z" transform="translate(-372.294 -411.096)" fill="url(#linear-gradient-8)"/>
        <path id="Path_21403" data-name="Path 21403" d="M373.241,410.6h1.97c3.021-.066,4.991,6.37,5.583,8.866a2.131,2.131,0,0,1-1.971,1.445,7.9,7.9,0,0,1-4.138-.2,17.916,17.916,0,0,1-2.824-7.224A2.508,2.508,0,0,1,373.241,410.6Z" transform="translate(-370.745 -406.462)"/>
        <path id="Path_21404" data-name="Path 21404" d="M374.469,404.3l1.117,4.4a1.234,1.234,0,0,1-.657,1.379,3.856,3.856,0,0,1-2.3.525.927.927,0,0,1-.788-.657l-1.642-4.663Z" transform="translate(-370.2 -404.3)" fill="url(#linear-gradient-9)"/>
      </g>
      <path id="Path_21405" data-name="Path 21405" d="M356.561,371.533c-1.379,1.248-5.911,1.379-5.911,1.379-16.222-38.88-22.921-49.586-22.921-49.586,2.364,14.646.526,52.344.526,52.344-2.693,1.182-6.108,0-6.108,0-.2-24.037-3.612-49.848-7.947-66.333,10.968-.263,16.879-2.627,18.783-4.138C342.047,319.912,356.561,371.533,356.561,371.533Z" transform="translate(-107.845 -182.252)" fill="#284663"/>
      <g id="Group_6762" data-name="Group 6762" transform="translate(202.252 116.69)">
        <path id="Path_21406" data-name="Path 21406" d="M309.9,325.46,311.936,338a4.121,4.121,0,0,0,4.6,3.415l30.145-3.678a3.027,3.027,0,0,0,2.627-2.89,55.023,55.023,0,0,0-1.445-14.252Z" transform="translate(-308.621 -304.228)" fill="url(#linear-gradient-10)"/>
        <path id="Path_21407" data-name="Path 21407" d="M317.605,340.7c-.066,0-.066,0-.066-.066s0-.066.066-.066l.525-.065c.065,0,.065,0,.065.065s0,.066-.065.066Zm-1.248-.066c-.2-.066-.394-.066-.525-.131a.066.066,0,0,1,0-.132,1.542,1.542,0,0,0,.525.132.066.066,0,1,1,0,.131Zm3.087-.2c-.065,0-.065,0-.065-.065s0-.066.065-.066l.525-.066c.066,0,.066,0,.066.066s0,.066-.066.066Zm1.773-.2c-.065,0-.065,0-.065-.066s0-.066.065-.066l.526-.066c.066,0,.066,0,.066.066s0,.066-.066.066Zm1.774-.2c-.066,0-.066,0-.066-.066s0-.066.066-.066l.525-.066c.066,0,.066,0,.066.066s0,.066-.066.066Zm-8.275-.131a2.872,2.872,0,0,1-.46-.394v-.065h.066a1.738,1.738,0,0,0,.394.328c.066,0,.066.066,0,.132Zm10.114-.132c-.066,0-.066,0-.066-.065s0-.066.066-.066l.525-.066c.066,0,.066,0,.066.066s0,.066-.066.066Zm1.773-.2c-.066,0-.066,0-.066-.066s0-.065.066-.065l.526-.066c.066,0,.066,0,.066.066s0,.065-.066.065Zm1.839-.2c-.066,0-.066,0-.066-.066s0-.065.066-.065l.525-.066c.066,0,.066,0,.066.066s0,.065-.066.065Zm1.773-.263c-.066,0-.066,0-.066-.066s0-.066.066-.066l.526-.066c.066,0,.066,0,.066.066s0,.066-.066.066Zm1.773-.2c-.066,0-.066,0-.066-.066s0-.066.066-.066l.526-.066c.065,0,.065,0,.065.066s0,.066-.065.066Zm1.839-.2c-.066,0-.066,0-.066-.066s0-.066.066-.066l.526-.065c.066,0,.066,0,.066.065s0,.066-.066.066Zm-20.228-.2h0a3.912,3.912,0,0,1-.263-.525c0-.066,0-.066.066-.066s.066,0,.066.066c.065.2.131.328.2.525C313.664,338.467,313.664,338.467,313.6,338.533Zm22-.066c-.066,0-.066,0-.066-.065s0-.066.066-.066l.525-.065c.066,0,.066,0,.066.065s0,.066-.066.066Zm1.773-.2c-.066,0-.066,0-.066-.066s0-.066.066-.066l.526-.066c.066,0,.066,0,.066.066s0,.066-.066.066l-.526.066Zm1.839-.2c-.066,0-.066,0-.066-.066s0-.066.066-.066l.526-.066c.066,0,.066,0,.066.066s0,.066-.066.066Zm1.773-.263c-.065,0-.065,0-.065-.066s0-.066.065-.066l.526-.066c.066,0,.066,0,.066.066s0,.066-.066.066Zm1.839-.2c-.066,0-.066,0-.066-.066s0-.065.066-.065l.526-.066c.066,0,.066,0,.066.066s0,.065-.066.065Zm1.773-.2c-.066,0-.066,0-.066-.065s0-.066.066-.066l.526-.065c.066,0,.066,0,.066.065s0,.066-.066.066Zm1.773-.263c-.066,0-.066,0-.066-.066s0-.066.066-.066a1.536,1.536,0,0,0,.526-.132c.066,0,.066,0,.066.066s0,.066-.066.066a1.237,1.237,0,0,1-.526.131Zm-33.232-.394c-.065,0-.065,0-.065-.066l-.066-.525c0-.066,0-.066.066-.066s.065,0,.065.066l.066.525C313.2,336.759,313.2,336.759,313.139,336.759Zm34.809-.394c-.066-.066-.066-.066-.066-.131a1.745,1.745,0,0,0,.329-.394s.066-.066.066,0c0,0,.065.066,0,.066,0,.131-.132.263-.329.46Zm-35.137-1.379c-.066,0-.066,0-.066-.066l-.066-.526c0-.065,0-.065.066-.065s.066,0,.066.065l.066.526c.065,0,0,.066-.066.066Zm35.925-.263a.064.064,0,0,1-.066-.066v-.591c0-.066,0-.066.066-.066s.066,0,.066.066v.591C348.8,334.724,348.8,334.724,348.736,334.724Zm-36.188-1.511c-.066,0-.066,0-.066-.065l-.066-.526c0-.066,0-.066.066-.066s.066,0,.066.066l.065.526A.064.064,0,0,1,312.548,333.213Zm36.253-.263c-.066,0-.066,0-.066-.066v-.525c0-.066,0-.066.066-.066s.066,0,.066.066v.525Zm-36.516-1.511c-.066,0-.066,0-.066-.066l-.066-.525c0-.066,0-.066.066-.066s.066,0,.066.066l.066.525A.064.064,0,0,0,312.285,331.44Zm36.45-.328c-.066,0-.066,0-.066-.065v-.526c0-.066,0-.066.066-.066s.066,0,.066.066v.526C348.8,331.111,348.8,331.111,348.736,331.111ZM311.957,329.6c-.066,0-.066,0-.066-.065l-.065-.526c0-.065,0-.065.065-.065s.066,0,.066.065l.066.526C312.023,329.6,312.023,329.6,311.957,329.6Zm36.713-.263c-.066,0-.066,0-.066-.066a1.443,1.443,0,0,0-.066-.525c0-.066,0-.066.066-.066s.066,0,.066.066a1.281,1.281,0,0,0,.066.525A.064.064,0,0,1,348.67,329.338Zm-36.976-1.511c-.066,0-.066,0-.066-.065l-.066-.526c0-.066,0-.066.066-.066s.066,0,.066.066l.066.526A.064.064,0,0,1,311.694,327.828Zm36.844-.328c-.066,0-.066,0-.066-.066,0-.2-.065-.328-.065-.525,0-.065,0-.065.065-.065s.066,0,.066.065c0,.2.066.394.066.525C348.6,327.5,348.6,327.5,348.539,327.5Zm-37.107-1.445c-.065,0-.065,0-.065-.066l-.066-.525c0-.066,0-.066.066-.066s.065,0,.065.066l.066.525Zm36.91-.328c-.066,0-.066,0-.066-.066,0-.2-.066-.328-.066-.525,0-.066,0-.066.066-.066s.066,0,.066.066c0,.2.066.328.066.525A.064.064,0,0,1,348.342,325.726ZM312.22,325.4c-.066,0-.066,0-.066-.065s0-.066.066-.066l.525-.066c.066,0,.066,0,.066.066s0,.066-.066.066Zm1.773-.263c-.066,0-.066,0-.066-.066s0-.065.066-.065l.525-.066c.066,0,.066,0,.066.066s0,.065-.066.065Zm1.773-.2c-.065,0-.065,0-.065-.066s0-.066.065-.066l.526-.065c.066,0,.066,0,.066.065s0,.066-.066.066l-.526.066Zm1.839-.263c-.066,0-.066,0-.066-.066s0-.066.066-.066l.525-.066c.065,0,.065,0,.065.066s0,.066-.065.066Zm1.773-.2c-.066,0-.066,0-.066-.066s0-.066.066-.066l.525-.066c.065,0,.065,0,.065.066s0,.066-.065.066Zm1.839-.263c-.066,0-.066,0-.066-.066s0-.066.066-.066l.525-.066c.066,0,.066,0,.066.066s0,.066-.066.066Zm1.773-.2c-.066,0-.066,0-.066-.066s0-.066.066-.066l.525-.065c.066,0,.066,0,.066.065s0,.066-.066.066Zm25.088-.131a.064.064,0,0,1-.066-.065c0-.2-.066-.328-.066-.526,0-.065,0-.065.066-.065s.066,0,.066.065a1.448,1.448,0,0,1,.066.526C348.144,323.887,348.144,323.887,348.079,323.887Zm-23.315-.131c-.066,0-.066,0-.066-.065s0-.066.066-.066l.525-.066c.066,0,.066,0,.066.066s0,.066-.066.066Zm1.839-.2c-.066,0-.066,0-.066-.066s0-.066.066-.066l.526-.066c.066,0,.066,0,.066.066s0,.066-.066.066Zm1.773-.263c-.065,0-.065,0-.065-.065s0-.066.065-.066l.526-.066c.066,0,.066,0,.066.066s0,.066-.066.066Zm1.773-.2c-.066,0-.066,0-.066-.066s0-.066.066-.066l.525-.066c.066,0,.066,0,.066.066s0,.066-.066.066l-.525.066Zm1.839-.263c-.066,0-.066,0-.066-.065s0-.066.066-.066l.526-.065c.066,0,.066,0,.066.065s0,.066-.066.066Zm1.773-.2c-.065,0-.065,0-.065-.066s0-.066.065-.066l.526-.066c.066,0,.066,0,.066.066s0,.066-.066.066Zm1.839-.263c-.066,0-.066,0-.066-.066s0-.066.066-.066l.526-.066c.066,0,.066,0,.066.066s0,.066-.066.066Zm1.773-.2c-.066,0-.066,0-.066-.066s0-.066.066-.066l.526-.066c.065,0,.065,0,.065.066s0,.066-.065.066Zm10.377-.066a.064.064,0,0,1-.066-.066c-.066-.2-.066-.328-.131-.525,0-.065,0-.065.066-.065s.066,0,.066.065c.066.2.066.328.132.525A.064.064,0,0,1,347.75,322.114Zm-8.6-.2c-.066,0-.066,0-.066-.066s0-.066.066-.066l.526-.065c.066,0,.066,0,.066.065s0,.066-.066.066Zm1.839-.2c-.065,0-.065,0-.065-.066s0-.065.065-.065l.526-.066c.066,0,.066,0,.066.066s0,.065-.066.065Zm1.773-.263c-.066,0-.066,0-.066-.066s0-.066.066-.066l.526-.066c.066,0,.066,0,.066.066s0,.066-.066.066Zm1.773-.2c-.066,0-.066,0-.066-.066s0-.066.066-.066l.526-.066c.066,0,.066,0,.066.066s0,.066-.066.066l-.526.066Zm1.839-.263c-.065,0-.065,0-.065-.066s0-.066.065-.066l.526-.066c.066,0,.066,0,.066.066s0,.066-.066.066Z" transform="translate(-309.102 -304.297)" fill="#fff"/>
        <path id="Path_21408" data-name="Path 21408" d="M321.566,311.361l-.066-.985a.713.713,0,0,1,.526-.525c.919-.263,3.218-.854,4.466-.132l.329,1.116Z" transform="translate(-312.603 -300.375)" fill="url(#linear-gradient-11)"/>
        <path id="Path_21409" data-name="Path 21409" d="M325.076,308.478a1.081,1.081,0,0,1-.657.065c-.263,0-.46-.263-.526-.525L323.5,305l1.576-.2.394,3.021A.692.692,0,0,1,325.076,308.478Z" transform="translate(-313.289 -298.805)" fill="url(#linear-gradient-12)"/>
        <path id="Path_21410" data-name="Path 21410" d="M344.366,308.461l-.066-.985a.712.712,0,0,1,.525-.526c.92-.263,3.218-.854,4.466-.132l.329,1.117Z" transform="translate(-320.428 -299.379)" fill="url(#linear-gradient-13)"/>
        <path id="Path_21411" data-name="Path 21411" d="M347.842,305.406a1.08,1.08,0,0,1-.657.066c-.263,0-.46-.263-.525-.526l-.46-3.349,1.576-.2.46,3.35A.692.692,0,0,1,347.842,305.406Z" transform="translate(-321.081 -297.638)" fill="url(#linear-gradient-14)"/>
        <path id="Path_21412" data-name="Path 21412" d="M322.866,302.652l16.55-2.693a.78.78,0,0,0,.656-.788,8.6,8.6,0,0,0-.2-2.1,1.86,1.86,0,0,0-2.036-1.379c-3.087.329-11.034,1.313-15.171,3.612a1.508,1.508,0,0,0-.788,1.182,3.214,3.214,0,0,0,.2,1.707A.714.714,0,0,0,322.866,302.652Z" transform="translate(-312.721 -295.672)" fill="url(#linear-gradient-15)"/>
        <path id="Path_21413" data-name="Path 21413" d="M322.653,303.141c-.066,0-.131-.066-.2-.131a5.071,5.071,0,0,1-.065-1.314,1.48,1.48,0,0,1,.854-1.182,17.465,17.465,0,0,1,4.072-1.313c.132,0,.2.065.2.132,0,.131-.065.2-.131.2a16.855,16.855,0,0,0-4.007,1.313,1.239,1.239,0,0,0-.657.854,4.112,4.112,0,0,0,.066,1.182C322.85,303.009,322.784,303.141,322.653,303.141Z" transform="translate(-312.902 -296.883)" fill="url(#linear-gradient-16)"/>
        <path id="Path_21414" data-name="Path 21414" d="M309.166,311.206c5.385-.788,28.569-4.006,35.4-4.006a1.34,1.34,0,0,1,1.314.919,45.778,45.778,0,0,1,2.43,9.983,1.1,1.1,0,0,1-.854,1.248l-15.04,4.86-5.451.722-16.813-1.182a1.326,1.326,0,0,1-1.182-1.051,49.934,49.934,0,0,1-.985-10.18A1.284,1.284,0,0,1,309.166,311.206Z" transform="translate(-307.953 -299.629)" fill="url(#linear-gradient-17)"/>
        <path id="Path_21415" data-name="Path 21415" d="M327.533,324.371l-.525-.066a.066.066,0,1,1,0-.131l.525.066.526-.066c.066,0,.066,0,.066.066s0,.065-.066.065Zm-1.839-.131-.526-.066a.066.066,0,0,1,0-.131l.526.066a.064.064,0,0,1,.066.065C325.759,324.24,325.759,324.24,325.694,324.24Zm3.678-.066c-.065,0-.065,0-.065-.065s0-.066.065-.066l.526-.066c.066,0,.066,0,.066.066s0,.066-.066.066Zm-5.451,0-.525-.065a.066.066,0,0,1,0-.132l.525.066a.064.064,0,0,1,.066.066Zm-1.839-.131-.525-.066a.066.066,0,1,1,0-.131l.525.066a.066.066,0,1,1,0,.131Zm9.063-.131c-.066,0-.066,0-.066-.066s0-.066.066-.066l.526-.065c.066,0,.066,0,.066.065s0,.066-.066.066Zm-10.836,0-.526-.066a.066.066,0,1,1,0-.131l.526.065a.064.064,0,0,1,.066.066Zm-1.839-.132-.525-.065a.066.066,0,1,1,0-.131l.525.065a.066.066,0,1,1,0,.131Zm14.449-.131c-.066-.065-.066-.131,0-.131l.525-.2c.066,0,.066,0,.066.066s0,.065-.066.065l-.525.2Zm-16.222,0-.525-.065a.066.066,0,0,1,0-.132l.525.066a.066.066,0,0,1,0,.131Zm-1.839-.131-.525-.066a.066.066,0,1,1,0-.131l.525.066a.064.064,0,0,1,.066.065C314.923,323.518,314.923,323.518,314.857,323.518Zm-1.773-.131-.525-.066a.066.066,0,0,1,0-.131l.525.066a.066.066,0,1,1,0,.132Zm-1.839-.132h-.46l-.066-.2c0-.066,0-.066.066-.066s.066,0,.066.066v.065h.328a.064.064,0,0,1,.066.066C311.31,323.255,311.31,323.255,311.245,323.255Zm23.446-.132c-.066,0-.066-.065,0,0-.066-.065-.066-.131,0-.131l.526-.2c.065,0,.065,0,.065.066s0,.065-.065.065Zm1.708-.591h0c-.066-.066-.066-.132,0-.132l.526-.2c.066,0,.066,0,.066.066s0,.066-.066.066Zm1.708-.525h0c-.066-.066-.066-.132,0-.132l.525-.2c.066,0,.066,0,.066.066s0,.066-.066.066Zm-27.518-.132c-.065,0-.065,0-.065-.065,0-.2-.066-.328-.066-.526,0-.066,0-.066.066-.066s.065,0,.065.066c0,.2.066.394.066.526.066,0,0,.065-.066.065Zm29.226-.46c-.066-.066-.066-.131,0-.131l.526-.2c.065,0,.065,0,.065.065s0,.066-.065.066l-.526.2Zm1.773-.525c-.065,0-.065-.066,0,0-.065-.066-.065-.131,0-.131l.526-.2c.066,0,.066,0,.066.066s0,.066-.066.066Zm1.708-.591h0c-.066-.065-.066-.131,0-.131l.526-.2c.066,0,.066,0,.066.066s0,.065-.066.065Zm-32.969-.262c-.066,0-.066,0-.066-.066,0-.2-.066-.329-.066-.526,0-.065,0-.065.066-.065s.066,0,.066.065c0,.2.066.394.066.526C310.391,320.037,310.391,320.037,310.326,320.037ZM345,319.774h0c-.066-.066-.066-.131,0-.131l.526-.2c.066,0,.066,0,.066.066s0,.066-.066.066Zm1.707-.591c-.066-.066-.066-.132,0-.132l.526-.2c.066,0,.066,0,.066.065s0,.066-.066.066l-.526.2Zm-36.582-.919c-.066,0-.066,0-.066-.066,0-.2-.066-.328-.066-.526,0-.065,0-.065.066-.065s.066,0,.066.065c0,.2.066.329.066.526A.064.064,0,0,1,310.128,318.263Zm37.3-.263c-.066,0-.066,0-.066-.066,0-.2-.065-.328-.065-.525,0-.066,0-.066.065-.066s.066,0,.066.066c0,.2.066.328.066.525A.064.064,0,0,1,347.433,318Zm-37.5-1.576c-.065,0-.065,0-.065-.065a1.278,1.278,0,0,0-.066-.526c0-.066,0-.066.066-.066s.065,0,.065.066a1.45,1.45,0,0,0,.066.526C310,316.424,310,316.424,309.931,316.424Zm37.239-.2a.064.064,0,0,1-.066-.066c-.066-.2-.066-.328-.132-.525,0-.066,0-.066.066-.066s.066,0,.066.066c.066.2.066.328.131.525Zm-37.3-1.576c-.066,0-.066,0-.066-.066v-.526c0-.066,0-.066.066-.066s.065,0,.065.066v.526A.064.064,0,0,1,309.866,314.651Zm36.91-.2a.065.065,0,0,1-.066-.066c-.066-.2-.066-.328-.131-.525,0-.066,0-.066.066-.066s.066,0,.066.066c.066.2.066.328.131.525Zm-36.385-1.182c-.066,0-.066,0-.066-.066s0-.066.066-.066l.525-.065c.065,0,.065,0,.065.065s0,.066-.065.066Zm1.773-.263c-.066,0-.066,0-.066-.066s0-.065.066-.065l.525-.066c.066,0,.066,0,.066.066s0,.065-.066.065Zm1.839-.263c-.066,0-.066,0-.066-.065s0-.066.066-.066l.525-.065c.066,0,.066,0,.066.065s0,.066-.066.066Zm32.312-.065h0a1.062,1.062,0,0,1-.2-.591c0-.065,0-.065.066-.065s.066,0,.066.065a1.55,1.55,0,0,1,.131.526A.065.065,0,0,1,346.316,312.681Zm-30.539-.2c-.066,0-.066,0-.066-.066s0-.065.066-.065l.525-.066c.066,0,.066,0,.066.066s0,.065-.066.065Zm1.773-.2c-.066,0-.066,0-.066-.066s0-.065.066-.065l.525-.066c.066,0,.066,0,.066.066s0,.065-.066.065l-.525.066Zm1.839-.262c-.066,0-.066,0-.066-.066s0-.066.066-.066l.525-.065c.066,0,.066,0,.066.065s0,.066-.066.066Zm1.773-.263c-.066,0-.066,0-.066-.066s0-.065.066-.065l.525-.066c.066,0,.066,0,.066.066s0,.065-.066.065Zm1.839-.2c-.066,0-.066,0-.066-.065s0-.066.066-.066l.525-.066c.066,0,.066,0,.066.066s0,.066-.066.066Zm1.773-.263c-.065,0-.065,0-.065-.066s0-.066.065-.066l.525-.065c.066,0,.066,0,.066.065s0,.066-.066.066Zm1.773-.2c-.066,0-.066,0-.066-.066s0-.065.066-.065l.525-.066c.066,0,.066,0,.066.066s0,.065-.066.065Zm19.243-.2h0a2.346,2.346,0,0,1-.263-.591c0-.066,0-.066.066-.066s.066,0,.066.066a4.516,4.516,0,0,1,.2.525C345.856,310.908,345.856,310.908,345.791,310.908Zm-17.4,0c-.066,0-.066,0-.066-.066s0-.065.066-.065l.525-.066c.066,0,.066,0,.066.066s0,.065-.066.065Zm1.773-.263c-.066,0-.066,0-.066-.065s0-.066.066-.066l.525-.065c.066,0,.066,0,.066.065s0,.066-.066.066Zm1.839-.2c-.066,0-.066,0-.066-.066s0-.065.066-.065l.525-.066c.066,0,.066,0,.066.066s0,.065-.066.065Zm1.773-.2c-.066,0-.066,0-.066-.066s0-.066.066-.066l.525-.065c.066,0,.066,0,.066.065s0,.066-.066.066Zm1.773-.2c-.066,0-.066,0-.066-.066s0-.065.066-.065l.525-.066c.066,0,.066,0,.066.066s0,.065-.066.065Zm1.839-.2c-.065,0-.065,0-.065-.066s0-.065.065-.065l.525-.066c.066,0,.066,0,.066.066s0,.065-.066.065Zm1.773-.131c-.066,0-.066,0-.066-.066s0-.066.066-.066l.525-.065c.066,0,.066,0,.066.065s0,.066-.066.066Zm1.839-.2c-.066,0-.066,0-.066-.066s0-.065.066-.065a1.279,1.279,0,0,0,.525-.066c.065,0,.065,0,.065.066s0,.065-.065.065A1.444,1.444,0,0,1,341,309.529Zm1.773-.131c-.065,0-.065,0-.065-.066s0-.066.065-.066h.526c.065,0,.065,0,.065.066s0,.066-.065.066Zm1.839-.066c-.066,0-.066,0-.066-.066s0-.065.066-.065h.525c.066,0,.066,0,.066.065s0,.066-.066.066Z" transform="translate(-308.587 -300.316)" fill="#fff"/>
        <path id="Path_21416" data-name="Path 21416" d="M341.068,333.09l-4.794.591a1.25,1.25,0,0,1-1.38-.919l-1.116-4.532a1.211,1.211,0,0,1,1.051-1.511l5.779-.722a1.23,1.23,0,0,1,1.379,1.182l.2,4.663A1.33,1.33,0,0,1,341.068,333.09Z" transform="translate(-316.802 -306.079)" fill="url(#linear-gradient-18)"/>
        <path id="Path_21417" data-name="Path 21417" d="M340.869,332.713l-3.678.46a.991.991,0,0,1-1.051-.722l-.854-3.481a.989.989,0,0,1,.788-1.182l4.4-.591a.931.931,0,0,1,1.051.919l.131,3.546a.918.918,0,0,1-.788,1.051Z" transform="translate(-317.326 -306.49)" fill="url(#linear-gradient-19)"/>
      </g>
      <path id="Path_21418" data-name="Path 21418" d="M336.07,279.455a36.986,36.986,0,0,1,.985,10.9,1.328,1.328,0,0,1-1.182,1.182c-.722.066-1.708.132-2.562.2a4.618,4.618,0,0,1-2.758-1.051.432.432,0,0,0-.657.525,5.564,5.564,0,0,0,1.576,1.708c.394.263,1.576.788,1.511,1.314a.666.666,0,0,1-.263.459,5.251,5.251,0,0,1-2.693,1.51c-.131.066-.263.066-.328.2,0,.657,1.97,1.379,2.5,1.51a4.889,4.889,0,0,0,2.364.263,7.2,7.2,0,0,0,4.926-3.218,35.622,35.622,0,0,0,4.926-13.923C341.719,278.273,337.713,278.93,336.07,279.455Z" transform="translate(-113.165 -173.255)" fill="url(#linear-gradient-20)"/>
      <g id="Group_6763" data-name="Group 6763" transform="translate(212.962 79.602)">
        <path id="Path_21419" data-name="Path 21419" d="M342.9,267.7c2.1-16.091-10.245-28.5-10.245-28.5l-7.356,8.6a47.026,47.026,0,0,1,9.457,18.389C336.334,265.8,340.208,265.011,342.9,267.7Z" transform="translate(-324.617 -239.2)" fill="#b5001f"/>
        <path id="Path_21420" data-name="Path 21420" d="M334.2,270.2a.494.494,0,0,1-.459-.328,47.594,47.594,0,0,0-9.392-18.258.467.467,0,0,1,.723-.591,48.911,48.911,0,0,1,9.589,18.586.406.406,0,0,1-.329.525C334.269,270.2,334.269,270.2,334.2,270.2Z" transform="translate(-324.261 -243.202)" fill="#89001e"/>
      </g>
      <g id="Group_6766" data-name="Group 6766" transform="translate(107.169 54.814)">
        <path id="Path_21421" data-name="Path 21421" d="M181.678,421.481v-.263c-1.182-4.729-7.093-7.618-7.093-7.618l-2.364.2c-1.314,4.138-1.182,6.7-.985,7.816v.065A52.229,52.229,0,0,0,181.678,421.481Z" transform="translate(-165.901 -274.273)"/>
        <path id="Path_21422" data-name="Path 21422" d="M171.4,425.863a1,1,0,0,0,.722.723c2.758.591,7.093.131,8.932-.131a.854.854,0,0,0,.723-.854A58.658,58.658,0,0,1,171.4,425.863Z" transform="translate(-166 -278.392)" fill="#090e1e"/>
        <path id="Path_21423" data-name="Path 21423" d="M171.4,408.6l.985,4.729a.844.844,0,0,0,.657.657,5.816,5.816,0,0,0,1.511,0,1,1,0,0,0,.788-1.182l-.657-4.2H171.4Z" transform="translate(-166 -272.557)" fill="url(#linear-gradient-21)"/>
        <path id="Path_21424" data-name="Path 21424" d="M200.2,425.557a14.182,14.182,0,0,1-4.6-.657v.788a.508.508,0,0,0,.46.526l14.186-.066a.632.632,0,0,0,.525-.92C208.866,425.294,204.138,425.623,200.2,425.557Z" transform="translate(-174.307 -278.152)" fill="#090e1e"/>
        <path id="Path_21425" data-name="Path 21425" d="M210.771,421.661c0-.066,0-.066-.066-.131A18.033,18.033,0,0,0,200,414.766l-3.021-.065a15.149,15.149,0,0,0-1.379,6.633,14.583,14.583,0,0,0,4.6.657C204.138,422.121,208.866,421.793,210.771,421.661Z" transform="translate(-174.307 -274.651)" fill="#090e1e"/>
        <path id="Path_21426" data-name="Path 21426" d="M196.6,407.485c.066.2.657,3.612.919,4.926a.623.623,0,0,0,.591.526,11.315,11.315,0,0,0,2.036-.131.853.853,0,0,0,.591-.92l-.329-5.385Z" transform="translate(-174.65 -271.836)" fill="url(#linear-gradient-22)"/>
        <path id="Path_21427" data-name="Path 21427" d="M183.108,310.263s4.138,28.57,7.159,62.524a1.279,1.279,0,0,1-1.051,1.314,17.342,17.342,0,0,1-3.349.394,1.2,1.2,0,0,1-1.182-1.051c-1.051-5.976-8.275-38.158-10.246-45.185,0,0-2.167,30.014-1.51,45.645a.78.78,0,0,1-.657.788,12,12,0,0,1-2.693,0,.976.976,0,0,1-.854-.854C168,368.781,163.8,338.635,164,316.9c0-1.248,1.445-11.3,1.445-11.3l17.667,4.663Z" transform="translate(-163.457 -237.204)" fill="#284663"/>
        <path id="Path_21428" data-name="Path 21428" d="M164.44,287.091a1.131,1.131,0,0,1-.788-.985c-.525-5.385-3.218-38.552,13.661-52.278,0,0,.985-2.561,8.932,3.678s3.678,12.741,1.773,21.739c-2.3,10.9-6.371,19.769-4.532,26.533a.945.945,0,0,1-.591,1.117A26.259,26.259,0,0,1,164.44,287.091Z" transform="translate(-163.178 -212.39)" fill="#e1233d"/>
        <path id="Path_21429" data-name="Path 21429" d="M191.265,219c0,.46-6.765,10.049-6.765,10.049s1.182,2.364,6.962,4.335l4.991-10.246Z" transform="translate(-170.497 -207.48)" fill="url(#linear-gradient-23)"/>
        <g id="Group_6764" data-name="Group 6764" transform="translate(12.247)">
          <path id="Path_21430" data-name="Path 21430" d="M197.883,210.6s2.43,5.517,2.561,8.406.788,4.794-2.561,5.32a7.053,7.053,0,0,1-7.684-3.941s-2.364-4.466-1.839-6.239S197.883,210.6,197.883,210.6Z" transform="translate(-184.042 -204.596)" fill="url(#linear-gradient-24)"/>
          <path id="Path_21431" data-name="Path 21431" d="M189.1,215.212l.2-.066a.455.455,0,0,0,.2-.657c-.46-.919-1.379-3.021-.2-3.481,1.51-.657,7.618-1.839,8.932-4.006a4.075,4.075,0,0,0-1.51-5.517.289.289,0,0,0-.328.066l-.131.263a.208.208,0,0,1-.394-.066.224.224,0,0,0-.394-.065c-.394.657-1.511,1.708-4.4,2.233-4.138.788-6.83,2.43-6.9,5.254a.222.222,0,0,1-.328.2c-.328-.2-.788-.263-1.445.263-1.117.985-.657,3.415,1.839,5.451.131.066.131.263,0,.394-.46.263-1.116.985.591,1.9a5.816,5.816,0,0,0,3.678.788c.131,0,.2-.131.2-.262l-.526-2.5c0-.131.066-.263.2-.263h.722Z" transform="translate(-181.826 -201.459)" fill="url(#linear-gradient-25)"/>
          <path id="Path_21432" data-name="Path 21432" d="M191.522,221.771s-.92-3.547-2.5-2.561.788,3.941,2.1,4.072Z" transform="translate(-184.118 -207.492)" fill="url(#linear-gradient-26)"/>
        </g>
        <g id="Group_6765" data-name="Group 6765" transform="translate(25.694 26.202)">
          <path id="Path_21433" data-name="Path 21433" d="M202.3,244.2l.46,12.478a32.641,32.641,0,0,0,3.744,1.051,33.719,33.719,0,0,1,3.743-7.553A18.7,18.7,0,0,1,202.3,244.2Z" transform="translate(-202.3 -242.331)" fill="url(#linear-gradient-27)"/>
          <path id="Path_21434" data-name="Path 21434" d="M229.291,243.9c-6.83,7.356-12.282,7.75-16.748,6.174a35.164,35.164,0,0,0-3.743,7.553c18.192,4.006,22.461-12.675,22.461-12.675Z" transform="translate(-204.531 -242.228)" fill="url(#linear-gradient-28)"/>
          <path id="Path_21435" data-name="Path 21435" d="M242.1,242.238a2.488,2.488,0,0,1,2.233-.591c1.445.263,2.758.788,3.678,0s1.248.263,1.248.263l-2.693,2.036Z" transform="translate(-215.961 -241.354)" fill="url(#linear-gradient-29)"/>
          <path id="Path_21436" data-name="Path 21436" d="M239.6,243.859s.525-2.233,2.167-1.97c1.642.328,5.32,2.3,6.239,1.97.92-.394,2.168-1.248,2.759-.919l-1.117,1.379s2.824-1.642,3.284-.657l-4.663,2.627s-6.83-.722-8.669-2.43Z" transform="translate(-215.103 -241.53)" fill="url(#linear-gradient-30)"/>
        </g>
        <path id="Path_21437" data-name="Path 21437" d="M190.8,264.912s12.807,10.705,26.6,6.042a3.457,3.457,0,0,1,2.561.2l3.94,2.1a3.6,3.6,0,0,0,4.729-1.313,7.421,7.421,0,0,0,1.116-2.955L222,265.832l.591-.986s-3.809-.328-4.794,2.43c0,0-7.224,3.021-19.44-10.377C198.353,256.834,192.836,261.5,190.8,264.912Z" transform="translate(-172.659 -220.488)" fill="url(#linear-gradient-31)"/>
        <path id="Path_21438" data-name="Path 21438" d="M185.465,258.254c-.066,0-.066,0-.131-.066a24.126,24.126,0,0,1-7.947-9.589c-.066-.131,0-.263.131-.263.131-.066.263,0,.263.131a23.459,23.459,0,0,0,7.815,9.392c.131.066.131.2.066.328C185.6,258.188,185.53,258.254,185.465,258.254Zm8.013-8.144c-.066,0-.131-.066-.2-.131,0,0-1.642-2.561-4.794-8.209a6.293,6.293,0,0,0-3.744-3.218,7.23,7.23,0,0,0-4.991.657.237.237,0,0,1-.263-.394,7.814,7.814,0,0,1,5.32-.723,6.635,6.635,0,0,1,4.006,3.481c3.152,5.582,4.794,8.144,4.794,8.144.066.131.066.263-.066.328C193.543,250.11,193.543,250.11,193.477,250.11Z" transform="translate(-168.046 -213.961)" fill="#b5001f"/>
      </g>
      <path id="Path_21439" data-name="Path 21439" d="M333.041,364.534C335.6,356.324,322.335,351,322.335,351s-15.894,7.093-18.455,5.911,12.413-8.735,12.413-8.735c-4.269-3.35-19.374-5.123-19.374-5.123S288.512,357.769,286.345,356s8.144-12.675,8.144-12.675c-5.254-1.511-12.61.985-12.61.985-10.443,5.057-6.436,23.184-13.135,26.927a17.482,17.482,0,0,0-3.218,1.97l1.182.788a8.808,8.808,0,0,1,.919-.723,6.952,6.952,0,0,1,.854-.525c.854-.46,1.379-.854,1.839-1.117a45.21,45.21,0,0,1,7.421-3.415c-.788,5.648,9,12.938,15.5,15.368,6.436,2.43,4.991-.722,3.612-5.254s-8.275-7.947-9.523-10.18,2.167-1.511,5.78,1.248c3.612,2.693,3.087,7.684,8.866,12.216,5.78,4.466,17.864-4.006,17.864-4.006-5.057-1.379-11.231-8.538-10.574-10.18s11.822,5.648,13.858,6.37C325.16,374.254,330.479,372.743,333.041,364.534ZM40.322,341.744c1.051-9.523,17.01-9.063,17.01-9.063s13,14.383,16.156,14.318-8.735-14.449-8.735-14.449c5.845-1.511,22.067,3.415,22.067,3.415s1.9,18.784,4.926,17.93-2.561-16.55-2.561-16.55c5.977.854,12.413,6.7,12.413,6.7,8.407,9.851-3.941,26.533,1.248,33.3a25.076,25.076,0,0,1,2.43,3.415l-1.576.263c-.2-.394-.394-.788-.591-1.116-.131-.2-.328-.526-.591-.92-.591-.854-1.051-1.511-1.314-1.97-1.9-2.693-5.977-7.027-6.042-6.764-1.773,6.108-15.04,9.129-22.724,8.735s-4.794-2.955-1.248-6.962c3.481-4.006,12.084-4.4,14.317-6.108,2.3-1.708-1.576-2.5-6.5-1.314-4.991.985-6.765,6.3-14.646,8.341-7.947,1.97-16.353-12.084-16.353-12.084,5.845.854,15.3-3.678,15.368-5.648s-14.646.459-17.01.262C44,355.208,39.271,351.2,40.322,341.744Z" transform="translate(-13.788 -191.541)" fill="#90b67e"/>
      <g id="Group_6767" data-name="Group 6767" transform="translate(268.025 125.768)">
        <path id="Path_21440" data-name="Path 21440" d="M410.9,335.7s4.729-16.878,15.237-25.745a1.988,1.988,0,0,1,3.218,1.839v.066C428.7,314.949,416.745,326.311,410.9,335.7Z" transform="translate(-409.061 -309.494)" fill="#90b67e" opacity="0.5"/>
        <path id="Path_21441" data-name="Path 21441" d="M408.1,342.257s12.215-20.1,28.766-27.255a2.013,2.013,0,0,1,2.693.985,3.317,3.317,0,0,1-.328,2.956C437.392,322.488,418.608,332.6,408.1,342.257Z" transform="translate(-408.1 -311.319)" fill="#90b67e" opacity="0.5"/>
      </g>
      <g id="Group_6768" data-name="Group 6768" transform="translate(45.189 117.993)">
        <path id="Path_21442" data-name="Path 21442" d="M99.846,320.474s-4.138-14.646-13.2-22.4a1.684,1.684,0,0,0-2.758,1.576v.065C84.412,302.414,94.789,312.331,99.846,320.474Z" transform="translate(-73.974 -297.656)" fill="#90b67e" opacity="0.5"/>
        <path id="Path_21443" data-name="Path 21443" d="M96.32,326.229s-10.574-17.47-24.957-23.709a1.856,1.856,0,0,0-2.364.854,2.852,2.852,0,0,0,.263,2.561C70.838,309.022,87.126,317.823,96.32,326.229Z" transform="translate(-68.806 -299.273)" fill="#90b67e" opacity="0.5"/>
      </g>
      <g id="Group_6769" data-name="Group 6769" transform="translate(95.493)">
        <path id="Path_21444" data-name="Path 21444" d="M189.469,138.227a22.458,22.458,0,0,0-12.938-1.248s8.341-.591,13.332,4.729c0,0,3.481-5.254,9.195-6.5C198.992,135.206,194.723,134.681,189.469,138.227Zm-15.959-2.562a17.308,17.308,0,0,0-10.048-.985s6.436-.394,10.245,3.678c0,0,2.693-4.072,7.159-4.991C180.865,133.367,177.581,132.973,173.509,135.666Zm-14.055-1.9a15.519,15.519,0,0,0-9.129-.525s5.845-.591,9.458,2.955c0,0,2.3-3.809,6.3-4.794A10.731,10.731,0,0,0,159.455,133.761Zm-7.881-4.072a10.741,10.741,0,0,0-6.173.2s3.941-.788,6.568,1.379a7.827,7.827,0,0,1,3.941-3.612A8.144,8.144,0,0,0,151.574,129.689Zm28.175-9.917a10.9,10.9,0,0,0-6.174-.131s3.941-.591,6.5,1.773A7.813,7.813,0,0,1,184.215,118,7.179,7.179,0,0,0,179.749,119.772Zm13.792,9.589a15.142,15.142,0,0,0-9-.985s5.78-.263,9.195,3.415a11.62,11.62,0,0,1,6.5-4.4A10.29,10.29,0,0,0,193.541,129.361Zm-5.451-6.108a14.755,14.755,0,0,0-8.341-.657s5.385-.46,8.6,2.89a10.631,10.631,0,0,1,5.845-4.269A10.089,10.089,0,0,0,188.089,123.253Z" transform="translate(-145.4 -117.997)" fill="#f5ccad"/>
      </g>
      <path id="Path_21445" data-name="Path 21445" d="M335.868,428.016.394,427.885A.424.424,0,0,1,0,427.491v-.2a.423.423,0,0,1,.394-.394l335.474.131a.423.423,0,0,1,.394.394v.2A.424.424,0,0,1,335.868,428.016Z" transform="translate(0 -224.024)" fill="#2d3554"/>
      <g id="Group_6770" data-name="Group 6770" transform="matrix(0.998, 0.07, -0.07, 0.998, 177.519, 19.093)">
        <path id="Path_21446" data-name="Path 21446" d="M0,.41A8.08,8.08,0,0,1,1.112,0" transform="translate(0 3.991)" fill="none" stroke="#e1233d" stroke-miterlimit="15" stroke-width="1"/>
        <path id="Path_21447" data-name="Path 21447" d="M0,3.23C11.644-.573,51.2-9.525,68.808,38.337" transform="translate(3.276 0)" fill="none" stroke="#e1233d" stroke-miterlimit="15" stroke-width="1" stroke-dasharray="3.961 3.961"/>
        <path id="Path_21448" data-name="Path 21448" d="M0,0A8.536,8.536,0,0,0,.41,1.112" transform="translate(72.436 39.39)" fill="none" stroke="#e1233d" stroke-miterlimit="15" stroke-width="1"/>
      </g>
      <g id="Group_6771" data-name="Group 6771" transform="translate(148.494 27.126)">
        <path id="Path_21449" data-name="Path 21449" d="M226.1,173.814c0,8.013,13.595,20.885,13.595,20.885s13.6-12.807,13.6-20.885c0-8.013-6.108-14.514-13.6-14.514C232.142,159.3,226.1,165.8,226.1,173.814Zm5.582-.854a8.013,8.013,0,1,1,8.012,7.947A7.988,7.988,0,0,1,231.682,172.961Z" transform="translate(-226.1 -159.3)" fill="#e1233d"/>
      </g>
      <g id="Group_6772" data-name="Group 6772" transform="translate(229.67 69.356)">
        <path id="Path_21450" data-name="Path 21450" d="M349.7,238.771c0,8.341,14.186,21.739,14.186,21.739s14.186-13.4,14.186-21.739S371.7,223.6,363.886,223.6C356.07,223.665,349.7,230.43,349.7,238.771Zm5.845-.854a8.341,8.341,0,1,1,8.341,8.275A8.3,8.3,0,0,1,355.545,237.917Z" transform="translate(-349.7 -223.6)" fill="#e1233d"/>
      </g>
    </g>
    <path id="Path_30996" data-name="Path 30996" d="M0,0H331.333V36.095H0Z" transform="translate(-4.628 206.389)" fill="#f5ccad"/>
  </g>
</svg>
