<svg xmlns="http://www.w3.org/2000/svg" xmlns:xlink="http://www.w3.org/1999/xlink" width="282" height="186" viewBox="0 0 282 186">
  <defs>
    <clipPath id="clip-path">
      <path id="Rectangle_3627" data-name="Rectangle 3627" d="M20,0H262a20,20,0,0,1,20,20V186a0,0,0,0,1,0,0H0a0,0,0,0,1,0,0V20A20,20,0,0,1,20,0Z" transform="translate(-0.05 -0.24)" fill="none" stroke="#707070" stroke-width="1"/>
    </clipPath>
    <clipPath id="clip-path-2">
      <path id="Path_21607" data-name="Path 21607" d="M187.9,156.9h98.536v56.706H187.9Z" transform="translate(-187.9 -156.9)"/>
    </clipPath>
  </defs>
  <g id="Mask_Group_177" data-name="Mask Group 177" transform="translate(0.05 0.24)" clip-path="url(#clip-path)">
    <rect id="Rectangle_2204" data-name="Rectangle 2204" width="314" height="51" transform="translate(-17.05 177.76)" fill="#f5ccad"/>
    <g id="redscreen6" transform="translate(-28.931 13.771)">
      <path id="Path_21549" data-name="Path 21549" d="M179.5,148.5H289.339v63.656H179.5Z" transform="translate(-62.906 -148.5)" fill="#214d9a"/>
      <path id="Path_21550" data-name="Path 21550" d="M181.4,150.8H288.835v60.668H181.4Z" transform="translate(-63.572 -149.306)" fill="#d0e3f9"/>
      <path id="Path_21551" data-name="Path 21551" d="M266.589,247.288h-14.1A1.47,1.47,0,0,1,251,245.794V244.3h17.083v1.559A1.546,1.546,0,0,1,266.589,247.288Z" transform="translate(-87.963 -182.073)" fill="#214d9a"/>
      <path id="Path_21552" data-name="Path 21552" d="M263.5,246.29a.39.39,0,1,1,.39.39A.419.419,0,0,1,263.5,246.29Z" transform="translate(-92.344 -182.634)" fill="#ff912b"/>
      <path id="SVGID_1_" d="M181.4,150.8H288.835v60.668H181.4Z" transform="translate(-63.572 -149.306)" fill="#ffe1cb"/>
      <g id="Group_6782" data-name="Group 6782" transform="translate(122.05 5.456)" clip-path="url(#clip-path-2)">
        <path id="Path_21554" data-name="Path 21554" d="M250.625,219.59a4.661,4.661,0,0,1,1.884-.39H254a2.959,2.959,0,0,1,3.183,2.338,10.73,10.73,0,0,1-1.039,2.728c-.65,1.039-1.3,2.144-1.819,3.183-.585,1.169-.26,1.754,1.1,1.754,2.143,0,4.222,0,6.366-.195,2.6-.26,5.2-.195,7.795-.26,0,.455-.065.974-.065,1.429-.39,0-.585-.325-.844-.52a.683.683,0,0,0-.844,0,.714.714,0,0,0-.39.65.848.848,0,0,0,1.169.65c.39-.065,1.169.13.844-.779a2.6,2.6,0,0,0,1.754-1.429c.065-.195.195-.39.26-.585.26.455.26.455.779.52a3.291,3.291,0,0,0-.455.974c-.065.195-.065.455.26.325.52-.26,1.234-.325,1.039-1.169,1.819.065,3.508.52,4.547,2.144a29.448,29.448,0,0,0-3.378.195c-.39.065-.78,0-.65-.585,0-.195.065-.39-.195-.52-.13.13-.325.195-.325.325-.13.974-.974.974-1.624,1.039-.585.13-1.1.26-1.689.39-.52.13-1.234.26-1.234.715s.715.585,1.234.715c1.039.26,2.079.455,3.053.779s1.039.649.26,1.3c-.325.26-.714.455-.844.909H227.826c-.325,0-.65-.13-.909.13H220.1a6.574,6.574,0,0,0-1.949-.13,7.075,7.075,0,0,0-2.468-1.364c-.325-.13-.779-.325-.779-.715s.52-.455.779-.52c1.169-.26,2.338-.52,3.443-.779a7.78,7.78,0,0,0,2.923-.974.71.71,0,0,0,.13-1.234c-.195-.13-.52-.13-.455-.39s.39-.325.65-.39c1.364-.455,2.728-.909,4.027-1.429.195-.065.585-.195.52-.455,0-.26-.325-.39-.585-.455-.13,0-.26-.13-.39-.13,3.118-1.364,6.431-2.338,9.678-3.572a27.135,27.135,0,0,0,3.637-1.3l.974-.195a2.209,2.209,0,0,1-.065.65,30.528,30.528,0,0,0-.13,4.872c.13,1.429.13,1.429,1.689,1.429h1.364c.26,0,.65.13.65-.195.065-.325-.325-.39-.585-.455-.455-.195-1.1-.195-1.234-.844a39.144,39.144,0,0,1,1.819-6.69,14.352,14.352,0,0,0,2.728-.78l.974-.195c.715,2.144,1.364,4.287,2.079,6.366.065.26.26.455.325.779.065.65.585.844,1.234.714.715-.13,1.364-.195,2.079-.325.195,0,.455.065.455-.195,0-.195-.26-.26-.455-.325-.65-.195-1.364-.13-1.754-.78.13-.195.065-.39.065-.585-.26-1.949-.52-4.092-.844-6.171Zm14.1,14.355c1.3,0,1.3,0,1.429-.325a2.738,2.738,0,0,0-1.1-2.208c-1.039-.455-1.689-.39-2.338.455-.39.455-.585.909.26,1.1a.674.674,0,0,1,.52.39C263.681,234.01,264.266,234.01,264.72,233.945Zm-40.012-.455a1.111,1.111,0,0,1,.065-1.1c.13-.26.26-.585-.13-.715-.325-.13-.325.26-.455.455-.585.844.13,2.014-.974,2.728.844.065,1.624.065,2.338.065.26,0,.585.13.65-.195s-.26-.39-.52-.455c-.195-.065-.455-.065-.455-.325s.13-.325.325-.39a3.359,3.359,0,0,0,1.169-.974.705.705,0,0,0-.065-1.1c-.455-.455-.715-.13-.974.13a10.352,10.352,0,0,0-.974,1.884Zm36.959,1.494c.39-.26,1.3.455,1.364-.65,0-.909-.455-1.429-1.234-1.429-.714,0-1.559.65-1.559,1.234C260.173,235.309,261.083,234.789,261.667,234.984Zm-30.269-6.69a1.394,1.394,0,0,0-.974.26,1.1,1.1,0,0,0-.585.909c0,.455.39.585.779.649a13.557,13.557,0,0,0,1.624.065.657.657,0,0,0,.585-1.039A1.336,1.336,0,0,0,231.4,228.294Zm25.2,3.313c.26-.065.779.195.779-.325s-.455-.65-.909-.65c-.39,0-.714.195-.714.52C255.757,231.671,256.211,231.541,256.6,231.606Zm-28.645-1.169c.26-.065.779.13.715-.39-.065-.39-.39-.585-.844-.585-.39,0-.844.065-.779.52C227.111,230.5,227.566,230.372,227.956,230.437Zm-7.795,5c.325-.065.844.13.844-.325,0-.39-.39-.65-.844-.65-.39,0-.779.065-.779.585S219.837,235.374,220.161,235.439Zm53.848-4.612a2.644,2.644,0,0,0,.909-.779.429.429,0,0,0,.065-.39c-.13-.13-.26-.065-.39,0A1.135,1.135,0,0,0,274.009,230.827Zm-44.754-1.884a.568.568,0,0,0-.585-.325c-.26,0-.39.13-.39.325.065.39.325.325.585.325C229.06,229.268,229.255,229.2,229.255,228.943Z" transform="translate(-197.362 -178.733)" fill="#d6a886"/>
        <path id="Path_21555" data-name="Path 21555" d="M277.477,210.712a2.946,2.946,0,0,0-3.183-2.338H272.8c1.559-1.754,2.793-3.7,4.417-5.326.585-.585.909-.455,1.429,0,.779.715,1.494,1.494,2.273,2.144.714.65.974.65,1.429-.13.779-1.3,1.039-2.793,1.689-4.157.715-1.624,1.1-3.378,2.209-4.872.195-.13.325-.325.52-.455.52-.39.52-1.559,1.689-.974a.348.348,0,0,0,.26-.195c.325-.649.78-.39,1.234-.26,1.494,1.429,1.494,1.429,2.468-.325.585-.974,1.039-1.949,1.559-2.923a8.88,8.88,0,0,1,2.208-2.468c.195-.195.65-.65.714.13.065.455.325.325.455.065.455-.779.844-.39,1.364-.065a6.484,6.484,0,0,1,2.143,2.793c.65,1.234,1.364,2.468,1.949,3.7a2.064,2.064,0,0,0,2.793,1.234v.325a.407.407,0,0,0-.13.52,10.386,10.386,0,0,0,1.884,7.145,14.5,14.5,0,0,1-4.742.325,1.1,1.1,0,0,0-1.234-.844,7.419,7.419,0,0,0-2.858.714,4.024,4.024,0,0,1-2.728.26c-1.494-.585-2.533.065-3.573.714-1.364.844-2.728,1.819-4.092,2.663-.26.195-.585.52-.909.26s-.13-.65,0-1.039c.39-1.039.715-2.014,1.1-3.053.195-.455.39-1.1-.065-1.364-.39-.195-.909.26-1.234.52a34.8,34.8,0,0,0-4.742,4.547c-.779.844-1.039.909-2.014.26-.195-.13-.39-.26-.585-.065a6.02,6.02,0,0,0-2.014,2.728l-.195-.195Z" transform="translate(-217.653 -167.842)" fill="#f5ccad"/>
        <path id="Path_21556" data-name="Path 21556" d="M192.019,197.628a42.853,42.853,0,0,0,4.092-1.3,35.5,35.5,0,0,1,4.547-1.039,2.717,2.717,0,0,1,2.4,1.039c1.1,1.039,2.079,2.143,3.183,3.118,1.234,1.1,2.273,2.468,4.092,2.923a3.4,3.4,0,0,0,2.4-.52c2.144-.974,3.313-.65,4.807,1.169a26.4,26.4,0,0,0,2.988,3.573,3.676,3.676,0,0,0,5.131.325c.844-.649,1.819-1.169,2.663-1.884a2.734,2.734,0,0,1,3.378.065,1.076,1.076,0,0,0,.844.325c.325,2.728-.325,5.391-.909,8.054-1.169-.26-2.338-.455-3.508-.715a2.768,2.768,0,0,0-1.949-1.429,7.126,7.126,0,0,0-2.273-.325,8.887,8.887,0,0,1-6.3-2.533,8.231,8.231,0,0,0-6.171-1.949c-1.039.065-2.144.065-3.183.13a6.945,6.945,0,0,1-4.352-1.364,4.69,4.69,0,0,0-2.468-.844,4.224,4.224,0,0,1-3.508-1.234c-1.3-1.559-3.183-1.494-5-1.494-.909,0-1.819.195-2.728.26.325-1.3.909-2.533,1.364-3.832C191.629,197.952,191.889,197.887,192.019,197.628Z" transform="translate(-188.706 -170.346)" fill="#f5ccad"/>
        <path id="Path_21557" data-name="Path 21557" d="M268.346,228.233c-1.039-1.624-2.728-2.078-4.547-2.144a.962.962,0,0,0-.844-.13c-.52-.13-.52-.13-.78-.52a2.307,2.307,0,0,0-.26.585c-.779-.715-.909-.715-1.624,0-2.6.065-5.2,0-7.795.26-.325-.779-.714-1.624-1.039-2.4a1.263,1.263,0,0,0-.585-.715,2.716,2.716,0,0,1-1.884-2.338,2.784,2.784,0,0,0,1.039.325c.65.065,1.169-.325,1.819-.325a10.459,10.459,0,0,0,2.4-.26c2.014-.585,4.027-.974,6.106-1.429,1.949-.455,3.832-.909,5.781-1.3a9.1,9.1,0,0,1,1.819-.39,11.549,11.549,0,0,0,2.533-.455c1.689-.39,3.378-.52,5.066-.844a26.034,26.034,0,0,1,5.521-.39,2.835,2.835,0,0,1,1.1,1.039c-.974-.195-1.884.455-2.858.325a12.982,12.982,0,0,0-3.183.455,8.73,8.73,0,0,0-2.273.325,27.333,27.333,0,0,1-3.183.585c-.844.26-1.754.195-2.533.455-1.689.455-3.508.715-5.131,1.3a4.027,4.027,0,0,0-1.689.779.69.69,0,0,0,.195,1.234,6.542,6.542,0,0,0,2.468.585,78.192,78.192,0,0,0,9.548-.325c1.039-.13,2.143-.26,3.183-.325,1.234-.065,2.6-.39,3.962.52a22.9,22.9,0,0,0-1.819,1.624c-.52.455-.325,1.1.39,1.1a22.253,22.253,0,0,0,3.573.39,32.78,32.78,0,0,1,3.573,0,7.553,7.553,0,0,1-1.624,5.326,6.547,6.547,0,0,1-4.937,2.468c-5.131.13-10.2.13-15.329,0a1.558,1.558,0,0,1,.909-.13h13.121c.455,0,.779,0,.909-.52a9.054,9.054,0,0,0,.195-2.663,1.74,1.74,0,0,0-1.494-1.689,16.869,16.869,0,0,0-3.637-.39h-6.171Zm-6.755-5.391c-.26,0-.779-.325-.844.26,0,.39-.325.715-.195.974a1.177,1.177,0,0,0,1.039.585c.39-.065,1.169-.39,1.039-.844C262.5,223.556,262.695,222.452,261.59,222.841Zm-3.508,2.273c.195-.195.844.195.715-.26a1.467,1.467,0,0,0-1.3-1.1.632.632,0,0,0-.65.52.616.616,0,0,0,.455.779A2.677,2.677,0,0,0,258.083,225.115Zm-30.594-6.755c1.169.26,2.338.455,3.508.714,0,.195-.065.325-.065.52l-.974.195a21.873,21.873,0,0,1-3.572-.065,28.282,28.282,0,0,0-4.092-.65,17.079,17.079,0,0,1-2.533-.39c-1.1-.26-2.273-.325-3.443-.52-.78-.13-1.559-.39-2.338-.52a25.441,25.441,0,0,1-3.183-.844c-1.234-.455-2.6-.455-3.832-1.039a6.152,6.152,0,0,0-2.858-.65c-.26,0-.585-.13-.65.195-.065.26.13.52.39.715a15.007,15.007,0,0,0,4.417,2.014c1.234.325,1.949,1.234,3.053,1.559.26.065.325.39-.065.52-.195.065-.325.065-.455.195-.65-.585-.779-.585-1.494.325,0-.52-.325-.52-.715-.52h-3.9c.39-.65-.455-.974-.39-1.624a3.677,3.677,0,0,0-1.689.195c.26.52-.325.909-.26,1.429a1.574,1.574,0,0,1-.65.39,6.53,6.53,0,0,0-4.417,2.144c-.585-.325-.844,0-1.1.39a4.82,4.82,0,0,0-.455,1.364c-.065.195.13.585-.325.52-.325-.065-.13-.39-.13-.65l.195-2.338c0-.195.065-.455-.195-.585-.325-.13-.455.13-.65.325s-.195.52-.26.779a4.656,4.656,0,0,0,.325,2.079c.065.195.26.52-.13.585s-.325-.325-.39-.52c-.065-.26-.065-.585-.13-.909-.065-.195-.065-.52-.325-.52s-.39.26-.455.585a1.773,1.773,0,0,0,.325,1.169c.13.26.195.455-.13.585a17.139,17.139,0,0,0-1.884.974,9.886,9.886,0,0,1-1.494-3.508,32.451,32.451,0,0,1-1.3-5.521.391.391,0,0,1,.065-.26,13.687,13.687,0,0,1,1.624-.13c1.169,0,2.338-.13,3.443-.195a.7.7,0,0,0,.715-.39c.13-.325-.13-.52-.325-.715-.13-.065-.26-.13-.26-.325a2.454,2.454,0,0,1,1.364-.26,29.643,29.643,0,0,0,4.157-.13c.195,0,.39,0,.39-.195,0-.065-.195-.195-.325-.26l-.779-.195a9.513,9.513,0,0,1-2.663-.714,4.8,4.8,0,0,0-2.338-.585,2.88,2.88,0,0,1-1.3-.195c-1.364-.715-2.728-.39-4.157-.13a4.836,4.836,0,0,1,.13-1.689H192.8a6.259,6.259,0,0,1,1.1,0c1.689.52,3.443.325,5.2.585a26.058,26.058,0,0,0,3.248.455,6.376,6.376,0,0,1,1.884.325,11.711,11.711,0,0,0,2.533.52,14.346,14.346,0,0,1,2.4.52c1.819.52,3.7.909,5.521,1.559,1.494.52,3.053.779,4.547,1.364,1.1.455,2.338.52,3.508.974a20.431,20.431,0,0,0,2.858.714C226.385,218.165,226.9,218.554,227.489,218.359Z" transform="translate(-188.061 -175.879)" fill="#bee1a8"/>
        <path id="Path_21558" data-name="Path 21558" d="M193.3,231.925c.65-.26,1.234-.779,1.884-.974.39-.13.26-.325.13-.585a2,2,0,0,1-.325-1.169.556.556,0,0,1,.455-.585c.325,0,.325.325.325.52.065.26.065.585.13.909.065.195,0,.585.39.52s.195-.39.13-.585a7.318,7.318,0,0,1-.325-2.079.893.893,0,0,1,.26-.78c.195-.195.325-.39.65-.325.26.13.195.39.195.585L197,229.716c0,.26-.195.585.13.65.39.065.26-.325.325-.52a5.61,5.61,0,0,1,.455-1.364c.26-.39.585-.715,1.1-.39a5.51,5.51,0,0,1-.715,1.689c-.195.39-.13.52.325.52a19.575,19.575,0,0,1,3.9.13c.065-.325-.195-.65.195-.909.455-.26.78.13,1.1.26.52.39.195.585-.26.779a5.841,5.841,0,0,0,2.988.065h.195a10.123,10.123,0,0,0,3.118-.52,7.815,7.815,0,0,1,3.443-.52c.325.065.844.39.974,0s-.455-.39-.715-.585-.65-.39-.585-.844a.551.551,0,0,1,.52-.455c.455-.065.65.26.779.65a1.154,1.154,0,0,0,.26.65c-.325.715,0,.974.715,1.1a23,23,0,0,0,2.988.13.924.924,0,0,0,.39.13.719.719,0,0,1,.585.455c.065.26-.325.39-.52.455-1.364.52-2.728.974-4.027,1.429-.26.065-.585.13-.65.39s.325.26.455.39c.455.325.39.844-.13,1.234a7.78,7.78,0,0,1-2.923.974c-1.169.26-2.338.455-3.443.779-.325.065-.779.13-.779.52s.455.52.779.715a6.171,6.171,0,0,1,2.468,1.364c-.455.065-.909.065-1.364.13h-.325c-2.858-.13-5.716-.065-8.574-.065a6.78,6.78,0,0,1-5.2-3.378A18.139,18.139,0,0,1,193.3,231.925Zm10.977,3.053c-.65-.325-.65-.65-.13-.974.195-.13.455-.325.195-.585s-.455.065-.714.13c-.325.13-.325.65-.779.715-.13-.39.26-.585.195-.909-.065-.26.195-.65-.195-.714-.325-.065-.455.325-.52.585-.13.715-.195,1.494-1.234,1.689A8.742,8.742,0,0,0,204.277,234.977Z" transform="translate(-189.792 -181.39)" fill="#529b68"/>
        <path id="Path_21559" data-name="Path 21559" d="M325.212,228.809c-1.169,0-2.4-.065-3.573,0a22.253,22.253,0,0,1-3.572-.39c-.715,0-.844-.65-.39-1.1.585-.52,1.169-1.039,1.819-1.624-1.364-.909-2.728-.585-3.962-.52-1.039.065-2.143.195-3.183.325a78.19,78.19,0,0,1-9.548.325,6.542,6.542,0,0,1-2.468-.585.69.69,0,0,1-.195-1.234,4.026,4.026,0,0,1,1.689-.779c1.689-.585,3.443-.844,5.131-1.3.78-.195,1.689-.195,2.533-.455,1.039-.26,2.144-.26,3.183-.585a12.774,12.774,0,0,1,2.273-.325,12.978,12.978,0,0,1,3.183-.455c.974.13,1.884-.52,2.858-.325,1.039.455,1.494,1.429,2.144,2.208a11.035,11.035,0,0,1,2.143,5.716A.987.987,0,0,1,325.212,228.809Z" transform="translate(-227.13 -178.924)" fill="#d7ec90"/>
        <path id="Path_21560" data-name="Path 21560" d="M306.594,237.009h5.976a17.315,17.315,0,0,1,3.637.39,1.684,1.684,0,0,1,1.494,1.689,9.22,9.22,0,0,1-.195,2.663c-.13.52-.455.52-.909.52H303.476a1.428,1.428,0,0,0-.909.13h-.325c-.325-.195-.714-.065-1.039-.13.065-.455.52-.65.844-.909.779-.65.715-.974-.26-1.3-1.039-.325-2.078-.52-3.053-.78-.52-.13-1.234-.195-1.234-.715,0-.455.715-.585,1.234-.714.585-.13,1.1-.26,1.689-.39.65-.13,1.494-.13,1.624-1.039,0-.13.26-.195.325-.325a.374.374,0,0,1,.195.52c-.065.52.26.65.65.585A20.032,20.032,0,0,1,306.594,237.009Z" transform="translate(-226.31 -184.656)" fill="#529b68"/>
        <path id="Path_21561" data-name="Path 21561" d="M227.713,216.307c-.585.195-1.1-.26-1.624-.325a20.44,20.44,0,0,1-2.858-.715c-1.169-.39-2.338-.52-3.508-.974-1.494-.585-3.053-.844-4.547-1.364-1.819-.65-3.7-1.039-5.521-1.559-.779-.195-1.624-.325-2.4-.52a15.9,15.9,0,0,1-2.533-.52,6.377,6.377,0,0,0-1.884-.325c-1.1-.13-2.208-.26-3.248-.455-1.689-.325-3.508-.065-5.2-.585a3.153,3.153,0,0,0-1.1,0H189a13.48,13.48,0,0,1,.715-3.508,19.386,19.386,0,0,1,2.728-.26c1.819,0,3.767,0,5,1.494.974,1.169,2.208,1.234,3.508,1.234a4.046,4.046,0,0,1,2.468.844,6.572,6.572,0,0,0,4.352,1.364c1.039-.065,2.144-.065,3.183-.13a8.315,8.315,0,0,1,6.171,1.949,8.622,8.622,0,0,0,6.3,2.533,8.732,8.732,0,0,1,2.273.325A3.016,3.016,0,0,1,227.713,216.307Z" transform="translate(-188.286 -173.827)" fill="#a5cbfb"/>
        <path id="Path_21562" data-name="Path 21562" d="M315.13,216.413a31.586,31.586,0,0,0-5.521.39c-1.689.325-3.378.455-5.067.844a10.312,10.312,0,0,1-2.533.455,8.223,8.223,0,0,0-1.819.39c-1.949.325-3.9.844-5.781,1.3-2.014.455-4.092.844-6.106,1.429a9.742,9.742,0,0,1-2.4.26,6.82,6.82,0,0,1,3.637-1.754,9.091,9.091,0,0,0,4.287-1.624,8.771,8.771,0,0,1,5.586-1.039c1.624.195,3.053.13,4.157-1.364a5.178,5.178,0,0,1,3.638-2.273,16.681,16.681,0,0,0,4.742-.325C312.921,214.269,314.09,215.308,315.13,216.413Z" transform="translate(-222.244 -176.595)" fill="#82b4fa"/>
        <path id="Path_21563" data-name="Path 21563" d="M188.778,213.424a5.746,5.746,0,0,1,4.157.13,2.879,2.879,0,0,0,1.3.195,4.991,4.991,0,0,1,2.338.585,7.731,7.731,0,0,0,2.663.715l.779.195a1.417,1.417,0,0,1,.325.26c0,.195-.195.195-.39.195a22.251,22.251,0,0,1-4.157.13,2.454,2.454,0,0,0-1.364.26c-.065.195.13.26.26.325.195.195.455.39.325.714s-.455.325-.715.39c-1.169.065-2.273.195-3.443.195a13.669,13.669,0,0,0-1.624.13,10.19,10.19,0,0,1-.455-4.417Z" transform="translate(-188.193 -176.595)" fill="#84b479"/>
        <path id="Path_21564" data-name="Path 21564" d="M268.435,245.465c.325.065.715-.065,1.039.13H223.1c.26-.26.585-.13.909-.13Zm-64.435,0c2.858,0,5.716-.065,8.574.065-2.079.195-4.222.065-6.3.065A4.473,4.473,0,0,1,204,245.465Zm8.9.065c.455-.065.909-.065,1.364-.13.65.13,1.3-.13,1.949.13A14.124,14.124,0,0,1,212.9,245.53Z" transform="translate(-193.542 -187.915)" fill="#bee1a8"/>
        <path id="Path_21565" data-name="Path 21565" d="M323.094,201.72c0-.195-.065-.39.13-.52C323.224,201.395,323.289,201.59,323.094,201.72Z" transform="translate(-235.275 -172.425)" fill="#e9f2f9"/>
        <path id="Path_21566" data-name="Path 21566" d="M264.953,215c.325,2.079.585,4.222.909,6.3,0,.195.13.39-.065.585a4.553,4.553,0,0,1-1.884.13c-.715-2.143-1.364-4.287-2.079-6.366a5.279,5.279,0,0,0-2.273-3.7,2.593,2.593,0,0,0-.714-1.234c-1.234-1.169-1.949-2.6-3.053-3.832-.065-.13.195-.13.325-.195h.65c.065.065.13.065.195.13a5.32,5.32,0,0,0,3.183,0c.065-.065.195-.065.26-.13a3.5,3.5,0,0,0,1.624-.585,29.919,29.919,0,0,1,2.728,8.119A1.171,1.171,0,0,0,264.953,215Z" transform="translate(-211.69 -174.142)" fill="#204688"/>
        <path id="Path_21567" data-name="Path 21567" d="M263.132,184.232a16.4,16.4,0,0,0,4.547-1.559,6.092,6.092,0,0,1,5.586.585,1.869,1.869,0,0,0,1.039.195,33.95,33.95,0,0,1,5.131.065,12.025,12.025,0,0,1,4.936,1.884c.195.13.455.26.39.455-.065.26-.39.195-.585.195-5.456,0-10.848.065-16.3-.065a37.04,37.04,0,0,1-4.612-.195c-.065,0-.195.13-.26.195a1.141,1.141,0,0,1-.325-.26c-.065-.585-.13-1.1.455-1.494Z" transform="translate(-214.092 -165.785)" fill="#fff"/>
        <path id="Path_21568" data-name="Path 21568" d="M255.315,206.725c-.13.065-.39.065-.325.195,1.1,1.234,1.819,2.728,3.053,3.832a2.023,2.023,0,0,1,.714,1.234,12.807,12.807,0,0,1-.455,1.689c-.325.974-.649,2.014-.974,2.988a48.543,48.543,0,0,0-1.819,6.69c-.65,0-1.3.065-1.949.065a30.524,30.524,0,0,1,.13-4.872,2.21,2.21,0,0,1,.065-.65c0-.195.065-.325.065-.52a25.817,25.817,0,0,0,.909-8.054c0-.844-.065-1.689-.065-2.533.065-.13-.065-.39.13-.39a.662.662,0,0,1,.52.325Z" transform="translate(-210.886 -174.247)" fill="#1a3761"/>
        <path id="Path_21569" data-name="Path 21569" d="M255.76,199.947a.477.477,0,0,0-.52-.26c-.195.065-.065.26-.13.39.065-.585-.585-1.1-.26-1.754H258.1c1.234,0,1.234,0,1.364-1.169a2.254,2.254,0,0,1,.779-1.494c.585-.585,1.364-1.1,1.234-2.143-.909.195-.974,1.234-1.819,1.429v-2.014c0-1.169-.065-2.4-.065-3.572,0-.455-.585-.909,0-1.494-.844.65-1.754.325-2.663.39-.195-.065-.325-.065-.52-.13.39-.325.715-.715,1.1-1.039a10.186,10.186,0,0,1,2.4.325c0,.52,0,.52.325.52a10.193,10.193,0,0,1,3.573,4.547,1.5,1.5,0,0,1,0,1.559c-.39.714-.779,1.429-1.169,2.208a7.614,7.614,0,0,0-.974,3.118,3.5,3.5,0,0,1-1.624.585H255.76Z" transform="translate(-211.331 -167.469)" fill="#f1954a"/>
        <path id="Path_21570" data-name="Path 21570" d="M255.022,188.7c.195.065.325.065.52.13q1.851.974.39,2.533a.463.463,0,0,0-.195.39c.195,1.364-.455,2.6-.39,3.9a15.737,15.737,0,0,0,.195,3.053,16.571,16.571,0,0,1-2.533-.13c-2.338-.39-2.143.065-2.208-2.468a21.951,21.951,0,0,0,0-2.923c.065-.52.455-.909.39-1.429.195-.195.195-.65.52-.585.974.065.844-.65.974-1.169.195-1.1.325-1.234,1.494-1.234A3.43,3.43,0,0,1,255.022,188.7Zm-1.429,4.482h.52c.52,0,.974-.13.844-.65-.065-.585-.585-.26-.909-.195a3.964,3.964,0,0,1-1.949-.065c-.195-.065-.52-.325-.585.13,0,.26-.065.65.39.65.585-.065,1.1.195,1.689.13Zm2.144-3.053c.065-.325-.195-.325-.455-.325-.325,0-.65-.065-.714.39a.545.545,0,0,0,.585.585C255.672,190.844,255.672,190.454,255.737,190.129Zm-2.663-.065c0,.325.26.455.585.455.195,0,.455,0,.39-.26s-.065-.585-.52-.52C253.268,189.674,253.073,189.739,253.073,190.064Z" transform="translate(-209.943 -168.044)" fill="#204688"/>
        <path id="Path_21571" data-name="Path 21571" d="M221.68,183.741h-4.547c-.195,0-.52.13-.65-.13-.13-.325.195-.455.325-.65a1.356,1.356,0,0,1,1.039-.52,4.763,4.763,0,0,0,2.079-.78,3.6,3.6,0,0,1,3.443,0,2.237,2.237,0,0,0,1.3.26,7.008,7.008,0,0,1,5.2,1.169c.26.195.52.325.455.65-.13.325-.455.195-.715.195C226.812,184,224.019,183.546,221.68,183.741Zm17.473,5.391a9.178,9.178,0,0,1-.39,1.429c-2.988-.195-5.976-.13-8.964-.195-.195,0-.455.065-.52-.13s.13-.325.325-.455a4.249,4.249,0,0,1,2.208-.715,2.3,2.3,0,0,0,1.1-.26,7.622,7.622,0,0,1,5.326-.715A1.057,1.057,0,0,1,239.153,189.133Z" transform="translate(-197.907 -165.424)" fill="#fff"/>
        <path id="Path_21572" data-name="Path 21572" d="M258.236,183.605a6.29,6.29,0,0,1-1.884-1.819.923.923,0,0,1,.26-1.494,3.937,3.937,0,0,1,2.208-.909c1.1-.13,1.364.13,1.169,1.169-.13.585.26,1.364-.779,1.624-.195.065-.065.26,0,.455C259.405,183.54,259.275,183.67,258.236,183.605Z" transform="translate(-211.793 -164.768)" fill="#1a3761"/>
        <path id="Path_21573" data-name="Path 21573" d="M259.225,184.253c1.1.065,1.169,0,.974-.974,0-.13-.13-.39,0-.455.974-.26.649-1.039.78-1.624a3.964,3.964,0,0,1,.844,2.663c-.585.39-.52.974-.52,1.494a9.748,9.748,0,0,0-2.4-.325.745.745,0,0,0,.325-.779Z" transform="translate(-212.782 -165.416)" fill="#d6a886"/>
        <path id="Path_21574" data-name="Path 21574" d="M297.19,196.552c-.455-.13-.909-.39-1.234.26-.065.065-.195.195-.26.195-1.1-.585-1.169.585-1.689.974-.195.13-.325.325-.52.455-.13-.649.325-1.169.52-1.754a1.309,1.309,0,0,1,.455-.585c.325-.39.455-1.234,1.1-1.1A2.007,2.007,0,0,1,297.19,196.552Z" transform="translate(-224.895 -170.245)" fill="#f3f9fd"/>
        <path id="Path_21575" data-name="Path 21575" d="M254.2,198.223a11.057,11.057,0,0,0,2.533.13,1.2,1.2,0,0,0,.455.13h-2.533A2.819,2.819,0,0,1,254.2,198.223Zm5.846-10c-.325-.065-.325-.065-.325-.52a1.14,1.14,0,0,1,.325.26C259.981,188.025,259.981,188.09,260.046,188.22Z" transform="translate(-211.135 -167.694)" fill="#d6a886"/>
        <path id="Path_21576" data-name="Path 21576" d="M220.922,224.781c-.13-.325-.325-.65-.779-.65a.5.5,0,0,0-.52.455c-.13.455.26.585.585.844.26.195.844.195.714.585s-.65.065-.974,0a10.055,10.055,0,0,0-3.443.52,10.124,10.124,0,0,1-3.118.52c.13-.585-.26-1.1-.065-1.689.26-.065.455-.195.715-.26.325-.195.65-.39.52-.844-.065-.26-.26-.39-.585-.455a.668.668,0,0,0-.714.65c-.39.065-.26-.39-.52-.455a1.548,1.548,0,0,0-.325-1.169c0-.13,0-.26-.195-.325.065-.455.39-.585.844-.52h3.9c.39,0,.779,0,.714.52.065.195-.585.26-.065.455a1.3,1.3,0,0,0,1.624-.779.59.59,0,0,1,.455-.195c.39-.13.325-.455.065-.52-1.1-.325-1.819-1.234-3.053-1.559a18.123,18.123,0,0,1-4.417-2.014.654.654,0,0,1-.39-.715c.065-.325.455-.195.65-.195a5.447,5.447,0,0,1,2.858.65c1.234.585,2.6.585,3.832,1.039a25.428,25.428,0,0,0,3.183.844c.78.13,1.494.39,2.338.52,1.1.195,2.273.26,3.443.52a10.853,10.853,0,0,0,2.533.39,28.28,28.28,0,0,1,4.092.65,21.879,21.879,0,0,0,3.573.065,21.923,21.923,0,0,1-3.638,1.3c-3.183,1.234-6.5,2.208-9.678,3.573a23,23,0,0,1-2.988-.13c-.779-.13-1.039-.39-.715-1.1l.78-2.533c.52,0,.844-.585,1.364-.52.13,0,.195-.325.065-.39-.325-.26-.26-.52-.325-.844-.13-.715-1.169.26-1.3-.585a.487.487,0,0,0-.325.065.5.5,0,0,0-.13.325c-.13.585-.779,1.3.39,1.624.065,0,.065.13.065.26-.325.26-.195.714-.39.974C221.182,224.066,221.507,224.651,220.922,224.781Zm-4.157.325a6.558,6.558,0,0,0-.455-.974.654.654,0,0,0-.714-.39.552.552,0,0,0-.455.455.568.568,0,0,0,.325.585c.325.13.779.195.909.455.39.909.974.455,1.559.26.39-.13.52-.26.39-.585a.631.631,0,0,0-.779-.39C217.284,224.651,217.09,224.976,216.765,225.106Z" transform="translate(-196.304 -177.948)" fill="#d7ec90"/>
        <path id="Path_21577" data-name="Path 21577" d="M279.312,224.914a2.716,2.716,0,0,0,1.884,2.338c.325.065.455.39.585.715.325.779.714,1.624,1.039,2.4-2.078.195-4.222.195-6.365.195-1.364,0-1.689-.585-1.1-1.754.585-1.1,1.234-2.144,1.819-3.183a9.884,9.884,0,0,0,1.039-2.728l.195.195A5.975,5.975,0,0,0,279.312,224.914Z" transform="translate(-218.45 -180.03)" fill="#a3704c"/>
        <path id="Path_21578" data-name="Path 21578" d="M290.334,240.332a.971.971,0,0,1-1.234-.65c-.065-.195-.325-.325-.52-.39-.844-.195-.65-.65-.26-1.1a1.623,1.623,0,0,1,2.338-.455,2.738,2.738,0,0,1,1.1,2.208C291.633,240.332,291.633,240.332,290.334,240.332Z" transform="translate(-222.976 -185.121)" fill="#d7ec90"/>
        <path id="Path_21579" data-name="Path 21579" d="M229.229,239.991a5.368,5.368,0,0,1,1.039-1.884c.325-.26.585-.585.974-.13a.705.705,0,0,1,.065,1.1,2.864,2.864,0,0,1-1.169.974c-.195.065-.39.195-.325.39,0,.26.26.26.455.325.26.065.585.13.52.455s-.455.195-.649.195c-.78,0-1.494,0-2.338-.065,1.1-.714.39-1.884.974-2.728.13-.195.13-.585.455-.455.39.13.26.455.13.714A1,1,0,0,0,229.229,239.991Z" transform="translate(-201.883 -185.234)" fill="#84b479"/>
        <path id="Path_21580" data-name="Path 21580" d="M261,216.789a12.8,12.8,0,0,1,.455-1.689,5.5,5.5,0,0,1,2.273,3.7l-.974.195c-.195,0-.455.065-.585-.13C261.779,218.153,261.13,217.633,261,216.789Z" transform="translate(-213.518 -177.296)" fill="#e9f2f9"/>
        <path id="Path_21581" data-name="Path 21581" d="M269.728,239.881c-.585-.13-1.494.325-1.429-.78,0-.585.844-1.234,1.559-1.234s1.234.52,1.234,1.429C271.027,240.336,270.118,239.621,269.728,239.881Zm-30.269-6.69a1.762,1.762,0,0,1,1.429.779c.39.455,0,1.039-.585,1.039a13.557,13.557,0,0,1-1.624-.065c-.39-.065-.779-.195-.779-.649a.98.98,0,0,1,.585-.909A1.869,1.869,0,0,1,239.459,233.191Z" transform="translate(-205.423 -183.63)" fill="#d7ec90"/>
        <path id="Path_21582" data-name="Path 21582" d="M253.7,231.894c.65,0,1.3-.065,1.949-.065.13.715.779.65,1.234.844.26.13.65.13.585.455s-.455.13-.65.195h-1.364C253.83,233.388,253.83,233.388,253.7,231.894Zm9.483-1.364a4.556,4.556,0,0,0,1.884-.13c.39.65,1.1.65,1.754.779.195.065.455.065.455.325s-.325.195-.455.195c-.715.13-1.364.195-2.079.325-.649.13-1.1-.065-1.234-.714A1.667,1.667,0,0,0,263.183,230.53Z" transform="translate(-210.96 -182.658)" fill="#a3704c"/>
        <path id="Path_21583" data-name="Path 21583" d="M260.474,217.7c.13.844.779,1.364,1.169,2.079.13.195.39.065.585.13a13.114,13.114,0,0,1-2.728.779C259.825,219.714,260.15,218.674,260.474,217.7Z" transform="translate(-212.992 -178.207)" fill="#d5e6fa"/>
        <path id="Path_21584" data-name="Path 21584" d="M297.807,235.867c.325.909-.455.65-.844.779a.885.885,0,0,1-1.169-.65.617.617,0,0,1,.39-.65.961.961,0,0,1,.844,0C297.222,235.542,297.417,235.867,297.807,235.867Z" transform="translate(-225.707 -184.358)" fill="#529b68"/>
        <path id="Path_21585" data-name="Path 21585" d="M298.93,233.685c.779-.78.844-.78,1.624,0a2.469,2.469,0,0,1-1.754,1.429A9.727,9.727,0,0,0,298.93,233.685Z" transform="translate(-226.765 -183.604)" fill="#529b68"/>
        <path id="Path_21586" data-name="Path 21586" d="M259.019,237.144c-.39-.065-.844.13-.844-.455,0-.39.325-.585.715-.52.455,0,.909.13.909.65S259.279,237.079,259.019,237.144Zm-28.645-1.169c-.39,0-.844.065-.909-.455,0-.52.39-.52.779-.52a.79.79,0,0,1,.844.585C231.153,236.1,230.634,235.909,230.374,235.974Zm-7.795,5c-.325-.065-.78.13-.78-.39s.39-.585.78-.585c.455,0,.844.26.844.65C223.359,241.106,222.9,240.911,222.579,240.976Z" transform="translate(-199.78 -184.27)" fill="#d7ec90"/>
        <path id="Path_21587" data-name="Path 21587" d="M302.955,233.886a1.239,1.239,0,0,1,.844.13c.195.844-.585.909-1.039,1.169-.26.13-.26-.13-.26-.325A3.291,3.291,0,0,1,302.955,233.886Zm1.754,2.079a1.048,1.048,0,0,1,.52-1.1c.13-.065.26-.13.39,0s.065.26-.065.39A2.345,2.345,0,0,1,304.708,235.965Z" transform="translate(-228.062 -183.871)" fill="#529b68"/>
        <path id="Path_21588" data-name="Path 21588" d="M236.474,234.025c0,.325-.195.325-.39.325-.26,0-.585.065-.585-.325,0-.26.13-.325.39-.325S236.409,233.765,236.474,234.025Z" transform="translate(-204.581 -183.815)" fill="#d7ec90"/>
        <path id="Path_21589" data-name="Path 21589" d="M281.144,220.667a5.142,5.142,0,0,1-.844-1.819,6.386,6.386,0,0,1,2.014-2.728c.26-.195.39-.13.585.065.974.65,1.3.65,2.014-.26a44.934,44.934,0,0,1,4.742-4.547c.39-.325.909-.779,1.234-.52.455.26.195.909.065,1.364-.39,1.039-.714,2.014-1.1,3.053-.13.325-.325.715,0,1.039.325.26.65-.065.909-.26,1.364-.844,2.728-1.754,4.092-2.663,1.1-.714,2.143-1.3,3.572-.714a3.7,3.7,0,0,0,2.728-.26,8.411,8.411,0,0,1,2.858-.714,1.147,1.147,0,0,1,1.234.844,5.459,5.459,0,0,0-3.638,2.273c-1.1,1.494-2.6,1.559-4.157,1.364a8.372,8.372,0,0,0-5.586,1.039,8.837,8.837,0,0,1-4.287,1.624,6.6,6.6,0,0,0-3.637,1.754c-.65,0-1.169.455-1.819.325A1.394,1.394,0,0,1,281.144,220.667Z" transform="translate(-220.282 -175.783)" fill="#a5cbfb"/>
        <path id="Path_21590" data-name="Path 21590" d="M300.523,229.153c1.1-.39.974.65,1.039.974.13.455-.585.715-1.039.844a1.113,1.113,0,0,1-1.039-.585c-.13-.325.195-.585.195-.974,0-.585.585-.195.844-.26Z" transform="translate(-226.994 -182.191)" fill="#e9f2f9"/>
        <path id="Path_21591" data-name="Path 21591" d="M295.023,231.957a2.912,2.912,0,0,1-.779-.065c-.455-.065-.52-.39-.455-.779s.325-.585.65-.52a1.544,1.544,0,0,1,1.3,1.1C295.867,232.152,295.152,231.763,295.023,231.957Z" transform="translate(-225.001 -182.722)" fill="#529b68"/>
        <path id="Path_21592" data-name="Path 21592" d="M209.278,229.951a5.842,5.842,0,0,1-2.988-.065c.455-.195.779-.39.26-.779a1.579,1.579,0,0,0,1.169-.585.457.457,0,0,0-.065-.779.481.481,0,0,0-.779.26c-.13.325-.195.715-.325,1.1-.325-.13-.65-.52-1.1-.26-.39.195-.13.585-.195.909a19.574,19.574,0,0,0-3.9-.13c-.455,0-.585-.13-.325-.52a4.913,4.913,0,0,0,.715-1.689,6.392,6.392,0,0,1,4.417-2.143c.325-.065.39-.26.65-.39.715-.195.909.65,1.494.65l.195.195a1.883,1.883,0,0,0,.325,1.169c.065.26-.13.65.325.844-.065.195-.13.39,0,.52A14.769,14.769,0,0,1,209.278,229.951Zm-4.287-2.4c.195-.065.715.065.585-.325a1.048,1.048,0,0,0-.909-.779.46.46,0,0,0-.52.455C204.146,227.417,204.536,227.482,204.991,227.547Z" transform="translate(-192.454 -180.715)" fill="#d7ec90"/>
        <path id="Path_21593" data-name="Path 21593" d="M211.485,224.65c-.585-.065-.779-.844-1.494-.65-.13-.52.52-.844.26-1.429a3.78,3.78,0,0,1,1.689-.195c-.065.585.779.974.39,1.624a.692.692,0,0,0-.844.52Z" transform="translate(-195.636 -179.831)" fill="#f3f9fd"/>
        <path id="Path_21594" data-name="Path 21594" d="M222.03,224.993a1.279,1.279,0,0,1-1.624.779c-.455-.195.13-.26.065-.455C221.25,224.473,221.445,224.408,222.03,224.993Z" transform="translate(-199.231 -180.629)" fill="#529b68"/>
        <path id="Path_21595" data-name="Path 21595" d="M208.553,238.1a6.937,6.937,0,0,1-3.053-.13c.974-.26,1.039-.974,1.234-1.689.065-.26.13-.65.52-.585.325.065.13.455.195.715.065.325-.39.585-.195.909.455-.065.455-.585.779-.714.26-.065.455-.39.715-.13s-.065.455-.195.585C207.838,237.45,207.9,237.775,208.553,238.1Z" transform="translate(-194.068 -184.512)" fill="#84b479"/>
        <path id="Path_21596" data-name="Path 21596" d="M226.839,226.03l-.779,2.533a1.154,1.154,0,0,1-.26-.65c.585-.195.26-.715.455-1.039.195-.26.065-.714.39-.974.13.065.195.065.195.13Z" transform="translate(-201.182 -181.081)" fill="#bee1a8"/>
        <path id="Path_21597" data-name="Path 21597" d="M213.73,231.789c-.065-.585-.065-1.1-.13-1.689h.195c-.195.585.195,1.1.065,1.689Z" transform="translate(-196.907 -182.553)" fill="#84b479"/>
        <path id="Path_21598" data-name="Path 21598" d="M257.2,206.9h3.638c-.065.065-.195.065-.26.13h-3.183C257.395,206.965,257.33,206.965,257.2,206.9Z" transform="translate(-212.186 -174.423)" fill="#d6a886"/>
        <path id="Path_21599" data-name="Path 21599" d="M257.6,207.1h3.183A5.319,5.319,0,0,1,257.6,207.1Z" transform="translate(-212.326 -174.493)" fill="#a3704c"/>
        <path id="Path_21600" data-name="Path 21600" d="M256.359,198.693a1.2,1.2,0,0,0-.455-.13,24.09,24.09,0,0,1-.195-3.053c-.065-1.364.585-2.6.39-3.9a.561.561,0,0,1,.195-.39q1.461-1.559-.39-2.533c.844-.065,1.754.26,2.663-.39-.65.585,0,1.039,0,1.494,0,1.169.065,2.4.065,3.573v2.014c.844-.195.909-1.234,1.819-1.429.195,1.039-.65,1.559-1.234,2.144a2.255,2.255,0,0,0-.78,1.494c-.065,1.169-.13,1.169-1.364,1.169A2.916,2.916,0,0,0,256.359,198.693Zm-2.4-5.651c-.52.13-1.039-.195-1.689-.195-.52,0-.455-.39-.39-.65.065-.455.325-.195.585-.13a3.965,3.965,0,0,0,1.949.065c.325-.065.844-.325.909.195s-.39.714-.844.65A1.43,1.43,0,0,1,253.955,193.042Z" transform="translate(-210.306 -167.904)" fill="#1a3761"/>
        <path id="Path_21601" data-name="Path 21601" d="M256.963,190.655c-.13.325-.13.715-.52.649a.545.545,0,0,1-.584-.585c0-.455.39-.39.714-.39C256.768,190.395,257.093,190.33,256.963,190.655Zm-2.663-.065c0-.325.195-.325.455-.39.39,0,.455.26.52.52.065.325-.195.26-.39.26C254.56,191.044,254.3,190.914,254.3,190.59Z" transform="translate(-211.17 -168.57)" fill="#1a3761"/>
        <path id="Path_21602" data-name="Path 21602" d="M226.924,224.8l-.13-.13a.39.39,0,0,0-.065-.26c-1.169-.325-.52-1.039-.39-1.624a.5.5,0,0,1,.13-.325.487.487,0,0,1,.325-.065c.13.844,1.169-.13,1.3.585.065.325,0,.65.325.844.13.065.065.455-.065.39-.585,0-.844.585-1.429.585Z" transform="translate(-201.267 -179.855)" fill="#f3f9fd"/>
        <path id="Path_21603" data-name="Path 21603" d="M217.35,228.757c.325-.13.52-.455.909-.585a.582.582,0,0,1,.779.39c.13.325,0,.455-.39.585-.585.195-1.169.65-1.559-.26-.13-.195-.585-.26-.909-.455a.494.494,0,0,1-.325-.585.552.552,0,0,1,.455-.455.654.654,0,0,1,.714.39,1.933,1.933,0,0,0,.325.974Zm-3.508.39h-.195a.4.4,0,0,1,0-.52.357.357,0,0,0,.195-.325.668.668,0,0,1,.714-.649.6.6,0,0,1,.585.455c.13.455-.195.65-.52.844A2.741,2.741,0,0,0,213.842,229.147Z" transform="translate(-196.889 -181.6)" fill="#529b68"/>
        <path id="Path_21604" data-name="Path 21604" d="M213.025,227.369a1.884,1.884,0,0,1-.325-1.169C213.025,226.525,212.96,226.979,213.025,227.369Z" transform="translate(-196.591 -181.186)" fill="#84b479"/>
        <path id="Path_21605" data-name="Path 21605" d="M213.339,227.649a.357.357,0,0,1-.195.325c-.455-.13-.195-.52-.325-.844C213.079,227.324,212.95,227.779,213.339,227.649ZM212.3,225.83v-.13c.13.065.13.195.195.325Z" transform="translate(-196.451 -181.011)" fill="#84b479"/>
        <path id="Path_21606" data-name="Path 21606" d="M206.744,228.4c-.455,0-.844-.13-.844-.649,0-.325.195-.455.52-.455a1.047,1.047,0,0,1,.909.779C207.459,228.469,207,228.274,206.744,228.4Zm1.624,1.559c.13-.39.195-.779.325-1.1a.5.5,0,0,1,.779-.26.435.435,0,0,1,.065.779,1.7,1.7,0,0,1-1.169.585Z" transform="translate(-194.208 -181.572)" fill="#529b68"/>
      </g>
      <path id="Path_21608" data-name="Path 21608" d="M332.333,311.588c.065,1.039-3.573,4.547-6.5,7.21-.779.715-1.559,1.364-2.144,1.884a2.2,2.2,0,0,0-.65,2.468,3.059,3.059,0,0,1,.13,1.3c-.13.52-.39.974-.909.974H315.9a.723.723,0,0,1-.585-1.169,3.15,3.15,0,0,1,1.884-1.169,2.37,2.37,0,0,0,.909-.455,11.565,11.565,0,0,0,2.663-3.118c.455-.78.779-1.624,1.169-2.468,2.209-5.261,3.378-11.627,7.015-13.965C329.8,302.429,332.2,309.9,332.333,311.588Z" transform="translate(-110.448 -202.658)" fill="#f5975d"/>
      <path id="Path_21609" data-name="Path 21609" d="M325.838,326.254c-.779.715-1.559,1.364-2.144,1.884a2.2,2.2,0,0,0-.65,2.468,3.06,3.06,0,0,1,.13,1.3c-.13.52-.39.974-.909.974H315.9a.723.723,0,0,1-.585-1.169,3.149,3.149,0,0,1,1.884-1.169,2.372,2.372,0,0,0,.909-.455,11.568,11.568,0,0,0,2.663-3.118c.455-.779.779-1.624,1.169-2.468A8.466,8.466,0,0,1,325.838,326.254Z" transform="translate(-110.448 -210.179)" fill="#32478f"/>
      <path id="Path_21610" data-name="Path 21610" d="M319.408,335.893H315.9a.723.723,0,0,1-.585-1.169,3.148,3.148,0,0,1,1.884-1.169,2.374,2.374,0,0,0,.909-.455A5.335,5.335,0,0,1,319.408,335.893Z" transform="translate(-110.448 -213.193)" fill="#223771"/>
      <path id="Path_21611" data-name="Path 21611" d="M353.6,262.084a2.83,2.83,0,0,0,0-1.884,2.833,2.833,0,0,1-.455,1.559C352.755,262.214,353.6,262.084,353.6,262.084Z" transform="translate(-123.724 -187.645)" fill="#2a3967"/>
      <path id="Path_21612" data-name="Path 21612" d="M353.7,261.9a1.636,1.636,0,0,1,1.494.65,1.4,1.4,0,0,0-1.429,0Z" transform="translate(-123.955 -188.237)" fill="#2a3967"/>
      <path id="Path_21613" data-name="Path 21613" d="M354.99,305.127s-.39,9.353-12.8,9.353c-9.029,0-15.394-22.409-15.394-22.409s2.209-1.364,2.663-1.234C333.815,292.006,354.99,305.127,354.99,305.127Zm-19.032-25.008,4.807,2.208,1.1-3.767a10.326,10.326,0,0,1-.974-3.443,15.783,15.783,0,0,1-.13-3.118l-4.417,2.273a5.263,5.263,0,0,1,.195,1.039,7.156,7.156,0,0,1-.065,2.338A23.455,23.455,0,0,0,335.959,280.119Z" transform="translate(-114.528 -191.781)" fill="#ffae73"/>
      <path id="Path_21614" data-name="Path 21614" d="M341.6,279.433c2.533-.065,4.417-2.533,4.417-2.533l-4.352.195A5.768,5.768,0,0,1,341.6,279.433Z" transform="translate(-119.714 -193.498)" fill="#f5975d"/>
      <path id="Path_21615" data-name="Path 21615" d="M338.806,272.988s5,1.3,6.755-2.663c1.884-4.287-.195-7.4-1.884-7.665-3.378-.39-5.391.844-5.976,2.208C337.052,266.3,336.012,272.274,338.806,272.988Z" transform="translate(-118.089 -188.482)" fill="#ffae73"/>
      <path id="Path_21616" data-name="Path 21616" d="M352.811,330.211h-8.7a2.785,2.785,0,0,1-.974-.325c-1.364-.65-3.573-2.079-3.573-2.079-.844-7.6,5.781-11.107,5.781-11.107s11.562,1.624,12.861,6.041a2.765,2.765,0,0,1,.13.715C358.786,327.482,352.811,330.211,352.811,330.211Z" transform="translate(-118.973 -207.446)" fill="#32478f"/>
      <path id="Path_21617" data-name="Path 21617" d="M354.778,333.645h-8.7a2.786,2.786,0,0,1-.974-.325,1.8,1.8,0,0,1,.585.065c9.029.715,7.86-6.885,7.86-6.885l6.82.455C360.754,330.917,354.778,333.645,354.778,333.645Z" transform="translate(-120.941 -210.88)" fill="#223771"/>
      <path id="Path_21618" data-name="Path 21618" d="M337.7,262.671c-1.3.13-2.468-.974-.974-3.053,1.364-1.884,6.755-2.273,9.159-.455,6.755,4.937,1.819,9.808-1.169,11.3a.9.9,0,0,1-1.1-.26c-.52-.715-1.234-1.884-1.039-2.338.325-.714.325-2.4-.585-2.079-.909.39-2.923-3.183-4.287-3.118Z" transform="translate(-117.76 -186.869)" fill="#2a3967"/>
      <path id="Path_21619" data-name="Path 21619" d="M358.922,311.489c-5.911,5.132-12.471-5.781-15.134-9.224a6.256,6.256,0,0,0-.844-.909c-1.754-1.1-4.352-5.2-4.482-6.885a28.894,28.894,0,0,1,.065-4.742,41.09,41.09,0,0,1,1.819-8.444c4.677.13,5.2-.585,5.2-.585,10.912,1.689,15.524,28.97,13.381,30.789Z" transform="translate(-118.59 -194.83)" fill="#ffb600"/>
      <path id="Path_21620" data-name="Path 21620" d="M343.888,305.484a6.256,6.256,0,0,0-.845-.909c-1.754-1.1-4.352-5.2-4.482-6.885a28.894,28.894,0,0,1,.065-4.742A6.125,6.125,0,0,1,342.2,289.7h1.559C343.693,289.765,348.045,293.922,343.888,305.484Z" transform="translate(-118.625 -197.984)" fill="#ff9f00"/>
      <path id="Path_21621" data-name="Path 21621" d="M322.834,311.527a1.654,1.654,0,0,1-.13.455c-.65,1.364-3.832,4.417-6.366,6.69-.779.714-1.559,1.364-2.144,1.884a2.2,2.2,0,0,0-.649,2.468,3.061,3.061,0,0,1,.13,1.3c-.13.52-.39.974-.909.974H306.4a.723.723,0,0,1-.585-1.169,3.149,3.149,0,0,1,1.884-1.169c1.234-.26,2.923-2.468,3.573-3.573.455-.779.779-1.624,1.169-2.468.779-1.948,1.494-4.027,2.208-6.041.52-1.429,1.039-2.728,1.624-3.962a10.59,10.59,0,0,1,3.183-4.027c.39-.195.974.909,1.559,2.338.325.779.65,1.689.909,2.533A32.02,32.02,0,0,1,322.834,311.527Z" transform="translate(-107.119 -202.598)" fill="#ffae73"/>
      <path id="Path_21622" data-name="Path 21622" d="M316.338,326.254c-.779.715-1.559,1.364-2.144,1.884a2.2,2.2,0,0,0-.649,2.468,3.061,3.061,0,0,1,.13,1.3c-.13.52-.39.974-.909.974H306.4a.723.723,0,0,1-.585-1.169,3.149,3.149,0,0,1,1.884-1.169c1.234-.26,2.923-2.468,3.573-3.572.455-.779.779-1.624,1.169-2.468A8.76,8.76,0,0,1,316.338,326.254Z" transform="translate(-107.119 -210.179)" fill="#32478f"/>
      <path id="Path_21623" data-name="Path 21623" d="M331.222,304.1a29.685,29.685,0,0,1-4.547,4.157,3.944,3.944,0,0,1-.65.455,13.316,13.316,0,0,1-6.625,2.6c.52-1.429,1.039-2.728,1.624-3.962,1.3-.52,2.663-.974,4.027-1.429.26-.065.52-.195.78-.26C328.753,304.75,331.222,304.1,331.222,304.1Z" transform="translate(-111.934 -203.03)" fill="#f5975d"/>
      <path id="Path_21624" data-name="Path 21624" d="M332.52,283.157s-5.261,11.952-7.47,12.861-6.95,5.521-6.95,5.521l1.039,1.624s6.69-2.6,8.249-3.508c1.624-.909,9.613-8.769,9.159-10.912C336.027,286.664,337.521,282.442,332.52,283.157Z" transform="translate(-111.479 -195.662)" fill="#ffae73"/>
      <path id="Path_21625" data-name="Path 21625" d="M340.076,281.7a6.317,6.317,0,0,0-3.443,2.663c-1.3,2.079-2.533,4.287-2.533,4.287s2.6,3.7,8.314,2.079C348.13,289.038,344.038,281.5,340.076,281.7Z" transform="translate(-117.086 -195.178)" fill="#ffb600"/>
      <path id="Path_21626" data-name="Path 21626" d="M317.607,311.5a4.121,4.121,0,0,0-.065,5l1.429-4.027Z" transform="translate(-110.985 -205.624)" fill="#ffae73"/>
      <g id="Group_6790" data-name="Group 6790" transform="translate(175.31 66.475)">
        <path id="Path_21674" data-name="Path 21674" d="M312.206,273.012s-.52,3.313.52,5H306.1a18.363,18.363,0,0,0,.26-4.612c-.26-1.819,5.846-.39,5.846-.39Z" transform="translate(-282.583 -258.424)" fill="#ffae73"/>
        <path id="Path_21675" data-name="Path 21675" d="M305.11,268.043s-2.014.844-2.468-5.131c-.39-4.742.065-5.586,4.937-5.716,4.612-.13,5.521,1.234,5.521,2.858C313.164,268.692,306.994,267.588,305.11,268.043Z" transform="translate(-281.333 -253.065)" fill="#ffae73"/>
        <path id="Path_21676" data-name="Path 21676" d="M308.829,253c1.819.52,4.482,1.949,4.482,4.352,0,2.273-.195,4.482-.779,5.066s-.39,3.118-3.053,3.118c-2.4,0-4.937-1.559-5.261-2.923-.39-1.429-2.143-.455-2.533-1.884-.714-2.923-.584-4.417,1.3-6.041C304.672,253.327,306.75,252.418,308.829,253Z" transform="translate(-280.895 -251.535)" fill="#c00f1f"/>
        <path id="Path_21677" data-name="Path 21677" d="M318.292,266.309s.585-.455.78.13-1.1,2.533-1.624,1.884C316.993,267.673,318.292,266.309,318.292,266.309Z" transform="translate(-286.526 -256.202)" fill="#ffae73"/>
        <path id="Path_21678" data-name="Path 21678" d="M314.132,289.7V306l-39.492-.974c-1.039-.065-4.872-4.222-4.742-5.261l2.079-3.313a27.154,27.154,0,0,1,3.7-4.092c2.208-1.819,7.73-6.56,8.184-8.184.974-3.313,2.273-4.482,3.573-4.937a30.876,30.876,0,0,1,6.3-1.364c.455-.065.909-.065,1.429-.13a25.079,25.079,0,0,1,4.417,0c3.183.195,5.911.909,7.34,2.014,1.234,1.1,4.677,6.106,7.21,9.938Z" transform="translate(-269.895 -260.236)" fill="#25468f"/>
        <path id="Path_21679" data-name="Path 21679" d="M306.306,251.009a7.361,7.361,0,0,0,2.079-.065c1.364-.195,3.572-.26,4.612,1.169,4.027,5.716-.909,8.9-.195,10.977.714,2.014,5.586,4.742,4.547,7.34-2.663,6.43-7.145,1.429-11.562,0-.844-.26-.455-4.742,4.092-6.95,1.364-.65-6.82-2.143-8.184-2.793-1.948-.909-2.014-2.533-1.754-4.092C300.46,254,302.6,250.619,306.306,251.009Z" transform="translate(-280.386 -250.841)" fill="#c00f1f"/>
        <path id="Path_21680" data-name="Path 21680" d="M305.251,266.312s.065-.779-.52-.714c-1.559.13-1.494,2.338-.65,2.533C304.926,268.261,305.251,266.312,305.251,266.312Z" transform="translate(-281.669 -256.011)" fill="#ffae73"/>
      </g>
      <g id="Group_6791" data-name="Group 6791" transform="translate(126.693 58.883)">
        <path id="Path_21681" data-name="Path 21681" d="M228.484,262.881s.52,3.573-.585,5.391h7.145a18.107,18.107,0,0,1-.26-5c.26-1.949-6.3-.39-6.3-.39Z" transform="translate(-206.561 -247.262)" fill="#ffae73"/>
        <path id="Path_21682" data-name="Path 21682" d="M230.621,258.787s5.326-.325,5.846-6.82c.39-5.066-.065-5.976-5.391-6.171-5-.13-5.976,1.3-5.976,3.053C225.1,258.2,228.672,258.332,230.621,258.787Z" transform="translate(-205.58 -241.478)" fill="#ffae73"/>
        <path id="Path_21683" data-name="Path 21683" d="M228.907,241.29c-2.014.585-4.807,2.079-4.807,4.742,0,2.468.26,4.872.844,5.456.65.585,2.208,4.612,5.066,4.612,2.6,0,3.962-1.234,4.352-2.793s1.884-2.079,2.273-3.637c.78-3.183.65-4.807-1.429-6.5a6.788,6.788,0,0,0-6.3-1.884Z" transform="translate(-205.23 -239.83)" fill="#c00f1f"/>
        <path id="Path_21684" data-name="Path 21684" d="M224.735,255.694s-.65-.52-.844.13,1.234,2.728,1.754,2.014S224.735,255.694,224.735,255.694Z" transform="translate(-205.15 -244.881)" fill="#ffae73"/>
        <path id="Path_21685" data-name="Path 21685" d="M209.047,270.283c3.507-2.728,14.03-3.053,20.98-.585,1.364.52,2.793,1.754,3.832,5.326.52,1.754,6.5,6.82,8.9,8.834a32.121,32.121,0,0,1,3.962,4.417l2.273,3.573c.13,1.1-4.027,5.586-5.131,5.651L196.9,298.6l-1.754-7.145a3.848,3.848,0,0,1,.714-3.248c1.039-1.3,2.468-2.793,2.858-3.378C200.863,281.455,207.034,271.842,209.047,270.283Z" transform="translate(-195.048 -249.272)" fill="#c3433b"/>
        <path id="Path_21686" data-name="Path 21686" d="M226.639,239.378s-3.832-.715-6.236,1.039c-2.338,1.754-2.793,4.417-3.573,6.56s-3.573,2.728-2.468,5.521c2.858,6.95,14.03,5.066,18.772,3.443.909-.325.065-1.754-1.234-2.273-1.494-.585-.779-3.378.715-4.027,2.079-1.039,2.208-2.793,1.884-4.417C233.914,242.236,231.186,238.144,226.639,239.378Z" transform="translate(-201.728 -239.153)" fill="#0b3563"/>
        <path id="Path_21687" data-name="Path 21687" d="M240.271,255.348s.325-.779.844-.325.195,3.183-.65,2.793S240.271,255.348,240.271,255.348Z" transform="translate(-210.813 -244.665)" fill="#ffae73"/>
      </g>
      <g id="Group_6792" data-name="Group 6792" transform="translate(91.771 56.892)">
        <path id="Path_21688" data-name="Path 21688" d="M236.013,279.47s4.222-.715,5.456-.39,3.767,2.728,3.313,3.767-4.677-.715-5.261-.715h-4.157ZM182.1,266.934l3.962,2.6,5.716-1.039c-.065-.455-.455-2.4-.779-4.092,0-.13-.065-.195-.065-.325-.325-1.494-.52-2.728-.52-2.728l-5.326-2.338-2.014-.909s.13,1.624.195,1.884A13.864,13.864,0,0,1,182.1,266.934Z" transform="translate(-155.588 -243.802)" fill="#ffae73"/>
        <path id="Path_21689" data-name="Path 21689" d="M191.543,300.127H166.6c2.273-15.329,5.586-29.555,9.548-30.659,1.754-.52,11.107,2.533,11.107,2.533a53.924,53.924,0,0,1,2.4,8.7c.26,1.494,1.169,11.237,1.884,19.421Z" transform="translate(-150.156 -247.765)" fill="#25468f"/>
        <path id="Path_21690" data-name="Path 21690" d="M184.408,260.434c1.169,2.014,5.586,3.7,7.4,4.352,0-.13-.065-.195-.065-.325-.325-1.494-.52-2.728-.52-2.728l-5.326-2.338C184.6,259.33,183.888,259.59,184.408,260.434Z" transform="translate(-156.337 -244.252)" fill="#ffa05e"/>
        <path id="Path_21691" data-name="Path 21691" d="M191.52,254.818s-8.639,2.663-10.2-2.728c-1.624-5.391-3.767-8.7,1.689-10.653s7.145-.195,8.119,1.494C192.039,244.62,193.728,253.974,191.52,254.818Z" transform="translate(-154.68 -237.662)" fill="#ffae73"/>
        <path id="Path_21692" data-name="Path 21692" d="M188.77,240.837s-.52,6.3-1.819,5.976c-1.3-.26-2.468-.455-2.273,1.429s2.014,4.092-2.014,4.417-9.743-10-8.639-11.952C177.143,235.121,193.317,233.952,188.77,240.837Zm-1.3,17.018c-.13-.065-6.431-2.858-7.145-2.663-.714.26-1.689,2.468-1.689,2.468l11.107,2.533a6.049,6.049,0,0,0-2.273-2.338Z" transform="translate(-152.71 -236.088)" fill="#0b3563"/>
        <path id="Path_21693" data-name="Path 21693" d="M179.819,270.374s26.566,9.873,31.308,10.133a120.917,120.917,0,0,1,18.837,2.858,2.525,2.525,0,0,1,.26,1.364,2.033,2.033,0,0,1-.909,1.3l-40.727-.13Zm-4.352-.974s-6.3.585-7.6,2.533-4.092,14.355-2.6,15.394,4.872.974,4.872.974Z" transform="translate(-149.54 -247.762)" fill="#25468f"/>
        <path id="Path_21694" data-name="Path 21694" d="M153.181,317.6h-4.092a7.827,7.827,0,0,0-7.73,8.9l4.417,30.139a6.7,6.7,0,0,0,6.56,5.716h12.082L153.181,317.6Zm141.6,0h4.092a7.827,7.827,0,0,1,7.73,8.9l-4.417,30.139a6.7,6.7,0,0,1-6.56,5.716H283.545L294.783,317.6Z" transform="translate(-141.284 -264.654)" fill="#b5001f"/>
        <path id="Path_21695" data-name="Path 21695" d="M291.642,354.364H167.774c-3.248,0-5.976-2.014-6.236-4.612l-4.547-49.626c-.26-2.858,2.6-5.326,6.236-5.326h132.7c3.637,0,6.5,2.4,6.236,5.261l-4.287,49.625C297.618,352.35,294.89,354.364,291.642,354.364Z" transform="translate(-146.783 -256.663)" fill="#e1233d"/>
        <path id="Path_21696" data-name="Path 21696" d="M176.606,386.5l-.909,10.263a1.074,1.074,0,0,0,1.1,1.169,1.056,1.056,0,0,0,.974-.715l2.793-10.717Zm117.958,0,.909,10.263a1.074,1.074,0,0,1-1.1,1.169,1.056,1.056,0,0,1-.974-.715L290.6,386.5Z" transform="translate(-153.342 -288.8)" fill="#214d9a"/>
      </g>
      <path id="Path_21697" data-name="Path 21697" d="M332.179,404.809H.39a.419.419,0,0,1-.39-.39v-.13a.419.419,0,0,1,.39-.39H332.179a.419.419,0,0,1,.39.39v.13A.374.374,0,0,1,332.179,404.809Z" transform="translate(0 -238.005)" fill="#2d3554"/>
      <g id="Group_6793" data-name="Group 6793" transform="translate(199.087 4.157)">
        <path id="Path_21698" data-name="Path 21698" d="M308.254,158.8a.391.391,0,0,1-.26-.065l-.13-.13v-1.039h.585v-.779h-.585v-.65h-.974v.65h-.39v.779h.39v.974c0,.195,0,.325.065.39,0,.13.13.195.26.325a.862.862,0,0,0,.65.195.487.487,0,0,0,.325-.065c.13,0,.195-.065.325-.13l-.13-.585C308.384,158.8,308.319,158.8,308.254,158.8Zm1.429-1.559v-.455h-.909v2.663h.974v-1.429c0-.065.065-.13.13-.26a.55.55,0,0,1,.39-.13.391.391,0,0,1,.26.065l.195-.909h-.26A.736.736,0,0,0,309.683,157.238Zm2.923-.065a.227.227,0,0,0-.065-.13.463.463,0,0,0-.39-.195c-.065,0-.195-.065-.26-.065a1.144,1.144,0,0,0-.844.39,1.6,1.6,0,0,0-.325.974,1.8,1.8,0,0,0,.325,1.039,1.047,1.047,0,0,0,.844.39c.13,0,.195,0,.26-.065a.687.687,0,0,0,.455-.39v.325h.974v-2.663h-.974Zm-.13,1.429a.392.392,0,0,1-.39.195.463.463,0,0,1-.39-.195.861.861,0,0,1,0-.909.393.393,0,0,1,.39-.195.561.561,0,0,1,.39.195.548.548,0,0,1,.13.455A.4.4,0,0,1,312.476,158.6Zm3.053-1.754-.325,1.039-.065.26-.065.325v-.585l-.325-1.039h-.974l1.1,2.663h.715l1.1-2.663Zm2.338-.13a1.476,1.476,0,0,0-1.039.39,1.372,1.372,0,0,0-.39,1.039,1.332,1.332,0,0,0,1.364,1.364,2.337,2.337,0,0,0,.715-.13c.195-.13.325-.195.39-.325a.8.8,0,0,1,.13-.195.064.064,0,0,1,.065-.065l-.78-.26a.9.9,0,0,1-.195.26c-.13.065-.195.13-.325.13h-.065a.5.5,0,0,1-.325-.13,1.057,1.057,0,0,1-.195-.39H319.1v-.195a1.371,1.371,0,0,0-.39-1.039C318.646,156.914,318.322,156.719,317.867,156.719Zm0,1.169h-.52a.562.562,0,0,1,.195-.39.471.471,0,0,1,.65,0,.549.549,0,0,1,.13.39Zm1.754-2.273h.974v3.832h-.974Zm4.092,1.234h-1.1l-.26.39a.2.2,0,0,0-.065.13.239.239,0,0,1-.065.195.5.5,0,0,0-.13-.325l-.26-.39h-1.1l.974,1.234-1.039,1.429h1.1l.325-.52c.065-.065.065-.13.13-.195a.239.239,0,0,1,.065-.195.5.5,0,0,0,.13.325l.325.52h1.1l-1.039-1.429.909-1.169Zm1.819-.065h-.26a.687.687,0,0,0-.455.39v-.39h-.974v3.637h.974v-1.364a.872.872,0,0,0,.455.39c.065,0,.195.065.26.065a1.048,1.048,0,0,0,.845-.39,1.653,1.653,0,0,0,.325-1.039,1.6,1.6,0,0,0-.325-.974A1.235,1.235,0,0,0,325.532,156.784Zm.13,1.819a.393.393,0,0,1-.39.195.561.561,0,0,1-.39-.195.548.548,0,0,1-.13-.455.939.939,0,0,1,.13-.455.463.463,0,0,1,.39-.195.561.561,0,0,1,.39.195.86.86,0,0,1,0,.909Zm2.014-2.273h.13v.325h.39v-.325h.195V156h-.195v-1.1h-.455l-.13.195-.585.974v.26Zm0-.585.065-.13a.064.064,0,0,1,.065-.065.2.2,0,0,1,.065-.13c0,.065-.065.195-.065.26v.455h-.325Zm2.468.909-.65-.909.52-.844h-.455l-.52.779V154.9h-.455v1.754h.455v-.844l.52.844Zm-2.533.715h-.325v-.39h-.26v1.039h.26v-.455h.325v.455h.325v-1.039h-.325Zm1.1-.39h-.52v1.039h.39a.459.459,0,0,0,.52-.52.5.5,0,0,0-.13-.325A.9.9,0,0,1,328.715,156.979Zm0,.715a.239.239,0,0,1-.195.065h-.13v-.585h.065a.23.23,0,0,1,.26.26A.314.314,0,0,1,328.715,157.693Zm1.3-.39a.239.239,0,0,0-.065-.195c-.065-.065-.065-.065-.13-.065h-.585v1.039h.26v-.455l.26.455h.325l-.26-.455A.357.357,0,0,0,330.014,157.3Zm-.325.13a.227.227,0,0,1-.13.065h-.065v-.26h.065a.14.14,0,0,1,.13.13C329.754,157.368,329.689,157.368,329.689,157.433Z" transform="translate(-306.5 -154.9)" fill="#da233d"/>
      </g>
    </g>
  </g>
</svg>
