<svg xmlns="http://www.w3.org/2000/svg" xmlns:xlink="http://www.w3.org/1999/xlink" width="282" height="185" viewBox="0 0 282 185">
  <defs>
    <clipPath id="clip-path">
      <path id="Rectangle_3624" data-name="Rectangle 3624" d="M20,0H262a20,20,0,0,1,20,20V185a0,0,0,0,1,0,0H0a0,0,0,0,1,0,0V20A20,20,0,0,1,20,0Z" transform="translate(0.133 0.1)" fill="none" stroke="#707070" stroke-width="1"/>
    </clipPath>
  </defs>
  <g id="Mask_Group_176" data-name="Mask Group 176" transform="translate(-0.133 -0.1)" clip-path="url(#clip-path)">
    <path id="Path_21547" data-name="Path 21547" d="M0,0H283.678V63.748H0Z" transform="translate(-0.785 170.699)" fill="#afd295"/>
    <g id="redscreen5" transform="translate(-10.347 12.401)">
      <path id="Path_21453" data-name="Path 21453" d="M373.71,403.471l-73.22.113-45.4-.113h-4.58c-29.175-16.284-38.108-33.246-38.108-33.246,1.018-.283,75.708-15.662,126.142-12.213,4.014,2.544,9.16,4.749,14.248,7.294a70.738,70.738,0,0,1,8.255,4.749C370.318,376.388,377.329,385.435,373.71,403.471Z" transform="translate(-92.025 -244.806)" fill="#ffe1cb"/>
      <path id="Path_21454" data-name="Path 21454" d="M283.626,370.45l-268.4-.509s-14.418-23.8-8.82-49.7c3.279,2.262,7.068,3.845,9.442,2.035,3-2.318,11.591-9.16,18.15-14.361,4.467-3.506,7.972-6.333,7.972-6.333s3.675-3.505,6.05-2.544a9.362,9.362,0,0,1,3.11,2.544c1.074,1.131,2.035,2.205,2.6,1.979s4.58-4.3,9.216-8.877c4.976-4.862,10.686-10.234,13.739-11.987,0,0,2.827-2.884,5.937.4,1.583,1.7,4.014,6.05,6.728,11.308,6.276,12.1,14.022,28.836,16.4,28.609,3.392-.339,8.651-7.859,11.817-8.594s17.754,25.5,23.917,26.631c6.219,1.131,18.036-8.425,27.592-5.654,9.555,2.827,25.047,18.6,39.465,15.775,11.478-2.262,37.486-14.983,54.166-19,12.835,6.615,25.556,15.153,20.92,38.278Z" transform="translate(-1.941 -211.785)" fill="#f5ccad"/>
      <path id="Path_21455" data-name="Path 21455" d="M283.784,408.321l-38.561.339L210.337,409l-195.121-.565a81.444,81.444,0,0,1-9.273-26.857A68.076,68.076,0,0,1,5.1,370.1c24.708,1.866,71.75,15.492,84.811,17.81,14.814,2.6,65.53,5.258,80.909,9.386s31.719,2.827,39.974,1.527,34.207-1.131,42.688-6.106c5.315-3.11,17.923-5.484,18.545-4.184a53.836,53.836,0,0,1,2.94,7.972c.565-.226,1.074-.509,1.64-.678-.339-1.7-.792-4.862.226-6.106,1.414-1.7,2.262.848,2.092,3.109a6.529,6.529,0,0,1-.848,2.431,10.1,10.1,0,0,1,3.11-1.866,5.03,5.03,0,0,1,2.149.226,13.177,13.177,0,0,0-.961-2.883c-.792-1.64-3.845-2.657-6.106-3.562-1.979-.792-3.279-1.527-1.583-2.488,1.809-1.018,4.127-.056,5.993,1.187.113.056.226.17.339.226a26.413,26.413,0,0,1,2.827,7.689,35.824,35.824,0,0,1-.057,14.531Z" transform="translate(-1.929 -250.278)" fill="#f5ccad"/>
      <path id="Path_21456" data-name="Path 21456" d="M284.44,417.144l-38.561.339-34.886.339-45.4-.113h-4.58l-41.5-.113-103.639-.339A81.444,81.444,0,0,1,6.6,390.4c19.676,1.7,58.689,5.428,105.392,11.308,67.057,8.424,102,14.022,138.411,2.77,6.728-2.092,12.552-3.958,17.641-5.6q2.459-.763,4.749-1.527c1.47-.452,2.94-.9,4.3-1.357,1.527-.452,3-.9,4.41-1.3.113.057.226.17.339.226a26.407,26.407,0,0,1,2.827,7.689A39.517,39.517,0,0,1,284.44,417.144Z" transform="translate(-2.586 -259.101)" fill="#f5ccad"/>
      <path id="Path_21457" data-name="Path 21457" d="M285.062,428.089l-68.753.735-45.4-.113h-4.58l-41.5-.113-103.7-.4s-.113-.226-.452-.792c-.452-.792-1.131-2.149-1.979-3.958,11.082-3.845,30.984-11.7,49.869-5.654,28.157,9.046,141.125,10.46,161.141,6.785s45.4-9.047,52.639-2.318A7.026,7.026,0,0,1,285.062,428.089Z" transform="translate(-7.844 -270.046)" fill="#afd295"/>
      <path id="Path_21458" data-name="Path 21458" d="M16.372,403.948a3.254,3.254,0,0,0-.226-.4c-.452-.792-1.131-2.149-1.979-3.958-.226-.452-.452-.961-.678-1.47-.17-.4-.4-.848-.565-1.3-.057-.17-.113-.283-.17-.452a3.9,3.9,0,0,0-.17-.452c4.749-11.2,15.492-33.472,25.556-30.7C47.978,368.045,27.4,392.018,16.372,403.948Zm-6.5-15.492c-.283-.9-.509-1.809-.792-2.771-.226-.9-.452-1.809-.678-2.77,1.979-10.008,5.2-22.277,9.1-21.825C22.083,361.656,14.676,378.505,9.87,388.456Zm37.486,6.106c-3.336,1.753-13,6.219-21.2,9.951H18.8c7.011-6.5,19.224-16,29.966-15.888a2.123,2.123,0,0,1,2.092,1.753C51.088,391.4,50.466,392.923,47.356,394.563ZM285.222,404.4c-.057.226-.113.509-.17.792h-38.73a2.919,2.919,0,0,1,.339-.4c1.47-1.583,7.181-7.181,13.57-6.219,7.463,1.131,9.16-1.131,9.16-1.131a24.735,24.735,0,0,1,3.336-2.77c-5.145-1.922-14.587-5.711-10.234-6.5,4.071-.735,8.877,3.223,11.478,5.711.339-.17.679-.4,1.018-.566a31.273,31.273,0,0,0-6.163-7.18q-1.7-1.442-3.223-2.544a34.181,34.181,0,0,1-5.258-4.354c-4.184-4.749-.4-6.163-.4-6.163,5.032.226,8.764,3.562,11.534,7.746a36.843,36.843,0,0,1,2.149,3.845,53.833,53.833,0,0,1,2.94,7.972c.565-.226,1.074-.509,1.64-.679-.339-1.7-.792-4.862.226-6.106,1.414-1.7,2.262.848,2.092,3.11a6.53,6.53,0,0,1-.848,2.431,10.1,10.1,0,0,1,3.11-1.866,5.03,5.03,0,0,1,2.149.226,13.181,13.181,0,0,0-.961-2.884c-.792-1.64-3.845-2.657-6.106-3.562-1.979-.791-3.279-1.527-1.583-2.488,1.809-1.018,4.127-.057,5.993,1.187.113.057.226.169.339.226a26.406,26.406,0,0,1,2.827,7.689A39.216,39.216,0,0,1,285.222,404.4Z" transform="translate(-3.368 -246.358)" fill="#82b378"/>
      <path id="Path_21460" data-name="Path 21460" d="M176.135,361.448a2.463,2.463,0,0,1-.4.961c-.226.283-.565.792-.792,1.131a3.37,3.37,0,0,1-.565-2.544c.339-.17.622-.283.9-.4A1.559,1.559,0,0,1,176.135,361.448Z" transform="translate(-75.493 -246.15)" fill="#e8945b"/>
      <path id="Path_21461" data-name="Path 21461" d="M427.962,309.534s-4.41,21.542-2.375,23.577c1.979,1.979,13.061,6.106,15.605,5.145,2.488-.961,7.69-25.556,6.219-27.987-1.414-2.431-18.263-4.128-19.45-.735Z" transform="translate(-184.442 -223.128)" fill="#466eb6"/>
      <path id="Path_21462" data-name="Path 21462" d="M404.107,409.424s.283,2.488.283,2.884v.4l-.226.452-.057.17,1.47,2.092s5.937.113,6.106.113a8.873,8.873,0,0,0-.791-1.414s-1.979-1.47-2.318-2.544a7.837,7.837,0,0,1,.283-3.223ZM375.441,394.61s-2.092,1.3-2.431,1.583l-.339.283-.226.452-.057.17-2.544.113s-3.788-4.58-3.845-4.693,1.074.17,1.074.17a9.687,9.687,0,0,0,3.392-.057,15.892,15.892,0,0,0,3.11-2.431Z" transform="translate(-158.777 -259.014)" fill="#f7a491"/>
      <path id="Path_21463" data-name="Path 21463" d="M399.186,357,376.4,376.45l3.506,4.976s22.39-14.079,23.634-14.248,3.166.283,3.392,1.187.961,27.422.961,27.422H414l3.166-33.811Z" transform="translate(-163.299 -244.585)" fill="#1a2e35"/>
      <path id="Path_21464" data-name="Path 21464" d="M466.021,298.744c1.7-1.131,5.654-5.371,7.011-6.785a4.8,4.8,0,0,1,1.244-2.431c.735-.9,1.357-2.884,1.866-2.318s-.735,2.148-.17,2.205c.565,0,3.393-3.166,3.845-2.657s-2.431,3.336-1.923,3.336,2.827-2.827,3.449-2.092-3.053,3.11-2.714,3.505,2.658-1.187,3.166-.565c.509.565-3.223,1.979-2.94,1.979s2.431-.057,2.488.339c0,.452-5.484,1.187-6.106,2.035-1.414,2.262-3.958,6.446-6.559,8.255-3.166,2.262-10.46,6.955-10.46,6.955l-3.619-4.693c-.057,0,9.442-5.767,11.421-7.068Z" transform="translate(-197.284 -214.034)" fill="#f7a491"/>
      <path id="Path_21465" data-name="Path 21465" d="M491.909,293.2a2.369,2.369,0,0,1,.226.9,2.116,2.116,0,0,1-.735,1.753A3.836,3.836,0,0,0,491.909,293.2Z" transform="translate(-213.277 -216.858)" fill="#f48c7f"/>
      <path id="Path_21466" data-name="Path 21466" d="M405.442,287.187c-1.357-1.527-4.071-6.672-4.975-8.424a4.283,4.283,0,0,0-.566-2.658c-.509-1.074-.509-3.166-1.187-2.714-.622.4.17,2.318-.4,2.149-.565-.113-2.431-3.958-3-3.562s1.47,3.845.961,3.732-1.979-3.505-2.827-2.94c-.792.565,2.148,3.788,1.7,4.071s-2.262-1.809-2.884-1.357c-.678.452,2.6,2.771,2.318,2.657-.283-.057-2.375-.678-2.488-.283-.113.452,4.976,2.6,5.371,3.562.792,2.6,2.149,7.237,4.184,9.668,2.488,3,8.255,9.442,8.255,9.442l4.749-3.562C414.658,297.026,407.025,289,405.442,287.187Z" transform="translate(-170.12 -207.623)" fill="#f7a491"/>
      <path id="Path_21467" data-name="Path 21467" d="M402.257,280.1a2.291,2.291,0,0,0-.226,2.714A3.63,3.63,0,0,1,402.257,280.1Z" transform="translate(-174.286 -211.165)" fill="#f48c7f"/>
      <path id="Path_21468" data-name="Path 21468" d="M418.315,305l-4.24,5.541,5.315,7.859s-.509,5.824-1.244,7.69c-.735,1.809-5.145,9.329-5.145,9.329s10.686,6.559,21.2,5.6c0,0,2.94-15.209,3.788-16.623.848-1.47,8.82-8.707,8.82-8.707l-3.9-6.276-6.672,3.732s-12.269-1.979-12.835-2.544C422.725,309.976,418.315,305,418.315,305Z" transform="translate(-179.205 -221.986)" fill="#ff4f5b"/>
      <path id="Path_21469" data-name="Path 21469" d="M438.643,284.389s-4.127-2.205-5.541,1.414c0,0-3.732-.4-3.053,3.449,0,0-3.732,1.866-1.357,6.728,0,0-1.018,4.58,4.3,4.862a2.862,2.862,0,0,0,3.223,1.244c2.431-.4,3.053-1.018,3.053-1.018s4.3,1.244,5.6-2.657c0,0,2.94-.735.961-4.523,0,0,2.6-4.919-1.979-6.389C443.845,287.555,443.28,282.523,438.643,284.389Z" transform="translate(-185.681 -212.739)" fill="#f47458"/>
      <path id="Path_21470" data-name="Path 21470" d="M441.235,300.671c-.339.961-.113,1.866.565,2.092.622.226,1.413-.339,1.753-1.3s.113-1.866-.565-2.092C442.366,299.144,441.574,299.71,441.235,300.671ZM430.1,298.353c-.056,1.018.452,1.809,1.131,1.866s1.244-.735,1.3-1.753-.452-1.809-1.131-1.866C430.719,296.6,430.153,297.392,430.1,298.353Zm4.749,6.615c0,.057-.509,2.375-.848,3.619a.991.991,0,0,0,.565,1.131c1.131.509,3.393,1.244,4.919-.17a.842.842,0,0,0,.226-.509l-.17-5.484-4.693,1.414Z" transform="translate(-186.633 -218.336)" fill="#f7a491"/>
      <path id="Path_21471" data-name="Path 21471" d="M438,311.57a4.371,4.371,0,0,0,4.41-.4c.226-.113.4-.283.622-.4l-.057-1.979-4.636,1.47A3.874,3.874,0,0,0,438,311.57Z" transform="translate(-190.07 -223.638)" fill="#f48c7f"/>
      <path id="Path_21472" data-name="Path 21472" d="M439.3,288.849a6.014,6.014,0,0,1,3.223,2.544c1.188,1.979,1.866,7.69-2.431,10.234-4.3,2.488-7.407-1.357-7.294-5.032C432.911,292.864,434.551,288.171,439.3,288.849Z" transform="translate(-187.808 -214.938)" fill="#f7a491"/>
      <path id="Path_21473" data-name="Path 21473" d="M399.925,418.36c-.9-.113.679-3.279,1.187-3.788l6.672.9a20.922,20.922,0,0,1,3.958,2.261c.17.17.226.509-.565.622A62.258,62.258,0,0,1,399.925,418.36Zm-32.85-16.736c.792.452,2.205-2.6,2.318-3.279l-5.371-4.24s-4.184-1.187-4.976-.339C358.2,394.5,365.322,400.55,367.075,401.624Z" transform="translate(-155.727 -260.43)" fill="#466eb6"/>
      <g id="Group_6775" data-name="Group 6775" transform="translate(253.336 89.742)">
        <path id="Path_21474" data-name="Path 21474" d="M450.862,340.025c-4.3-4.3-3.449-17.528-2.657-23.125l1.866.283c-.678,4.749-1.583,17.867,2.148,21.542Z" transform="translate(-447.561 -316.9)" fill="#466eb6"/>
      </g>
      <g id="Group_6776" data-name="Group 6776" transform="translate(237.979 88.103)">
        <path id="Path_21475" data-name="Path 21475" d="M420.626,331.358l-.226-1.7A143.139,143.139,0,0,1,426.846,314l1.64.848A172.811,172.811,0,0,1,420.626,331.358Z" transform="translate(-420.4 -314)" fill="#466eb6"/>
      </g>
      <g id="Group_6777" data-name="Group 6777" transform="translate(149.94 56.318)">
        <path id="Path_21476" data-name="Path 21476" d="M307.7,310.722s-7.407-.961-10.121.4c-2.714,1.414-4.184,18.093-4.184,18.093l2.431.735s-.339,11.534,1.47,12.382c1.866.792,14.757-1.7,17.7-4.636s-2.6-27.592-2.6-27.592Z" transform="translate(-277.167 -280.521)" fill="#3c8f7c"/>
        <path id="Path_21477" data-name="Path 21477" d="M339.863,276.226c.848-1.922,1.979-7.972,2.318-10.008a5.361,5.361,0,0,1-.283-2.827c.17-1.244-.452-3.336.283-3.11.791.226.565,2.375,1.074,2.035s1.188-4.749,1.922-4.523-.226,4.354.226,4.071.9-4.128,1.866-3.845-.9,4.467-.4,4.636,1.7-2.544,2.488-2.318-1.753,3.619-1.47,3.449,2.148-1.47,2.375-1.074c.283.4-4.128,4.184-4.3,5.258.057,2.827.17,7.972-1.074,11.082-1.527,3.788-5.315,12.156-5.315,12.156l-5.88-2.092C333.756,289,338.845,278.544,339.863,276.226Z" transform="translate(-294.681 -257.785)" fill="#f7a491"/>
        <path id="Path_21478" data-name="Path 21478" d="M351.7,267.3a1.949,1.949,0,0,1,.678.679,2.519,2.519,0,0,1,.4,1.979A3.97,3.97,0,0,0,351.7,267.3Z" transform="translate(-302.504 -261.92)" fill="#f48c7f"/>
        <path id="Path_21479" data-name="Path 21479" d="M272.216,308.711a4.08,4.08,0,0,0-.4-2.544c-.4-1.018-.339-3-.961-2.657-.565.339.057,2.149-.452,1.979s-2.035-3.845-2.6-3.506c-.509.339,1.187,3.732.735,3.562s-1.64-3.392-2.431-2.94c-.735.452,1.753,3.675,1.357,3.958-.4.226-1.922-1.809-2.544-1.47-.622.4,2.262,2.714,1.979,2.658s-2.092-.792-2.205-.4c-.169.4,3.675,2.092,4.014,3s6.219,10.4,8.142,10.63,11.308-4.749,12.156-6.615.283-3.958-.961-4.354-10.008,4.58-10.4,4.467C277.3,314.365,272.216,308.711,272.216,308.711Z" transform="translate(-264.69 -276.984)" fill="#f7a491"/>
        <path id="Path_21480" data-name="Path 21480" d="M274.557,309.5a2.04,2.04,0,0,0-.452.848,2.349,2.349,0,0,0,.226,1.979A3.929,3.929,0,0,1,274.557,309.5Z" transform="translate(-268.728 -280.26)" fill="#f48c7f"/>
        <path id="Path_21481" data-name="Path 21481" d="M284.408,390.6a11.49,11.49,0,0,1-2.827-2.2,83.742,83.742,0,0,0-7.181,7.407,2.015,2.015,0,0,0,1.7.283c.792-.339,4.3-1.922,5.993-1.357.452.17,5.258,1.809,9.5,2.884.509-1.527-.9-4.58-.226-6.05C289.1,390.831,284.747,390.718,284.408,390.6Z" transform="translate(-268.91 -314.55)" fill="#f7a491"/>
        <path id="Path_21482" data-name="Path 21482" d="M282.04,388.943s-4.184,4.3-4.58,5.032c-.339.622-5.541,2.771-5.767,1.922-.283-.792,6.163-9.329,7.181-9.612S282.04,388.943,282.04,388.943Z" transform="translate(-267.73 -313.622)" fill="#07345a"/>
        <path id="Path_21483" data-name="Path 21483" d="M336.262,409.563A11.924,11.924,0,0,1,334,412.333a87.96,87.96,0,0,0,7.8,6.841,1.931,1.931,0,0,0,.283-1.64c-.4-.735-2.262-5.371-1.7-6.954a43.066,43.066,0,0,1,2.262-5.258,42.011,42.011,0,0,1-4.636-1.922c-.735,2.205-1.64,5.824-1.753,6.163Z" transform="translate(-294.812 -321.069)" fill="#f7a491"/>
        <path id="Path_21484" data-name="Path 21484" d="M329.295,355.6s10.912,10.743,11.987,12.835c.848,1.527-4.184,17.527-4.184,17.527s-4.749-.339-6.728-2.262c0,0,2.488-11.138,1.979-11.647s-12.948-7.746-12.948-7.746l1.527-6.615Z" transform="translate(-288.467 -300.295)" fill="#1a2e35"/>
        <path id="Path_21485" data-name="Path 21485" d="M317.52,353.753s-2.827,6.615-2.827,9.16c0,1.979.848,17.81-3.279,19.337-2.375.848-13.513-.4-13.513-.4l1.018-7.181s5.315.792,5.767.339-4.241-12.382-3.279-16.453,9.16-6.559,9.16-6.559Z" transform="translate(-279.123 -298.73)" fill="#1a2e35"/>
        <path id="Path_21486" data-name="Path 21486" d="M334.945,300.8s1.357.4,5.428,5.937l-6.559,10.4-4.014-9.668Z" transform="translate(-292.987 -276.479)" fill="#e1233d"/>
        <path id="Path_21487" data-name="Path 21487" d="M309.47,312.1a30.165,30.165,0,0,0,4.919-.9c1.3-.452,9.894,27.818,6.9,28.44-6.276,1.357-22.5,4.919-22.5,4.919a10.5,10.5,0,0,1,.565-4.41c1.527-4.806,2.375-15.888,2.375-17.867,0-1.131-5.937,2.827-5.937,2.827l-2.488-8.99s7.576-3.053,10.234-3.562c.735-.113,5.937-.452,5.937-.452Z" transform="translate(-277.124 -280.995)" fill="#e1233d"/>
        <path id="Path_21488" data-name="Path 21488" d="M334.859,329.907c-.961-4.636-9.046-18.489-9.159-18.6l1.64-.9c.283.565,6.841,12.269,7.859,17.132Z" transform="translate(-291.205 -280.651)" fill="#3c8f7c"/>
        <path id="Path_21489" data-name="Path 21489" d="M334.572,416.1s4.749,4.3,5.6,4.749c.679.339,2.318,5.428,1.414,5.711s-9.668-6.05-10.008-7.068C331.18,418.418,334.572,416.1,334.572,416.1Z" transform="translate(-293.744 -326.588)" fill="#07345a"/>
        <path id="Path_21490" data-name="Path 21490" d="M303.248,336.478l-.848-1.357c.056-.057,7.237-4.636,8.029-10.46.792-5.88-3.336-12.1-3.392-12.156l1.3-.9c.17.283,4.58,6.785,3.675,13.287C311.107,331.446,303.587,336.308,303.248,336.478Z" transform="translate(-281.079 -281.173)" fill="#3c8f7c"/>
        <path id="Path_21491" data-name="Path 21491" d="M312.251,278.992A4.117,4.117,0,0,1,317,280.858c1.866,2.883.848,2.657,1.753,4.071.9,1.47,3.279,1.131,3.279,3.392s-1.074,2.6-1.074,2.6a3.794,3.794,0,0,1-.113,3.562,6.772,6.772,0,0,1-5.88,3.11,10.174,10.174,0,0,1-6.615.961c-3.279-.848-2.149-.848-3.506-.848s-5.032-1.866-4.41-4.58c0,0-2.205-2.657-.057-4.806s2.544-4.354,3.845-7.237C305.466,278.2,310.724,278.314,312.251,278.992Z" transform="translate(-279.791 -266.828)" fill="#184655"/>
        <path id="Path_21492" data-name="Path 21492" d="M321.5,305.353s-.113,4.014.283,4.354a1.407,1.407,0,0,1,.339,1.922c-.565.961-2.94.339-4.071-.226a5.055,5.055,0,0,1-1.753-1.47l.565-6.332Z" transform="translate(-287.12 -277.696)" fill="#f7a491"/>
        <path id="Path_21493" data-name="Path 21493" d="M320.266,306.992A5.721,5.721,0,0,1,317.1,304.5l.057-.9,4.636,1.7a19.677,19.677,0,0,0,0,1.979A2.949,2.949,0,0,1,320.266,306.992Z" transform="translate(-287.467 -277.696)" fill="#b75742"/>
        <path id="Path_21494" data-name="Path 21494" d="M314.11,294.221s-.113-2.318-1.527-1.866-.339,4.014.848,3.9C314.619,296.087,314.11,294.221,314.11,294.221Z" transform="translate(-285.212 -272.784)" fill="#f7a491"/>
        <path id="Path_21495" data-name="Path 21495" d="M319.375,282.166a4.2,4.2,0,0,1,3.392,1.7c1.131,1.753,2.431,6.785.509,10.234s-4.354,2.6-5.315,2.262A5.833,5.833,0,0,1,314,292C312.985,288.724,313.721,281.487,319.375,282.166Z" transform="translate(-285.954 -268.361)" fill="#f7a491"/>
      </g>
      <g id="Group_6779" data-name="Group 6779" transform="translate(70.441 0)">
        <path id="Path_21496" data-name="Path 21496" d="M222.314,289.932a4.731,4.731,0,0,1-1.187-2.884c.17-.17.9-.057,1.131.057a3.664,3.664,0,0,0,.735.226c.226.113.452,0,.622-.283.113-.283-.678-.792-1.018-.961a39.322,39.322,0,0,0-4.241-1.018c-.339-.057-4.523-5.145-6.106-6.785-2.488-2.714-4.862-5.654-5.145-5.937L200.319,258.1l-6.219.452s7.294,15.944,7.746,16.679c.226.339,6.446,6.219,6.446,6.219,3.279,2.714,6.106,5.089,6.672,5.541a16.754,16.754,0,0,0,1.3,3.336c.509.792,5.937-.283,6.05-.4Z" transform="translate(-154.513 -201.604)" fill="#f48c7f"/>
        <path id="Path_21497" data-name="Path 21497" d="M196.41,238.495s4.749-.848,7.124,16.51l-8.142,2.262L192,248.107l4.41-9.612Z" transform="translate(-153.601 -193.08)" fill="#f47458"/>
        <path id="Path_21498" data-name="Path 21498" d="M216.6,338.8v8.99a3.161,3.161,0,0,0,3.166,3.166H239.5a3.161,3.161,0,0,0,3.166-3.166V338.8Z" transform="translate(-164.292 -236.675)" fill="#b75742"/>
        <path id="Path_21499" data-name="Path 21499" d="M241.591,348.738l1.074-.848v-.565l-1.47,1.131-1.527-1.187,1.527-1.244,1.47,1.131v-.565l-1.074-.848,1.074-.848v-.566l-1.47,1.131-1.527-1.187,1.527-1.244,1.47,1.131v-.565l-1.074-.848,1.074-.848v-.565l-1.47,1.131-1.527-1.187,1.527-1.244,1.47,1.131V340.6l-1.074-.848,1.074-.848h-.735l-.679.565-.735-.565h-.735l1.074.848-1.527,1.244L237.8,339.8l1.074-.848h-.735l-.735.565-.735-.565h-.735l1.074.848-1.527,1.244-1.527-1.187,1.074-.848H234.3l-.735.565-.735-.565h-.735l1.131.848L231.7,341.1l-1.527-1.187,1.131-.848h-.9l-.735.566-.735-.566h-.735l1.131.9-1.527,1.244-1.527-1.187,1.131-.9h-.735l-.735.622-.735-.622h-.735l1.131.9-1.527,1.244-1.527-1.187,1.131-.9h-.735l-.792.622-.792-.622h-.735l1.131.9-1.527,1.244-1.527-1.187,1.131-.9h-.735l-.792.622-.792-.622h-.735l1.187.9-1.187.9v1.187l1.187.9-1.187.9v1.131l1.187.9-1.187.961v1.131l1.187.961-.792.622a1.713,1.713,0,0,0,.283.4l.9-.735,1.527,1.187-.792.622a2.038,2.038,0,0,0,.622.113l.565-.452.565.452h.735l-.961-.735,1.527-1.244,1.527,1.187-.961.735h.735l.565-.452.565.452h.735l-.961-.735,1.527-1.244,1.527,1.188-.961.735h.735l.565-.452.565.452h.735l-.9-.961,1.527-1.244,1.527,1.187-.961.735h.735l.565-.452.622.452h.735l-.961-.735,1.527-1.244,1.527,1.187-.961.792h.735l.622-.452.622.452h.735l-.961-.792,1.527-1.244,1.527,1.187-.961.792h.735l.622-.509.565.452a1.674,1.674,0,0,0,.565-.113l-.792-.622,1.527-1.244.848.678a1.417,1.417,0,0,0,.226-.4Zm-.735-3.053-1.527,1.244-1.527-1.187,1.527-1.244Zm-20.411-1.414,1.527-1.244,1.527,1.187-1.527,1.244Zm1.187,1.47-1.527,1.244-1.583-1.244,1.527-1.244Zm2.318-1.187,1.527,1.187-1.527,1.244-1.527-1.187Zm.339-.339,1.527-1.244,1.527,1.187-1.527,1.244Zm3.505.283,1.527,1.187-1.527,1.244-1.527-1.187Zm.339-.283,1.527-1.244,1.527,1.187-1.527,1.244Zm3.449.283,1.527,1.187-1.527,1.244-1.527-1.187Zm.4-.283,1.527-1.244,1.527,1.187-1.527,1.244Zm3.449.283,1.527,1.187-1.527,1.244-1.527-1.187Zm.4-.283,1.527-1.244,1.527,1.187L237.35,345.4Zm3.449-2.714,1.527,1.187-1.527,1.244-1.527-1.187Zm-1.922-1.527,1.527,1.187-1.527,1.244-1.527-1.187Zm-1.922,1.527,1.527,1.187-1.527,1.244-1.527-1.187Zm-1.922-1.527,1.527,1.187-1.527,1.244-1.527-1.187Zm-1.922,1.527,1.527,1.187-1.527,1.244-1.527-1.187Zm-1.922-1.527,1.527,1.187-1.527,1.244-1.527-1.187Zm-1.922,1.527,1.527,1.187-1.527,1.244-1.527-1.187Zm-1.922-1.47,1.527,1.187-1.527,1.244-1.527-1.187Zm-1.866,1.47,1.527,1.187-1.527,1.244-1.527-1.187Zm-1.922-1.47,1.527,1.187-1.527,1.244-1.527-1.187Zm-1.922,1.47,1.527,1.187-1.527,1.244-1.527-1.187Zm-3.506-.283,1.527-1.244,1.527,1.187-1.527,1.244Zm0,3.053,1.527-1.244,1.527,1.187-1.527,1.244Zm1.583,4.184-1.527-1.187,1.527-1.244,1.527,1.187Zm1.922,1.527-1.527-1.187,1.527-1.244,1.527,1.187Zm1.922-1.527-1.527-1.187,1.527-1.244,1.527,1.187Zm1.922,1.527-1.527-1.187,1.527-1.244,1.527,1.187Zm1.922-1.527-1.527-1.187,1.527-1.244,1.527,1.187Zm1.922,1.527-1.527-1.187,1.527-1.244,1.527,1.187Zm1.922-1.527-1.527-1.187,1.527-1.244,1.527,1.187Zm1.922,1.47-1.527-1.187,1.527-1.244,1.527,1.187Zm1.922-1.47-1.527-1.187,1.527-1.244,1.527,1.187Zm1.922,1.47-1.527-1.187,1.527-1.244,1.527,1.187Zm1.922-1.47-1.527-1.187,1.527-1.244,1.527,1.187Zm1.922,1.47-1.527-1.187,1.527-1.244,1.527,1.187Z" transform="translate(-164.292 -236.719)" fill="#f48c7f"/>
        <path id="Path_21500" data-name="Path 21500" d="M241.683,335.845H213.922a.627.627,0,0,1-.622-.622v-2.6a.627.627,0,0,1,.622-.622h27.761a.627.627,0,0,1,.622.622v2.6A.564.564,0,0,1,241.683,335.845Z" transform="translate(-162.858 -233.72)" fill="#f47458"/>
        <path id="Path_21501" data-name="Path 21501" d="M229.7,331.9l5.937,6.276L240.5,331.9Z" transform="translate(-169.985 -233.677)" fill="#fae0b2"/>
        <path id="Path_21502" data-name="Path 21502" d="M239.466,326.048a.953.953,0,0,1-.961-.961v-4.354c0-3.845-2.77-7.689-6.333-7.689l-1.357-.057c-3.562,0-5.993,3.9-5.993,7.69v4.354a.961.961,0,0,1-1.922,0v-4.354a8.67,8.67,0,0,1,8.481-8.877h.679a8.706,8.706,0,0,1,8.481,8.877v4.354A1.1,1.1,0,0,1,239.466,326.048Z" transform="translate(-167.03 -224.941)" fill="#b75742"/>
        <path id="Path_21503" data-name="Path 21503" d="M240.336,334.574a.565.565,0,1,1-1.131,0,.565.565,0,0,1,1.131,0Zm-15.605-.509a.565.565,0,1,1-.565-.565A.606.606,0,0,1,224.731,334.065Z" transform="translate(-167.334 -234.372)" fill="#fae0b2"/>
        <path id="Path_21504" data-name="Path 21504" d="M232.837,310.666s-.509,3.166,1.018,3.562c1.527.339,4.919-.961,4.636-1.527-.339-.566-3.505-3-3.958-2.544C233.968,310.609,233.459,310.27,232.837,310.666Z" transform="translate(-171.313 -224.203)" fill="#f7a491"/>
        <g id="Group_6778" data-name="Group 6778">
          <path id="Path_21505" data-name="Path 21505" d="M180.347,205.8c-.9-5.993-6.333-10.29-12.043-7.407a13.932,13.932,0,0,0-3.9,3.11c-2.431,3.11-3,6.954-5.6,9.951-2.205,2.6-8.142,2.092-10.912,4.071a11.9,11.9,0,0,0-4.693,9.781c0,4.749,1.074,9.838,4.749,12.835a15.158,15.158,0,0,0,13.513,2.488,21.871,21.871,0,0,0,11.365-8.255,42.168,42.168,0,0,0,6.276-12.552A30.994,30.994,0,0,0,180.347,205.8Z" transform="translate(-132.393 -175.256)" fill="#184655"/>
          <path id="Path_21506" data-name="Path 21506" d="M185.072,238.264c-2.94-6.615-12.835-7.35-19.111-3.788-1.866,1.074-2.205.961-3.392,2.149-3.053,3.053-7.576,34.546,1.809,36.525s17.358,1.074,20.411-3.788c2.092-3.223,4.806-20.92.283-31.1Z" transform="translate(-139.153 -190.418)" fill="#f7cc7f"/>
          <path id="Path_21507" data-name="Path 21507" d="M206.1,415.8a47.352,47.352,0,0,1,.17,6.9c-.057.226-.113.509-.226.848-.339.961.565,3.845.565,3.845l11.873.056c.622,0,.226-.4-.339-.791a25.076,25.076,0,0,0-4.3-2.318c-.17-.056-.848-.509-1.074-.622a6.894,6.894,0,0,1-1.7-1.47c-.848-.961-1.018-5.541-1.018-5.541Z" transform="translate(-159.67 -270.139)" fill="#f7a491"/>
          <path id="Path_21508" data-name="Path 21508" d="M212.27,429.67a10.815,10.815,0,0,1-6.785-.17c-.339.961-.9,4.184-.565,4.184,3,0,5.484.565,14.022.452.283,0,.283-1.074.057-1.3C218.489,432.157,212.5,429.839,212.27,429.67Z" transform="translate(-159.17 -276.093)" fill="#355389"/>
          <path id="Path_21509" data-name="Path 21509" d="M179.8,298.564s.17,7.463,2.318,12.213c2.092,4.636,12.043,16.114,14.644,22.786-.792,3.788-3.053,9.046-2.884,13.23.17,4.749-.113,17.245-.113,17.245l5.315.17,7.011-32.341-10.573-34.885-4.806-8.481Z" transform="translate(-148.299 -214.815)" fill="#1a2e35"/>
          <path id="Path_21510" data-name="Path 21510" d="M133.456,402.7s-3.279,4.523-4.749,5.654c-.792.622-2.884,1.414-3.11,2.431s9.5,9.895,9.5,9.895c.509.452.452-.17.283-.848a26.935,26.935,0,0,0-1.809-4.863c-.057-.17-.339-.961-.4-1.244a8.035,8.035,0,0,1-.339-2.375c-.057-1.357,3.11-5.145,3.11-5.145l-2.488-3.506Z" transform="translate(-124.741 -264.446)" fill="#f7a491"/>
          <path id="Path_21511" data-name="Path 21511" d="M132.575,418.419a11.119,11.119,0,0,1-5.258-4.919c-.9.509-3.392,1.7-3.223,1.979,1.7,2.488,3.506,5.6,10.4,11.478.226.226,1.244-1.018,1.244-1.3.057-.9-3.11-6.955-3.166-7.237Z" transform="translate(-124.085 -269.14)" fill="#355389"/>
          <path id="Path_21512" data-name="Path 21512" d="M154.327,196.864s-6.954-12.439-8.651-15.1-6.106-13.174-6.276-13.57,3.053-5.371,2.318-5.541-1.527,2.6-2.262,2.262-3-7.068-3.449-6.728c-.791.622,1.187,4.184.792,4.41-.452.226-1.753-3.9-2.6-3.788s1.64,3.788,1.357,4.127c-.226.339-2.827-3.11-3.279-2.375-.226.4,2.375,3,1.866,3.279-.509.226-2.827-1.414-3.053-.961-.226.509,2.149,1.131,2.884,2.488.735,1.3,1.922,1.866,2.431,4.3s1.244,11.2,3.845,15.605c2.6,4.354,8.311,14.079,8.311,14.079Z" transform="translate(-127.122 -158.178)" fill="#f79c8d"/>
          <path id="Path_21513" data-name="Path 21513" d="M160.509,297.9s-4.127,6.219-5.089,11.308c-.961,4.976.622,20.072-1.018,27.083-2.827,2.6-7.689,5.654-9.951,9.216-2.544,4.014-9.951,14.078-9.951,14.078l4.3,3.223,24.256-22.5,9.838-30.023,3.392-8.764Z" transform="translate(-128.612 -218.9)" fill="#1a2e35"/>
          <path id="Path_21514" data-name="Path 21514" d="M180.217,235.487s-5.484-.339-7.633,1.979c-2.149,2.375,4.806,20.92,5.2,23.917s-3.223,8.933-3.223,8.933,15.04,7.011,18.715,4.58c0,0-.565-23.973-.961-26.122s-3.675-10.856-4.467-11.7C187,236.335,180.217,235.487,180.217,235.487Z" transform="translate(-144.984 -191.768)" fill="#ff4f5b"/>
          <path id="Path_21515" data-name="Path 21515" d="M188.076,222.513a1.565,1.565,0,0,0-.057.452,40.646,40.646,0,0,1-1.809,6.841c-.792,1.47,2.6,6.05,5.88,5.484.961-.17-.848-4.241-.735-4.636.17-.848.4-1.922.622-3.11.113-.678.283-1.3.4-1.922.339-1.753.622-3.223.622-3.223l-4.919.113Z" transform="translate(-151.034 -186.089)" fill="#f7a491"/>
          <path id="Path_21516" data-name="Path 21516" d="M189.37,222.965a2.564,2.564,0,0,0,.057-.452l4.862-.113s-.283,1.413-.622,3.223c-.113.622-.226,1.244-.4,1.922a4.345,4.345,0,0,1-2.318-1.187,6.079,6.079,0,0,1-1.753-2.6C189.257,223.418,189.313,223.192,189.37,222.965Z" transform="translate(-152.384 -186.089)" fill="#f47458"/>
          <path id="Path_21517" data-name="Path 21517" d="M191.286,202.988a4.322,4.322,0,0,0-3.732,1.583c-1.47,1.866-3,7.633.565,10.743s7.124-.4,7.633-4.184c.565-3.675.792-8.255-4.467-8.142Z" transform="translate(-150.964 -177.646)" fill="#f7a491"/>
          <path id="Path_21518" data-name="Path 21518" d="M203.7,215.814c-.452.848-1.131,1.3-1.583,1.018s-.509-1.131-.057-1.979,1.131-1.3,1.583-1.018C204.152,214.118,204.152,214.966,203.7,215.814Z" transform="translate(-157.837 -182.33)" fill="#f7a491"/>
          <path id="Path_21519" data-name="Path 21519" d="M189.946,201.941s-3.053,5.484-5.258,5.711-2.488,3.166-2.488,3.166.792-6.728,2.94-8.029A7.836,7.836,0,0,1,189.946,201.941Z" transform="translate(-149.342 -177.164)" fill="#184655"/>
          <path id="Path_21520" data-name="Path 21520" d="M185.828,213.317c.17.961-.17,1.866-.792,1.979s-1.3-.565-1.47-1.527.17-1.866.792-1.979S185.6,212.356,185.828,213.317Z" transform="translate(-149.917 -181.472)" fill="#f7a491"/>
          <path id="Path_21521" data-name="Path 21521" d="M164.628,219.4s7.69,8.255,8.877,11.591c1.131,3.336-1.131,8.085-4.241,8.312S159.2,224.6,159.2,224.6Z" transform="translate(-139.346 -184.785)" fill="#e1233d"/>
          <path id="Path_21522" data-name="Path 21522" d="M179.559,233a20.917,20.917,0,0,1,2.657,18.715,28.16,28.16,0,0,1-4.071,8.142c-2.544,3.392-4.58,4.3-4.41,4.184l-.735-1.47a9.292,9.292,0,0,0,2.262-1.809,22.55,22.55,0,0,0,4.749-7.689c4.41-11.252-1.809-18.376-1.866-18.658a.6.6,0,0,1-.113-.283Zm13.683,27.761a77.162,77.162,0,0,0-6.728-25.33l1.527-.113c.057.113,1.753,1.018,3.279,4.749a37.132,37.132,0,0,1,2.77,14.248A61.11,61.11,0,0,1,193.242,260.761Z" transform="translate(-145.343 -190.695)" fill="#f7cc7f"/>
        </g>
      </g>
      <g id="man_3_" transform="translate(22.972 3.336)">
        <path id="Path_21523" data-name="Path 21523" d="M125.629,252.336c-.848-1.7-4.467-3.9-4.693-4.071-2.431-3.845-7.916-12.835-8.538-13.8-.792-1.244-7.859-21.768-7.859-21.768L90.8,210.1s12.439,25.726,14.531,28.836c2.94,4.467,11.252,10.46,13.4,11.93a21.99,21.99,0,0,0,1.244,3.392,10.386,10.386,0,0,0,2.714,2.149c.17-.056.283-.226.113-.622s-1.018-1.527-.848-1.527,2.884,3.11,3.619,2.77C126.251,256.689,126.477,254.032,125.629,252.336Z" transform="translate(-62.15 -184.079)" fill="#e8945b"/>
        <path id="Path_21524" data-name="Path 21524" d="M68.831,203.824a41.706,41.706,0,0,0-14.7-3.845,10.215,10.215,0,0,0-10.4,6.954c-.057.283-.17.509-.226.792-2.035,7.294-.9,29.458,5.937,35.225,6.841,5.824,19.393,3.392,19.393,3.392Z" transform="translate(-41.199 -179.669)" fill="#233862"/>
        <path id="Path_21525" data-name="Path 21525" d="M106.668,297.1s-.735,9.16-1.583,20.185c-1.187,14.927-5.654,52.187-5.654,52.187s.961,1.47-3.619.509a92.913,92.913,0,0,1-6.785-27.309c0-.226-.057-.452-.057-.735C87.9,327.067,86.2,295.8,86.2,295.8l20.468,1.3Z" transform="translate(-60.151 -221.324)" fill="#1a2e35"/>
        <path id="Path_21526" data-name="Path 21526" d="M106.85,292.5s-.961,12.326-1.866,23.351L88.927,341.294c0-.226-.057-.452-.057-.735-1.074-14.87-2.77-46.137-2.77-46.137Z" transform="translate(-60.108 -219.89)" fill="#1f353a"/>
        <path id="Path_21527" data-name="Path 21527" d="M89.244,291.818,51.758,363.172s-3.506,1.583-3.958.226c0,0,3.336-32.68,9.16-40.031,3.279-4.128,7.181-16.566,7.35-20.92S65.5,289.5,65.5,289.5Z" transform="translate(-43.463 -218.586)" fill="#1a2e35"/>
        <path id="Path_21528" data-name="Path 21528" d="M54.813,427.561s-5.428.057-7.011-1.47a13.559,13.559,0,0,1-.792-2.035,2.151,2.151,0,0,0-1.47-1.187c-.735-.226-1.357-.226-2.035-.509-.509-.226-1.527-.679-2.035-.961-1.7-.961-1.3-1.527-1.3-1.527a9.844,9.844,0,0,0,.848-.848,3.233,3.233,0,0,0,.4-.452,8.621,8.621,0,0,0,1.753-2.431,2.324,2.324,0,0,1,.848-1.244,1.719,1.719,0,0,1,.792-.4s.622,2.375,1.753,2.092c2.262-.565,2.714-.509,2.77-.452,0,0,1.866,3.619,2.375,4.863a9.484,9.484,0,0,0,2.827,3.9,1.464,1.464,0,0,1,.4.622A1.835,1.835,0,0,1,54.813,427.561Z" transform="translate(-40.129 -272.91)" fill="#d57912"/>
        <path id="Path_21529" data-name="Path 21529" d="M54.813,430.69s-5.428.057-7.011-1.47a13.554,13.554,0,0,1-.792-2.036A2.151,2.151,0,0,0,45.541,426c-.735-.226-1.357-.226-2.035-.509-.509-.226-1.527-.678-2.035-.961-1.7-.961-1.3-1.527-1.3-1.527a9.841,9.841,0,0,0,.848-.848,3.235,3.235,0,0,0,.4-.452,3.455,3.455,0,0,0,1.979,2.431c1.866.735,3.845,1.979,4.41,2.94.565,1.018.961,1.866,2.092,2.262a14.335,14.335,0,0,0,4.3.4c.17-.057.339-.792.735-1.074A1.836,1.836,0,0,1,54.813,430.69Z" transform="translate(-40.129 -276.039)" fill="#c1650a"/>
        <path id="Path_21530" data-name="Path 21530" d="M100.565,431.385h2.262c.735-.113,1.3-.339,2.092-.452a1.97,1.97,0,0,1,1.809.452h9.555c.226-.339,0-1.131-.226-1.7a1.4,1.4,0,0,0-.9-.792,10.53,10.53,0,0,1-4.862-2.2c-1.018-.9-4.976-3.393-4.976-3.393-.113,0-.509.113-2.318,1.64-.9.792-2.488-1.131-2.488-1.131a2.163,2.163,0,0,0-.509.678,2.776,2.776,0,0,0-.226,1.47,9.623,9.623,0,0,1-.678,3.562c-.226.679-.4,1.131-.4,1.131S98.586,431.159,100.565,431.385Z" transform="translate(-65.583 -276.735)" fill="#d57912"/>
        <path id="Path_21531" data-name="Path 21531" d="M100.565,436.266h2.262c.735-.113,1.3-.4,2.092-.452a1.97,1.97,0,0,1,1.809.452h9.555c.226-.339,0-1.131-.226-1.7-.283-.283-.4,1.131-.509,1.357a45.421,45.421,0,0,1-8.255-.226,4.489,4.489,0,0,0-3.619-.452c-1.583.4-3.958-.622-4.58-.848-.226.679-.4,1.131-.4,1.131S98.586,436.04,100.565,436.266Z" transform="translate(-65.583 -281.559)" fill="#c1650a"/>
        <path id="Path_21532" data-name="Path 21532" d="M86.4,196.125s8.933,4.41,14.135,2.771a12.346,12.346,0,0,0-3.506-2.827c.113-.735.226-1.414.283-2.035a30.625,30.625,0,0,0,.283-3.506l-5.484-4.41L90.867,185.1a16.15,16.15,0,0,1-.17,2.94.34.34,0,0,1-.057.226A12.636,12.636,0,0,1,86.4,196.125Z" transform="translate(-60.238 -173.214)" fill="#ffb27d"/>
        <path id="Path_21533" data-name="Path 21533" d="M77.4,249.8c0,.565,1.131,1.187,1.64,1.413a39.617,39.617,0,0,0,6.672,2.431,27.6,27.6,0,0,0,4.806.848c4.806.509,10.46-.565,12.382-.565a.726.726,0,0,0,.565-.226c.113-.113.226-5.937.113-13.344v-1.018c0-2.884-.113-5.937-.283-8.933-.283-6.615-.792-13.061-1.7-16.566A17.54,17.54,0,0,0,96,204.9l-1.527-1.527a.477.477,0,0,0-.4-.113,8.318,8.318,0,0,1-5.428-.622c-2.035-1.018-4.3-2.092-4.636-1.866-4.241,3.166-6.389,12.552-6.333,23.238v1.018c0,1.074.057,2.205.113,3.336a142.765,142.765,0,0,1-.283,18.658c-.057,1.244-.113,2.148-.113,2.77Z" transform="translate(-56.327 -180.014)" fill="#e1233d"/>
        <path id="Path_21534" data-name="Path 21534" d="M114.943,259.3l-.792-.226a.726.726,0,0,0-.9.509l-.17.509a.726.726,0,0,0,.509.9l.792.226a.726.726,0,0,0,.9-.509l.17-.509A.751.751,0,0,0,114.943,259.3Z" transform="translate(-71.82 -205.352)" fill="#415da5"/>
        <path id="Path_21535" data-name="Path 21535" d="M112.269,261.241l-3.562-1.074a1.19,1.19,0,0,0-1.47.791l-2.771,9.329a1.19,1.19,0,0,0,.792,1.47l3.505,1.074a1.19,1.19,0,0,0,1.47-.792L113,262.711A1.08,1.08,0,0,0,112.269,261.241Z" transform="translate(-68.071 -205.819)" fill="#cadeff"/>
        <path id="Path_21536" data-name="Path 21536" d="M107.124,262.3l-2.657,8.933a1.19,1.19,0,0,0,.792,1.47l3.505,1.074a1.19,1.19,0,0,0,1.47-.792l2.6-8.764a6.709,6.709,0,0,0-2.6-.452C109.5,263.827,107.916,262.809,107.124,262.3Z" transform="translate(-68.071 -206.765)" fill="#86b1fc"/>
        <path id="Path_21537" data-name="Path 21537" d="M0,0H6.106V6.106H0Z" transform="translate(37.063 62.24) rotate(-73.459)" fill="#415da5"/>
        <path id="Path_21538" data-name="Path 21538" d="M77.4,260.207c0,.565,1.131,1.187,1.64,1.414a39.621,39.621,0,0,0,6.672,2.431c6.163-19.959-1.187-39.352-1.187-39.352l-6.785,10.8c0,1.074.057,2.205.113,3.336a142.754,142.754,0,0,1-.283,18.658Q77.4,259.275,77.4,260.207Z" transform="translate(-56.327 -190.424)" fill="#e1233d"/>
        <path id="Path_21539" data-name="Path 21539" d="M85.426,217.384c-2.205-1.3-6.672-3.675-10.347-4.071a1.193,1.193,0,0,1-.961-1.7c1.187-2.657,4.467-8.2,8.425-10.8.4-.226.678-.057,1.074.17,1.47.848,4.636,3.279,4.862,6.163.17,2.544-.679,7.011-1.244,9.442a1.193,1.193,0,0,1-1.809.792Z" transform="translate(-54.854 -179.999)" fill="#e1233d"/>
        <path id="Path_21540" data-name="Path 21540" d="M94,188.892l.057.057c.339.622,2.714,4.636,6.615,5.767a30.626,30.626,0,0,0,.283-3.506L95.47,186.8a14.788,14.788,0,0,0-1.414,1.922A.437.437,0,0,0,94,188.892Z" transform="translate(-63.541 -173.953)" fill="#e8945b"/>
        <path id="Path_21541" data-name="Path 21541" d="M101.266,183.531s-8.538,1.414-9.329-3.9-2.431-8.764,3-9.895,6.785.735,7.52,2.488C103.075,173.919,103.471,183.022,101.266,183.531Z" transform="translate(-62.269 -166.387)" fill="#ffb27d"/>
        <path id="Path_21542" data-name="Path 21542" d="M100.974,166.8c-1.753-.792-10.4-4.919-14.135-1.187-.057-.565-.057-1.244-.057-1.244a4.739,4.739,0,0,0-.452,1.7,1.612,1.612,0,0,0-.961-.452,1.252,1.252,0,0,1,.678.961c-3.675,5.484,1.922,11.025,2.657,11.874.792.9,1.244.622,1.244.622s1.414-1.866.735-3.11c0,0-1.131-1.131-.509-1.866.678-.735,1.018.4,1.527.339s1.47-1.527,1.527-2.94c.057-1.357,5.032.735,7.011.057C102.388,170.932,104.14,168.218,100.974,166.8Z" transform="translate(-59.546 -164.078)" fill="#2c3a64"/>
        <g id="Group_6780" data-name="Group 6780" transform="translate(20.564 22.234)">
          <path id="Path_21543" data-name="Path 21543" d="M77.122,231.106l-.283-1.64a14.5,14.5,0,0,0,9.555-5.654,18.182,18.182,0,0,0,3.449-8.425c.792-5.824-.735-9.159-4.693-10.177-3.562-.9-7.633,1.866-7.69,1.922l-.961-1.357c.17-.113,4.749-3.223,8.99-2.149,3.336.848,7.068,3.619,5.937,11.987a19.776,19.776,0,0,1-3.788,9.216A15.825,15.825,0,0,1,77.122,231.106Z" transform="translate(-76.5 -203.402)" fill="#233862"/>
        </g>
        <path id="Path_21544" data-name="Path 21544" d="M95.153,250.731c-.226-.792-3-.17-3.562-.735-.113-.113,1.3-.226,1.7-.339s.509-.283.452-.509a10.086,10.086,0,0,0-3.392-.622,17.892,17.892,0,0,0-2.544.9s-10.856-7.859-12.778-9.781c-1.414-1.357,6.785-12.552,6.615-12.665-2.205-1.3-6.672-3.732-10.347-4.071a.818.818,0,0,1-.4-.113c-2.488,5.428-5.089,12.552-5.6,19.619,0,0,9.216,9.047,20.92,10.573a38.206,38.206,0,0,0,6.389,1.018A2.629,2.629,0,0,0,95.153,250.731Z" transform="translate(-51.068 -189.598)" fill="#ffb27d"/>
      </g>
      <path id="Path_21545" data-name="Path 21545" d="M194.4,327l7.011-21.2C201.354,305.8,197.057,322.593,194.4,327Z" transform="translate(-84.202 -222.334)" fill="#1f353a"/>
      <g id="Group_6781" data-name="Group 6781" transform="translate(0 158.043)">
        <path id="Path_21546" data-name="Path 21546" d="M289.27,438.492-.217,438.378A.267.267,0,0,1-.5,438.1v-.113a.267.267,0,0,1,.283-.283l289.488.056a.267.267,0,0,1,.283.283v.113C289.553,438.378,289.44,438.492,289.27,438.492Z" transform="translate(0.5 -437.7)" fill="#233862"/>
      </g>
    </g>
  </g>
</svg>
