<svg xmlns="http://www.w3.org/2000/svg" xmlns:xlink="http://www.w3.org/1999/xlink" width="169" height="169" viewBox="0 0 169 169">
  <defs>
    <linearGradient id="linear-gradient" x1="0.413" y1="0.409" x2="0.751" y2="0.969" gradientUnits="objectBoundingBox">
      <stop offset="0" stop-color="#fff6ef"/>
      <stop offset="1" stop-color="#fee8e8"/>
    </linearGradient>
    <clipPath id="clip-path">
      <rect id="Rectangle_2200" data-name="Rectangle 2200" width="169" height="169" rx="84.5" transform="translate(-0.045 0)" fill="url(#linear-gradient)"/>
    </clipPath>
  </defs>
  <g id="Mask_Group_58" data-name="Mask Group 58" transform="translate(0.045 0)" clip-path="url(#clip-path)">
    <g id="redscreen4" transform="translate(3.854 25.084)">
      <rect id="Rectangle_2201" data-name="Rectangle 2201" width="143" height="32" transform="translate(12.102 111.916)" fill="#f5ccad"/>
      <path id="Path_21274" data-name="Path 21274" d="M101.585,111.613H47.4c.516-1.117,3.309-6.531,9.238-5.844,0,0,9.539-11.344,19.723-1.5,0,0,10.828-2.449,18.821,2.106a20.591,20.591,0,0,1,6.4,5.242Zm65.314,4.469s-1.8-4.383-6.317-4c0,0-6.445-7.391-13.535-1.16,0,0-7.391-1.676-12.934,1.16-3.7,1.891-4.942,3.91-4.942,3.91ZM156.285,91.546s-2.106-5.414-7.3-4.9c0,0-7.391-9.067-15.555-1.418,0,0-8.508-2.063-14.91,1.418-4.254,2.32-5.672,4.813-5.672,4.813l43.442.086Z" transform="translate(-27.032 -75.26)" fill="#fff"/>
      <path id="Path_21275" data-name="Path 21275" d="M267.668,274.737V243.455s-10.227-7.09-26.555-5.328v2.106H230.8v34.5Z" transform="translate(-131.626 -164.047)" fill="#ffe1cb" opacity="0.5"/>
      <path id="Path_21276" data-name="Path 21276" d="M189.843,221.932v28.962h38.544l-3.438-9.067.73-.6v-2.578h-.945V236.8l-4.684.215-2.879-8.594v-2.406h-3.824l-2.492-8.25v-2.148h-1.934l-1.074-6.531-1.461-.473a28.672,28.672,0,0,0-16.586,3.395Z" transform="translate(-108.244 -147.294)" fill="#ffe1cb"/>
      <path id="Path_21277" data-name="Path 21277" d="M199.905,226.351H197.8v-2.02a1.031,1.031,0,1,1,2.063,0Zm6.1,7.778h-3.18v-3.051a1.59,1.59,0,0,1,3.18,0Zm-5.027,0H197.8v-3.051a1.59,1.59,0,0,1,3.18,0Zm5.027,7.734h-3.18v-3.051a1.59,1.59,0,1,1,3.18,0Zm-5.027,0H197.8v-3.051a1.59,1.59,0,1,1,3.18,0Z" transform="translate(-112.806 -155.752)" fill="#ebf3fa"/>
      <path id="Path_21278" data-name="Path 21278" d="M284.768,269.684H280.6v-4a2.063,2.063,0,1,1,4.125,0Zm6.574,0h-4.168v-4a2.063,2.063,0,0,1,4.125,0Zm-6.574-9.625H280.6v-4a2.063,2.063,0,0,1,4.125,0Zm6.574,0h-4.168v-4a2.063,2.063,0,0,1,4.125,0Z" transform="translate(-160.027 -173.26)" fill="#ffe1cb"/>
      <g id="Group_6715" data-name="Group 6715" transform="translate(24.106 12.032)">
        <path id="Path_21279" data-name="Path 21279" d="M104.6,159.928H94.5l.3-1.031c2.363-8.336,3.137-41.423,3.137-41.724l-.3-.773h4.3l-.3.773a349.166,349.166,0,0,0,3.781,41.852l.129.9Z" transform="translate(-78 -106.818)" fill="#ffe1cb"/>
        <path id="Path_21280" data-name="Path 21280" d="M83.957,216.9H97.965v2.234H83.957ZM78.5,238.041h24.965v2.449H78.5Z" transform="translate(-68.875 -164.133)" fill="#ffe1cb"/>
        <path id="Path_21281" data-name="Path 21281" d="M72.858,220.6s-2.793,14.094-5.328,19.594h5.328s3.223-12.031,3.7-19.594Zm10.656,0s2.793,14.094,5.285,19.594H83.472s-3.223-12.031-3.7-19.594h3.738ZM65.682,242.643,56.1,259.917h5.586l9.453-17.274Zm25.008,0,9.539,17.317-5.586-.043-9.41-17.274Z" transform="translate(-56.1 -166.243)" fill="#ffe1cb"/>
        <path id="Path_21282" data-name="Path 21282" d="M103.12,281.561l-1.848-.086C99.511,277.135,94.311,274,88.21,274c-5.414,0-10.1,2.449-12.332,6.016l-2.277-.129S79.358,269.1,79.616,269.1s17.789.3,17.789.3Z" transform="translate(-66.08 -193.903)" fill="#ffe1cb"/>
        <g id="Group_6712" data-name="Group 6712" transform="translate(18.735 57.923)">
          <path id="Path_21283" data-name="Path 21283" d="M99.7,228.9h6.36v1.418H99.7Z" transform="translate(-99.7 -228.9)" fill="#ffe1cb"/>
        </g>
        <g id="Group_6713" data-name="Group 6713" transform="translate(19.637 6.875)">
          <path id="Path_21284" data-name="Path 21284" d="M101.8,112.764l.773-2.664h2.664l.816,2.664Z" transform="translate(-101.8 -110.1)" fill="#ffe1cb"/>
        </g>
        <g id="Group_6714" data-name="Group 6714" transform="translate(21.614)">
          <path id="Path_21285" data-name="Path 21285" d="M106.4,94.1h.3v7.863h-.3Z" transform="translate(-106.4 -94.1)" fill="#ffe1cb"/>
        </g>
      </g>
      <g id="Group_6718" data-name="Group 6718" transform="translate(61.618 5.371)">
        <path id="Path_21286" data-name="Path 21286" d="M143.4,161h19.981v13.407H143.4Z" transform="translate(-143.4 -125.593)" fill="#ffe1cb"/>
        <path id="Path_21287" data-name="Path 21287" d="M155,169.927a5.027,5.027,0,1,1,5.027,5.027A5.007,5.007,0,0,1,155,169.927Z" transform="translate(-150.016 -127.817)" fill="#fff4ee"/>
        <path id="Path_21288" data-name="Path 21288" d="M148.1,146.5h15.942v6.231H148.1Z" transform="translate(-146.08 -117.324)" fill="#ffe1cb"/>
        <path id="Path_21289" data-name="Path 21289" d="M148.1,135.322l2.965-8.422H161.12l2.922,8.422Z" transform="translate(-146.08 -106.146)" fill="#ffe1cb"/>
        <path id="Path_21290" data-name="Path 21290" d="M155,107.5h10.055v8.336H155Z" transform="translate(-150.016 -95.082)" fill="#ffe1cb"/>
        <path id="Path_21291" data-name="Path 21291" d="M159.327,78.6s-.9,8.25-5.027,12.418H165s-3.438-2.836-4.727-12.418Z" transform="translate(-149.616 -78.6)" fill="#ffe1cb"/>
        <path id="Path_21292" data-name="Path 21292" d="M157.011,118.725h-1.16v-3.566a.569.569,0,0,1,.559-.559h.043a.569.569,0,0,1,.559.559Zm2.277,0h-1.16v-3.566a.569.569,0,0,1,.559-.559h.043a.569.569,0,0,1,.559.559Zm2.406,0h-1.16v-3.566a.569.569,0,0,1,.559-.559h.043a.569.569,0,0,1,.559.559v3.566Zm-2.106,14.782h-1.461V130.37a.587.587,0,0,1,.6-.6h.258a.587.587,0,0,1,.6.6Zm2.492,0H160.62V130.37a.587.587,0,0,1,.6-.6h.258a.587.587,0,0,1,.6.6Zm2.363,0h-1.461V130.37a.587.587,0,0,1,.6-.6h.258a.587.587,0,0,1,.6.6Zm-7.52,0h-1.461V130.37a.587.587,0,0,1,.6-.6h.258a.587.587,0,0,1,.6.6Zm-2.664,0H152.8V130.37a.587.587,0,0,1,.6-.6h.258a.587.587,0,0,1,.6.6Z" transform="translate(-148.761 -99.131)" fill="#ffe1cb"/>
        <g id="Group_6716" data-name="Group 6716" transform="translate(0.688 48.857)">
          <path id="Path_21293" data-name="Path 21293" d="M145,192.3h18.262v3.781H145Z" transform="translate(-145 -192.3)" fill="#ffe1cb"/>
        </g>
        <g id="Group_6717" data-name="Group 6717" transform="translate(0.645 52.638)">
          <path id="Path_21294" data-name="Path 21294" d="M144.9,201.1h18.262v52.81H144.9Z" transform="translate(-144.9 -201.1)" fill="#ffe1cb"/>
        </g>
      </g>
      <g id="Group_6719" data-name="Group 6719" transform="translate(6.961 89.078)">
        <path id="Path_21295" data-name="Path 21295" d="M165.133,300.044,16.2,300.3s.773-11.86,11.989-11.774c0,0,7.52-7,21.7-4.3a20.007,20.007,0,0,1,19.379-10.785c8.852.516,16.8,10.828,16.8,10.828s8.379-11.559,23.375-1.5c0,0,7.606-4.469,15.039,0,0,0,6.617-2.234,10.528-.43,0,0,9.883-2.363,15.383,5.5.043,0,14.739.731,14.739,12.2" transform="translate(-16.2 -273.404)" fill="#f5ccad"/>
      </g>
      <g id="Group_6720" data-name="Group 6720" transform="translate(71.244 0)">
        <path id="Path_21296" data-name="Path 21296" d="M166.7,67.3h.3v5.586h-.3Z" transform="translate(-166.313 -66.784)" fill="#cadbfc"/>
        <path id="Path_21297" data-name="Path 21297" d="M165.8,66.616a.516.516,0,1,1,.516.516A.474.474,0,0,1,165.8,66.616Z" transform="translate(-165.8 -66.1)" fill="#cadbfc"/>
      </g>
      <g id="Group_6721" data-name="Group 6721" transform="translate(126.546 23.15)">
        <path id="Path_21298" data-name="Path 21298" d="M294.5,123.982s.945-2.363,3.223-2.106c0,0,3.309-3.91,6.789-.516,0,0,3.738-.859,6.489.73a6.3,6.3,0,0,1,2.449,2.148l-18.95-.258Z" transform="translate(-294.5 -119.975)" fill="#fff"/>
      </g>
      <g id="Group_6722" data-name="Group 6722" transform="translate(5.672 22.83)">
        <path id="Path_21299" data-name="Path 21299" d="M13.2,123.257s.945-2.363,3.266-2.106c0,0,3.352-3.953,6.918-.516,0,0,3.781-.859,6.574.73a7.008,7.008,0,0,1,2.492,2.191Z" transform="translate(-13.2 -119.231)" fill="#fff"/>
      </g>
      <g id="Group_6740" data-name="Group 6740" transform="translate(61.249 46.41)">
        <path id="Path_21300" data-name="Path 21300" d="M160.519,197.5s-6.016-1.246-9.754,1.332c-2.707,1.891-1.719,19.68.9,20.582s6.875.043,6.875.043Z" transform="translate(-146.313 -187.276)" fill="#233862"/>
        <path id="Path_21301" data-name="Path 21301" d="M196.273,211.343a5.133,5.133,0,0,1,.387-1.59c.258-.344.6-1.332.859-1.16.215.172-.086.859.086,1.074.215.215,2.148-.516,2.32-.258a1.152,1.152,0,0,1-.516,1.5c-.687.344-2.363,1.117-2.965,1.418C196.059,212.632,196.273,211.343,196.273,211.343ZM183.3,203.566s-.086,2.879.73,4.254,7.09,7.477,8.809,8.293c1.762.773,1.031-4.039.473-4.426C192.75,211.257,187.121,201.331,183.3,203.566Z" transform="translate(-165.782 -190.72)" fill="#ffb27d"/>
        <path id="Path_21302" data-name="Path 21302" d="M190.213,218.245s-1.977,3.352-3.781,4.469a1.585,1.585,0,0,1-.473.215c-2.02.773-5.844-.215-5.844-.215l-.516-1.332a26.162,26.162,0,0,1,3.438-.773c1.934-.3,3.867-6.145,5.887-7.391.945-.559,1.2,2.793,1.246,4.3C190.213,217.944,190.213,218.245,190.213,218.245Z" transform="translate(-163.675 -196.376)" fill="#ff4f5b"/>
        <path id="Path_21303" data-name="Path 21303" d="M198.654,223.668s-1.977,3.352-3.781,4.469a1.588,1.588,0,0,1-.473.215c.043-.043,1.934-2.063,2.02-3.266.086-1.246,1.031-2.578,1.934-2.406a.387.387,0,0,1,.258.258C198.654,223.368,198.654,223.668,198.654,223.668Z" transform="translate(-172.116 -201.799)" fill="#e1233d"/>
        <path id="Path_21304" data-name="Path 21304" d="M208.51,194.32a2.055,2.055,0,0,0-.645,2.879s-1.461-.258-1.762-.688a1.686,1.686,0,0,0,.086.258,3.911,3.911,0,0,1-1.762-.859c-.43-.559,1.719-7.262,5.2-5.5,0,0,3.18.6,1.934,4.125s-.086,3.824-.086,3.824a1.623,1.623,0,0,1-.516.043s-.215-.129-.215-.3a.968.968,0,0,0,.043.3,3.489,3.489,0,0,1-1.8-.859A3.931,3.931,0,0,1,208.51,194.32Z" transform="translate(-177.804 -183.236)" fill="#233862"/>
        <path id="Path_21305" data-name="Path 21305" d="M208.357,207.682Zm4.039-1.16c.043.43.086.816.129,1.031.043.43-3.91.129-4.168.129a11.535,11.535,0,0,0,.9-2.449c.215-.773.387-1.633.387-1.633l2.793.172h.172c-.086.387-.172.73-.215,1.074v.129A3.747,3.747,0,0,0,212.4,206.522Z" transform="translate(-180.057 -190.926)" fill="#ffb27d"/>
        <path id="Path_21306" data-name="Path 21306" d="M209.914,196.177a7.324,7.324,0,0,1-.344-2.535c.086-.773,1.2-3.481,3.91-2.32a3.721,3.721,0,0,1,1.418,1.031c.516.559,1.16,1.719-.473,3.867l-.473.773Z" transform="translate(-180.755 -183.762)" fill="#233862"/>
        <path id="Path_21307" data-name="Path 21307" d="M214.093,206.636A4.846,4.846,0,0,1,211.3,203.8a5.947,5.947,0,0,1,2.75,1.2v.129A4.5,4.5,0,0,0,214.093,206.636Z" transform="translate(-181.754 -191.041)" fill="#ed975d"/>
        <path id="Path_21308" data-name="Path 21308" d="M214.074,199.952s-3.566-.859-2.965-3.094c.6-2.191.516-3.781,2.793-3.352,2.277.473,2.492,1.418,2.492,2.191C216.395,196.514,215.02,200.124,214.074,199.952Z" transform="translate(-181.606 -185.13)" fill="#ffb27d"/>
        <path id="Path_21309" data-name="Path 21309" d="M215.445,193.255a3.72,3.72,0,0,0-2.32-1.848c-.9-.6-2.106.859-2.106.859a4.309,4.309,0,0,1-2.02,2.105,3.189,3.189,0,0,0,2.105.6,2.606,2.606,0,0,0,1.418-.516,8.234,8.234,0,0,1-1.891,1.375c1.891-.344,3.223-2.449,3.481-2.836a3.054,3.054,0,0,1,.516,1.2c.043.6-.215,1.762.129,1.848C214.8,196,216.176,194.372,215.445,193.255Z" transform="translate(-180.442 -183.89)" fill="#233862"/>
        <path id="Path_21310" data-name="Path 21310" d="M216.8,205.3s.043.344.258.43a2.509,2.509,0,0,0,.859.172c.043-.043.258-.3.258-.3A4.38,4.38,0,0,0,216.8,205.3Z" transform="translate(-184.891 -191.891)" fill="#fff"/>
        <path id="Path_21311" data-name="Path 21311" d="M204.974,268.9c-.043.172-.086.387-.129.559-.258,1.117-.516,2.148-.688,3.008a3.66,3.66,0,0,0,0,2.32c1.117,1.461,0,12.934,0,12.934l-1.246,1.289s-2.191-11.344-2.75-13.106a74.755,74.755,0,0,1-.988-7.777c0-.172-.043-.344-.043-.516-.043-.6-.129-1.246-.172-1.848-.3-3.309-.559-6.188-.559-6.188a10.924,10.924,0,0,1,4.426-1.8,2.615,2.615,0,0,1,2.965,1.8C206.607,261.811,205.748,265.635,204.974,268.9Z" transform="translate(-174.397 -221.808)" fill="#ffb27d"/>
        <path id="Path_21312" data-name="Path 21312" d="M206.722,269.731c-1.633-1.762-2.664-4.3-4.641-7.821a4.129,4.129,0,0,1,2.836-4.039,2.615,2.615,0,0,1,2.965,1.8C208.7,261.868,207.5,266.422,206.722,269.731Z" transform="translate(-176.488 -221.865)" fill="#ed975d"/>
        <path id="Path_21313" data-name="Path 21313" d="M210.7,211.433c-.516-.73-2.191-.73-2.578-.773-.258,0,.258-1.16-.258-1.289-.387-.129-.9.344-1.332.473a4.9,4.9,0,0,1-2.406-.473c-.215-.086-.473.3-.43.516.043.258-1.934.3-3.223,1.16-.73.473-.516,4.512-.516,4.512a41.668,41.668,0,0,0,.731,7.563c3.438,2.063,7.606.258,7.606.258a1.622,1.622,0,0,1-.043-.516c0-.086.086-.73.086-.816C208.383,221.875,211.133,212.035,210.7,211.433Z" transform="translate(-175.27 -194.205)" fill="#ff4f5b"/>
        <path id="Path_21314" data-name="Path 21314" d="M224.8,276.9l-.387,1.633s-11.43-5.887-12.891-7.047c-.6-.473-1.375-2.922-2.106-5.715-1.074-4.168-2.02-9.066-2.02-9.066s1.59-6.145,5.887-2.406c2.578,2.277,2.148,6.617,1.891,9.969-.172,2.277-.344,4.082.516,4.6,1.676.945,6.531,5.2,8.078,8.121Z" transform="translate(-179.53 -219.152)" fill="#ffb27d"/>
        <path id="Path_21315" data-name="Path 21315" d="M213.026,253.577s-1.117.3-2.793.688c-3.438.73-9.281,1.59-12.633.086,0,0,.215-4.942.816-8.637.473-2.965.9-4.941.9-4.941a16.519,16.519,0,0,0,6.274.172h.086a6.735,6.735,0,0,0,1.246-.344s2.363,3.438,3.61,5.8C211.35,248.077,213.026,253.577,213.026,253.577Z" transform="translate(-173.941 -212.028)" fill="#1a2e35"/>
        <path id="Path_21316" data-name="Path 21316" d="M224.347,306.915c-.043,0-.3-.086-.473-.473-.086-.258-.129-.43-.215-.687l-.387-.688c-.387-.516-.559-.387-.559-.387a2.223,2.223,0,0,1-.258.3,3.307,3.307,0,0,1-.945.816.747.747,0,0,0-.387.3,1.214,1.214,0,0,0-.129.258s.816.129.773.559c-.129.773-.129.945-.086.945,0,0,1.418.73,1.848.9a3.749,3.749,0,0,1,1.5,1.074.6.6,0,0,0,.387.129c.215-.043.473-.086.559-.215Zm-16.5,9.41-.687.387c-.258.086-.43.129-.688.215a1.219,1.219,0,0,0-.645.473c-.172.773-.473.773-.473.773h-2.707c-.129-.043.086-.6.215-.73.258-.258,1.031-.129,1.289-.9.172-.43.945-1.848.945-1.848a2.8,2.8,0,0,1,.945.129c.387.086.559-.731.559-.731a1.223,1.223,0,0,1,.258.129.936.936,0,0,1,.3.387,3.127,3.127,0,0,0,.773.945,2.22,2.22,0,0,0,.3.258S208.362,315.939,207.847,316.326Z" transform="translate(-176.797 -248.565)"/>
        <path id="Path_21317" data-name="Path 21317" d="M204.795,240.406c-2.32,0-3.266-.773-3.309-.859L201.4,238.3c.043,0,3.051,2.02,7.863.258l-.086.816a13.514,13.514,0,0,1-4.383,1.031Z" transform="translate(-176.108 -210.716)" fill="#e1233d"/>
        <path id="Path_21318" data-name="Path 21318" d="M219.5,210.292s7.863.258,9.41-.086A37.361,37.361,0,0,0,234.2,207.8l.559,1.031s-3.738,3.352-5.844,4a84.155,84.155,0,0,1-9.024,1.2Z" transform="translate(-186.43 -193.322)" fill="#ffb27d"/>
        <path id="Path_21319" data-name="Path 21319" d="M252.6,206.684h-1.117a.385.385,0,0,1-.387-.387v-3.91a.385.385,0,0,1,.387-.387H252.6a.385.385,0,0,1,.387.387v3.91A.385.385,0,0,1,252.6,206.684Z" transform="translate(-204.452 -190.014)" fill="#37547f"/>
        <path id="Path_21320" data-name="Path 21320" d="M253.4,206.684h-1.117a.385.385,0,0,1-.387-.387v-3.91a.385.385,0,0,1,.387-.387H253.4a.385.385,0,0,1,.387.387v3.91A.385.385,0,0,1,253.4,206.684Z" transform="translate(-204.908 -190.014)" fill="#152847"/>
        <path id="Path_21321" data-name="Path 21321" d="M255.556,204.355s-.945-.9-1.246-.559.473,2.149.816,2.234S255.943,205.128,255.556,204.355Z" transform="translate(-206.244 -190.994)" fill="#ffb27d"/>
        <path id="Path_21322" data-name="Path 21322" d="M250.3,201.075s.773.086.859-.344a6.446,6.446,0,0,0,.086-1.031s.043,1.246.344,1.332a2.037,2.037,0,0,0,.688.129,2.485,2.485,0,0,0-.73.215.942.942,0,0,0-.3.731,1.454,1.454,0,0,0-.3-.773A1.532,1.532,0,0,0,250.3,201.075Z" transform="translate(-203.996 -188.702)" fill="#fff"/>
        <path id="Path_21323" data-name="Path 21323" d="M218.451,210.918s5.8.73,7.133.344,5.113-1.762,5.672-1.5a2.469,2.469,0,0,1,.3,1.8,11.459,11.459,0,0,1-3.781,2.664c-1.848.559-7.692,1.031-8.164,2.879l-1.633-.988s-.773-4.383-.687-4.469C217.377,211.605,218.451,210.918,218.451,210.918Z" transform="translate(-185.167 -194.42)" fill="#ff4f5b"/>
        <g id="Group_6723" data-name="Group 6723" transform="translate(15.018 65.166)">
          <path id="Path_21324" data-name="Path 21324" d="M185.272,329.9H177.71c-.559-.387.129-3.953.129-3.953s2.063-.773,2.406.816,2.621,2.105,3.824,2.277A1.33,1.33,0,0,1,185.272,329.9Z" transform="translate(-177.491 -325.762)"/>
        </g>
        <g id="Group_6724" data-name="Group 6724" transform="translate(11.284 31.752)">
          <path id="Path_21325" data-name="Path 21325" d="M178.124,248s-.172,5.156-.559,10.227c-.559,6.918-2.02,24.106-2.02,24.106s-.945.816-3.094.387a66.785,66.785,0,0,1-2.32-12.375.732.732,0,0,0-.043-.3.945.945,0,0,0-.043-.344c-.258-3.438-.559-8.809-.816-13.321-.258-4.469-.43-8.078-.43-8.078Z" transform="translate(-168.8 -248)" fill="#1a2e35"/>
        </g>
        <g id="Group_6725" data-name="Group 6725" transform="translate(11.714 36.264)">
          <path id="Path_21326" data-name="Path 21326" d="M174.784,258.5,170.7,276.332a.731.731,0,0,0-.043-.3.946.946,0,0,0-.043-.344c-.258-3.438-.559-8.809-.816-13.321l.172-.773Z" transform="translate(-169.8 -258.5)" fill="#1f353a"/>
        </g>
        <g id="Group_6726" data-name="Group 6726" transform="translate(3.803 65.166)">
          <path id="Path_21327" data-name="Path 21327" d="M159.172,329.9H151.61c-.559-.387.129-3.953.129-3.953s2.063-.773,2.406.816,2.621,2.105,3.824,2.277A1.331,1.331,0,0,1,159.172,329.9Z" transform="translate(-151.391 -325.762)"/>
        </g>
        <g id="Group_6727" data-name="Group 6727" transform="translate(3.952 28.565)">
          <path id="Path_21328" data-name="Path 21328" d="M166.5,243.168s-5.414,13.449-7.133,18.563c-1.246,3.652-4.727,16.371-4.727,16.371a3.46,3.46,0,0,1-2.793-.43S151.163,265,153.182,261c1.633-3.266.344-20.239,5.973-20.411S166.5,243.168,166.5,243.168Z" transform="translate(-151.737 -240.582)" fill="#1a2e35"/>
        </g>
        <g id="Group_6728" data-name="Group 6728" transform="translate(7.368 10.923)">
          <path id="Path_21329" data-name="Path 21329" d="M172.713,211.675a47.181,47.181,0,0,0,.516,9.5c-1.676,1.8-11.516,2.578-13.449,1.074-.473-.344,1.031-2.965,1.246-8.164a50.808,50.808,0,0,0-.344-7c-.258-4.512-.73-5.5.258-6.059a17.235,17.235,0,0,1,5.844-1.461,10.479,10.479,0,0,1,3.137.258,11.512,11.512,0,0,1,1.16.3,7.948,7.948,0,0,1,2.965,1.418,26.638,26.638,0,0,1,2.707,3.438s-2.449,3.309-3.652,3.91a.042.042,0,0,0-.043.043,14.158,14.158,0,0,0-.344,2.75Z" transform="translate(-159.687 -199.525)" fill="#e1233d"/>
        </g>
        <g id="Group_6729" data-name="Group 6729" transform="translate(0 12.759)">
          <path id="Path_21330" data-name="Path 21330" d="M153.91,203.8s-2.879.3-4.125,1.332c-1.246.988-6.7,7.777-7.219,9.625s6.832,6.188,6.832,6.188l.559-1.332s-3.523-4.254-3.18-4.856C147.077,214.156,156.66,207.281,153.91,203.8Z" transform="translate(-142.54 -203.8)" fill="#ffb27d"/>
        </g>
        <g id="Group_6730" data-name="Group 6730" transform="translate(4.065 10.955)">
          <path id="Path_21331" data-name="Path 21331" d="M161.024,199.6s-3.48.43-5.242,1.848c-.816.645-3.781,4.254-3.781,4.254a5.327,5.327,0,0,0,4.9,3.7c4.168.43,4-6.488,4-6.488Z" transform="translate(-152 -199.6)" fill="#e1233d"/>
        </g>
        <g id="Group_6731" data-name="Group 6731" transform="translate(12.255 6.4)">
          <path id="Path_21332" data-name="Path 21332" d="M171.121,193.727a.6.6,0,0,0,.043.6c.43.473,1.5,1.289,4.082.816.859-.172.988-.816.387-1.418-.172-.129-.215-1.074-.258-1.461a11.462,11.462,0,0,0-.129-1.332l-1.977-.988L171.378,189a6.554,6.554,0,0,1-.258,4.727Z" transform="translate(-171.061 -189)" fill="#ffb27d"/>
        </g>
        <g id="Group_6732" data-name="Group 6732" transform="translate(13.003 7.302)">
          <path id="Path_21333" data-name="Path 21333" d="M172.8,192a5.945,5.945,0,0,0,3.567,1.418,11.48,11.48,0,0,0-.129-1.332l-1.977-.988Z" transform="translate(-172.8 -191.1)" fill="#ed985f"/>
        </g>
        <g id="Group_6733" data-name="Group 6733" transform="translate(11.135 1.491)">
          <path id="Path_21334" data-name="Path 21334" d="M174.575,184.289s-4.168,1.5-5.07-1.031-2.063-4.082.559-5.156,3.481-.3,4,.516C174.575,179.391,175.606,183.816,174.575,184.289Z" transform="translate(-168.453 -177.575)" fill="#ffb27d"/>
        </g>
        <g id="Group_6734" data-name="Group 6734" transform="translate(9.307)">
          <path id="Path_21335" data-name="Path 21335" d="M164.544,176.381c-.043-.043-.129-.043-.344-.043a.724.724,0,0,1,.344-.172,1.041,1.041,0,0,1,.516-1.031.641.641,0,0,0-.215.473c.43-.688,1.5-1.719,4.856-1.461,4.082.3,3.266,2.02,2.535,2.578-.516.387-1.59.043-2.621.3-1.031.3-.945,1.848-1.246,2.106s-.258-.129-.773-.258-.43.688-.172,1.16-.3,1.289-.3,1.289l-.816-.6c-.816-.6-2.02-3.524-1.8-4.211A.188.188,0,0,0,164.544,176.381Z" transform="translate(-164.2 -174.106)" fill="#2c3a64"/>
        </g>
        <g id="Group_6735" data-name="Group 6735" transform="translate(15.796 6.391)">
          <path id="Path_21336" data-name="Path 21336" d="M180.933,188.988a.929.929,0,0,1-.645.688,1.249,1.249,0,0,1-.988-.215A2.979,2.979,0,0,1,180.933,188.988Z" transform="translate(-179.3 -188.979)" fill="#fff"/>
        </g>
        <g id="Group_6736" data-name="Group 6736" transform="translate(31.48 26.845)">
          <path id="Path_21337" data-name="Path 21337" d="M217.347,236.588s-1.848.945-1.5,1.719,1.547.559,1.891,0C218.078,237.792,217.734,236.46,217.347,236.588Z" transform="translate(-215.801 -236.58)" fill="#ffb27d"/>
        </g>
        <g id="Group_6737" data-name="Group 6737" transform="translate(6.901 28.173)">
          <path id="Path_21338" data-name="Path 21338" d="M159.116,240.07s1.719-.687,2.363-.258c.645.387,1.418,2.106.9,2.148-.516.086-1.676-.73-1.934-.559s-1.117,1.031-1.848,0Z" transform="translate(-158.6 -239.671)" fill="#ffb27d"/>
        </g>
        <g id="Group_6738" data-name="Group 6738" transform="translate(8.577 11.041)">
          <path id="Path_21339" data-name="Path 21339" d="M163.7,200.23s3.309,6.488-1.16,10.227l-.043,1.762a8.192,8.192,0,0,0,3.652-4.469c1.117-3.7-.645-7.949-.645-7.949Z" transform="translate(-162.5 -199.8)" fill="#233862"/>
        </g>
        <g id="Group_6739" data-name="Group 6739" transform="translate(17.558 11.17)">
          <path id="Path_21340" data-name="Path 21340" d="M186.236,212a83.11,83.11,0,0,0-2.836-11.9,11.5,11.5,0,0,1,1.16.3,26.269,26.269,0,0,1,2.02,8.293v.43A11.218,11.218,0,0,1,186.236,212Z" transform="translate(-183.4 -200.1)" fill="#233862"/>
        </g>
      </g>
      <g id="Group_6741" data-name="Group 6741" transform="translate(130.484 108.449)">
        <path id="Path_21341" data-name="Path 21341" d="M310.341,325.8h-6.574c-.344-.3.258-.988.859-1.031a4.791,4.791,0,0,1,.988.129c.086-1.2.6-6.617,2.578-6.4,2.192.258,0,2.363-.6,3.652a25.441,25.441,0,0,0-1.16,2.922c.172.043.344.086.559.129.3-.9,1.375-3.91,2.75-3.738,1.633.215.945,1.418-.172,2.106-.859.516-1.891,1.289-2.363,1.633a4.351,4.351,0,0,0,1.289.086,2.893,2.893,0,0,1,1.848.516Z" transform="translate(-303.666 -318.486)" fill="#82b378"/>
      </g>
      <g id="Group_6742" data-name="Group 6742" transform="translate(40.901 109.012)">
        <path id="Path_21342" data-name="Path 21342" d="M98.543,326.113c-.344-.559-1.375-1.934-2.75-1.762-1.5.215,1.676,1.2,2.621,1.762a1.77,1.77,0,0,1-.516-.043,3.575,3.575,0,0,0-2.106.387h6.145a1.142,1.142,0,0,0-.43-.559,1.027,1.027,0,0,0-.559-.043c.387-.43.6-1.8-.387-1.461-.73.258-.73,1.117-.688,1.59-.172.043-.3.043-.473.086-.3-1.547-1.375-6.145-3.566-6.274-2.234-.129,1.891,4.727,3.266,6.317a1.19,1.19,0,0,0-.559,0Z" transform="translate(-95.185 -319.794)" fill="#82b378"/>
      </g>
      <g id="Group_6748" data-name="Group 6748" transform="translate(108.198 104.697)">
        <path id="Path_21343" data-name="Path 21343" d="M260.23,322.132a3.258,3.258,0,0,0,1.633-.086,3.519,3.519,0,0,0-1.117-1.2.716.716,0,0,0-.9.387A.7.7,0,0,0,260.23,322.132Zm3.18.6a3.46,3.46,0,0,0-.215,1.633,3.745,3.745,0,0,0,1.375-.945.689.689,0,0,0-.215-.945A.758.758,0,0,0,263.41,322.734Zm-1.676,2.492a3.08,3.08,0,0,0,1.633-.215,3.845,3.845,0,0,0-1.2-1.117.7.7,0,0,0-.43,1.332Z" transform="translate(-256.363 -316.053)" fill="#82b378"/>
        <path id="Path_21344" data-name="Path 21344" d="M266.319,327.131c0-.043-.129-2.879-1.719-4.34l.043-.043c1.59,1.5,1.719,4.34,1.719,4.383Zm5.2-4.211a2.281,2.281,0,0,1-1.117.172,2.869,2.869,0,0,1,.6-.988.473.473,0,0,1,.645.129A.527.527,0,0,1,271.518,322.92Zm-2.063.859a2.06,2.06,0,0,1,.344,1.074,3.236,3.236,0,0,1-1.074-.43.487.487,0,0,1,.731-.645Zm1.461,1.418a2.245,2.245,0,0,1-1.16.086,2.094,2.094,0,0,1,.688-.945.485.485,0,0,1,.645.172A.458.458,0,0,1,270.917,325.2Z" transform="translate(-259.1 -316.755)" fill="#82b378"/>
        <path id="Path_21345" data-name="Path 21345" d="M272.009,321.121a5.065,5.065,0,0,1,.559-3.18h-.043A4.636,4.636,0,0,0,272.009,321.121Zm-1.547.688h-.086a29.561,29.561,0,0,0-1.977-8.766l.086-.043A30.091,30.091,0,0,1,270.463,321.809Z" transform="translate(-261.267 -311.605)" fill="#82b378"/>
        <path id="Path_21346" data-name="Path 21346" d="M265.841,310.843a2.686,2.686,0,0,0,1.16.516,3.247,3.247,0,0,0-.344-1.2.535.535,0,0,0-.816.688Z" transform="translate(-259.739 -309.878)" fill="#fff"/>
        <path id="Path_21347" data-name="Path 21347" d="M268.827,309.945a2.4,2.4,0,0,0-.258,1.246,2.877,2.877,0,0,0,1.117-.6.536.536,0,0,0-.086-.73A.579.579,0,0,0,268.827,309.945Z" transform="translate(-261.351 -309.753)" fill="#fff"/>
        <path id="Path_21348" data-name="Path 21348" d="M269.944,312.473a2.6,2.6,0,0,0-1.246.215c-.043.086.688.73.945.816a.526.526,0,0,0,.645-.387A.535.535,0,0,0,269.944,312.473Z" transform="translate(-261.436 -311.293)" fill="#fff"/>
        <path id="Path_21349" data-name="Path 21349" d="M268.674,314.074A2.715,2.715,0,0,0,268.03,313a2.957,2.957,0,0,0-.43,1.2.519.519,0,0,0,.559.473C268.5,314.59,268.717,314.332,268.674,314.074Z" transform="translate(-260.811 -311.605)" fill="#fff"/>
        <path id="Path_21350" data-name="Path 21350" d="M265.809,313.913a2.494,2.494,0,0,0,.773-.988,2.15,2.15,0,0,0-1.246.086.509.509,0,0,0,.473.9Z" transform="translate(-259.363 -311.53)" fill="#fff"/>
        <path id="Path_21351" data-name="Path 21351" d="M268.2,312.714a.177.177,0,1,1,.129.215C268.243,312.928,268.2,312.843,268.2,312.714Z" transform="translate(-261.153 -311.362)" fill="#163560"/>
        <path id="Path_21352" data-name="Path 21352" d="M262.878,321.085a3.575,3.575,0,0,0-.473,1.891,4.35,4.35,0,0,0,1.762-.859.825.825,0,0,0-.129-1.16A.816.816,0,0,0,262.878,321.085Zm-5.629,5.672h-.086a20.91,20.91,0,0,0-2.062-5.629l.043-.043A18.653,18.653,0,0,1,257.248,326.757Z" transform="translate(-253.682 -316.037)" fill="#82b378"/>
        <path id="Path_21353" data-name="Path 21353" d="M253.25,320.294a2.509,2.509,0,0,0,.816.258,1.945,1.945,0,0,0-.344-.774.3.3,0,0,0-.473.043c-.172.086-.129.344,0,.473Z" transform="translate(-252.562 -315.418)" fill="#fff"/>
        <path id="Path_21354" data-name="Path 21354" d="M255.264,319.351a2,2,0,0,0-.086.816,1.679,1.679,0,0,0,.688-.516.346.346,0,0,0-.129-.473.408.408,0,0,0-.473.172Z" transform="translate(-253.717 -315.12)" fill="#fff"/>
        <path id="Path_21355" data-name="Path 21355" d="M256.116,320.993a1.415,1.415,0,0,0-.816.258,1.721,1.721,0,0,0,.688.43.342.342,0,0,0,.387-.3A.3.3,0,0,0,256.116,320.993Z" transform="translate(-253.796 -316.16)" fill="#fff"/>
        <path id="Path_21356" data-name="Path 21356" d="M255.478,322.141c-.043-.172-.473-.687-.516-.645a1.93,1.93,0,0,0-.172.816.358.358,0,0,0,.43.258A.328.328,0,0,0,255.478,322.141Z" transform="translate(-253.502 -316.449)" fill="#fff"/>
        <path id="Path_21357" data-name="Path 21357" d="M253.473,322.216a1.674,1.674,0,0,0,.43-.73,1.552,1.552,0,0,0-.816.172.34.34,0,1,0,.387.559Z" transform="translate(-252.442 -316.438)" fill="#fff"/>
        <path id="Path_21358" data-name="Path 21358" d="M254.985,321.329a.129.129,0,1,1,.129.129C255.028,321.458,254.942,321.415,254.985,321.329Z" transform="translate(-253.61 -316.281)" fill="#163560"/>
        <g id="Group_6743" data-name="Group 6743" transform="translate(2.906 7.04)">
          <path id="Path_21359" data-name="Path 21359" d="M258.751,326.378a3.031,3.031,0,0,0-.172,1.289,2.515,2.515,0,0,0,1.074-.731.5.5,0,0,0-.172-.73.558.558,0,0,0-.73.172Z" transform="translate(-258.564 -326.136)" fill="#82b378"/>
        </g>
        <g id="Group_6744" data-name="Group 6744" transform="translate(14.309 2.469)">
          <path id="Path_21360" data-name="Path 21360" d="M285.1,323.32h.086a25.441,25.441,0,0,1,1.762-7.777l-.086-.043A25.958,25.958,0,0,0,285.1,323.32Z" transform="translate(-285.1 -315.5)" fill="#82b378"/>
        </g>
        <g id="Group_6745" data-name="Group 6745" transform="translate(14.626 1.191)">
          <path id="Path_21361" data-name="Path 21361" d="M290.124,313.5a2.685,2.685,0,0,1-1.031.473,2.752,2.752,0,0,1,.344-1.074.47.47,0,0,1,.645-.043A.431.431,0,0,1,290.124,313.5Z" transform="translate(-287.691 -312.651)" fill="#fff"/>
          <path id="Path_21362" data-name="Path 21362" d="M287.533,312.686a1.829,1.829,0,0,1,.215,1.074,3.123,3.123,0,0,1-.988-.516.431.431,0,0,1,.086-.645A.564.564,0,0,1,287.533,312.686Z" transform="translate(-286.303 -312.526)" fill="#fff"/>
          <path id="Path_21363" data-name="Path 21363" d="M286.166,314.973a2.649,2.649,0,0,1,1.117.172,2.529,2.529,0,0,1-.859.731.43.43,0,0,1-.559-.344A.436.436,0,0,1,286.166,314.973Z" transform="translate(-285.838 -313.91)" fill="#fff"/>
          <path id="Path_21364" data-name="Path 21364" d="M287.893,316.343c.043-.258.473-.988.559-.945a2.106,2.106,0,0,1,.344,1.074.51.51,0,0,1-.516.43A.555.555,0,0,1,287.893,316.343Z" transform="translate(-287.007 -314.162)" fill="#fff"/>
          <path id="Path_21365" data-name="Path 21365" d="M289.884,316.24a2.392,2.392,0,0,1-.687-.9,2.518,2.518,0,0,1,1.117.043.533.533,0,0,1,.215.645A.454.454,0,0,1,289.884,316.24Z" transform="translate(-287.752 -314.103)" fill="#fff"/>
          <path id="Path_21366" data-name="Path 21366" d="M289.2,315.229c0-.086-.086-.129-.172-.129s-.129.086-.129.172.086.129.172.129S289.2,315.315,289.2,315.229Z" transform="translate(-287.584 -313.994)" fill="#163560"/>
        </g>
        <g id="Group_6746" data-name="Group 6746" transform="translate(12.808 6.632)">
          <path id="Path_21367" data-name="Path 21367" d="M282.892,325.451a3.683,3.683,0,0,1,.43,1.676,3.683,3.683,0,0,1-1.547-.773.742.742,0,0,1,.086-1.031A.787.787,0,0,1,282.892,325.451Z" transform="translate(-281.606 -325.188)" fill="#82b378"/>
        </g>
        <g id="Group_6747" data-name="Group 6747" transform="translate(0 9.037)">
          <path id="Path_21368" data-name="Path 21368" d="M251.8,332.81a2.531,2.531,0,0,1,2.32-1.418c1.8-.086,3.051.988,4.555.516,1.5-.516,4-1.633,6.317-.859,2.363.73,2.75,1.762,2.75,1.762H251.8Z" transform="translate(-251.8 -330.784)" fill="#82b378"/>
        </g>
      </g>
      <g id="Group_6751" data-name="Group 6751" transform="translate(47.078 105.16)">
        <path id="Path_21369" data-name="Path 21369" d="M115.206,323.367h-.086a31.215,31.215,0,0,0-2.02-9.024l.086-.043A30.138,30.138,0,0,1,115.206,323.367Z" transform="translate(-111.58 -312.809)" fill="#82b378"/>
        <path id="Path_21370" data-name="Path 21370" d="M110.413,311.886a2.528,2.528,0,0,0,1.2.516,2.888,2.888,0,0,0-.387-1.246.548.548,0,0,0-.816.73Z" transform="translate(-109.967 -310.911)" fill="#fff"/>
        <path id="Path_21371" data-name="Path 21371" d="M113.427,311.033a2.562,2.562,0,0,0-.258,1.246,2.876,2.876,0,0,0,1.117-.6.561.561,0,0,0-.129-.773A.6.6,0,0,0,113.427,311.033Z" transform="translate(-111.606 -310.831)" fill="#fff"/>
        <path id="Path_21372" data-name="Path 21372" d="M114.587,313.674a2.683,2.683,0,0,0-1.289.215c-.043.086.688.731.988.816a.493.493,0,0,0,.645-.387A.472.472,0,0,0,114.587,313.674Z" transform="translate(-111.691 -312.441)" fill="#fff"/>
        <path id="Path_21373" data-name="Path 21373" d="M113.37,315.317a2.937,2.937,0,0,0-.645-1.117,2.619,2.619,0,0,0-.43,1.2.535.535,0,0,0,.6.473A.5.5,0,0,0,113.37,315.317Z" transform="translate(-111.119 -312.752)" fill="#fff"/>
        <path id="Path_21374" data-name="Path 21374" d="M110.352,315.156a2.58,2.58,0,0,0,.773-1.031,2.3,2.3,0,0,0-1.289.086.538.538,0,0,0,.516.945Z" transform="translate(-109.562 -312.678)" fill="#fff"/>
        <path id="Path_21375" data-name="Path 21375" d="M112.8,314.014a.177.177,0,1,1,.129.215A.236.236,0,0,1,112.8,314.014Z" transform="translate(-111.409 -312.566)" fill="#f78248"/>
        <g id="Group_6749" data-name="Group 6749" transform="translate(2.623 2.657)">
          <path id="Path_21376" data-name="Path 21376" d="M116.2,317.309a4.468,4.468,0,0,0-.516,1.934,4.125,4.125,0,0,0,1.8-.9.786.786,0,0,0-.129-1.16.867.867,0,0,0-1.16.129Z" transform="translate(-115.665 -317.014)" fill="#82b378"/>
        </g>
        <g id="Group_6750" data-name="Group 6750" transform="translate(1.556 7.241)">
          <path id="Path_21377" data-name="Path 21377" d="M114.05,327.733A3.036,3.036,0,0,1,115,328.85a2.843,2.843,0,0,1-1.461-.043.632.632,0,0,1-.3-.816A.676.676,0,0,1,114.05,327.733Z" transform="translate(-113.184 -327.682)" fill="#82b378"/>
        </g>
      </g>
      <g id="Group_6754" data-name="Group 6754" transform="translate(51.993 103.594)">
        <path id="Path_21378" data-name="Path 21378" d="M124.8,321.6h.129a35.162,35.162,0,0,1,2.32-10.356l-.086-.043A34.878,34.878,0,0,0,124.8,321.6Z" transform="translate(-123.167 -309.476)" fill="#82b378"/>
        <path id="Path_21379" data-name="Path 21379" d="M131.555,308.43a2.856,2.856,0,0,1-1.375.6,3.071,3.071,0,0,1,.43-1.418.625.625,0,0,1,.945.816Z" transform="translate(-126.226 -307.307)" fill="#fff"/>
        <path id="Path_21380" data-name="Path 21380" d="M128.151,307.451a2.866,2.866,0,0,1,.3,1.461,2.857,2.857,0,0,1-1.289-.73.657.657,0,0,1,.129-.859.574.574,0,0,1,.859.129Z" transform="translate(-124.456 -307.187)" fill="#fff"/>
        <path id="Path_21381" data-name="Path 21381" d="M126.164,310.474a2.7,2.7,0,0,1,1.461.258,3.035,3.035,0,0,1-1.16.945.615.615,0,0,1-.773-.43A.677.677,0,0,1,126.164,310.474Z" transform="translate(-123.671 -309.05)" fill="#fff"/>
        <path id="Path_21382" data-name="Path 21382" d="M128.594,312.289a3.508,3.508,0,0,1,.73-1.289,3.2,3.2,0,0,1,.473,1.418.605.605,0,1,1-1.2-.129Z" transform="translate(-125.328 -309.362)" fill="#fff"/>
        <path id="Path_21383" data-name="Path 21383" d="M131.3,312.185a3.271,3.271,0,0,1-.9-1.16,3.119,3.119,0,0,1,1.5.086.591.591,0,0,1,.258.816A.64.64,0,0,1,131.3,312.185Z" transform="translate(-126.358 -309.344)" fill="#fff"/>
        <path id="Path_21384" data-name="Path 21384" d="M130.287,310.772c0-.129-.129-.172-.215-.172-.129,0-.172.129-.172.215,0,.129.129.172.215.172C130.244,310.987,130.33,310.9,130.287,310.772Z" transform="translate(-126.075 -309.134)" fill="#f78248"/>
        <g id="Group_6752" data-name="Group 6752" transform="translate(0 5.625)">
          <path id="Path_21385" data-name="Path 21385" d="M122.675,320.632a5.433,5.433,0,0,1,.6,2.234,4.612,4.612,0,0,1-2.063-1.031.947.947,0,1,1,1.461-1.2Z" transform="translate(-120.999 -320.279)" fill="#82b378"/>
        </g>
        <g id="Group_6753" data-name="Group 6753" transform="translate(1.975 8.309)">
          <path id="Path_21386" data-name="Path 21386" d="M126.672,326.6a3.849,3.849,0,0,0-1.074,1.289,3.724,3.724,0,0,0,1.676-.043.765.765,0,0,0,.344-.945A.706.706,0,0,0,126.672,326.6Z" transform="translate(-125.596 -326.524)" fill="#82b378"/>
        </g>
      </g>
      <g id="Group_6755" data-name="Group 6755" transform="translate(0 115.846)">
        <path id="Path_21387" data-name="Path 21387" d="M160.32,336.3l-160.1-.086A.2.2,0,0,1,0,336v-.086a.2.2,0,0,1,.215-.215l160.1.043a.2.2,0,0,1,.215.215v.086C160.535,336.216,160.449,336.3,160.32,336.3Z" transform="translate(0 -335.7)" fill="#233862"/>
      </g>
    </g>
  </g>
</svg>
