<svg xmlns="http://www.w3.org/2000/svg" width="86.628" height="90.348" viewBox="0 0 86.628 90.348">
  <g id="Group_7706" data-name="Group 7706" transform="translate(-6.827 -6.389)">
    <path id="Path_30973" data-name="Path 30973" d="M77.587,20.971l1.847,5.541a8.182,8.182,0,0,0,3.159,4.322l4.673,3.14a8.257,8.257,0,0,1,3.066,9.919l-1.847,4.488a8.238,8.238,0,0,0,0,6.188l1.847,4.378a8.256,8.256,0,0,1-2.845,9.827l-4.156,2.974a8.2,8.2,0,0,0-3.14,4.451l-1.5,5.246a8.238,8.238,0,0,1-8.626,5.966l-4.488-.369a8.146,8.146,0,0,0-5.874,1.847l-4.322,3.491a8.256,8.256,0,0,1-10.436,0L41.255,89.35A8.219,8.219,0,0,0,36.01,87.5H29.526a8.22,8.22,0,0,1-8.035-6.391l-1.182-5.024a8.2,8.2,0,0,0-3.4-4.969L12.939,68.2a8.219,8.219,0,0,1-3.122-9.549l1.847-5.061a8.2,8.2,0,0,0,0-5.707L10,43.45a8.238,8.238,0,0,1,3.232-9.826L17.613,30.8a8.275,8.275,0,0,0,3.473-4.71l1.293-4.655a8.256,8.256,0,0,1,8.663-6l4.137.351a8.274,8.274,0,0,0,5.892-1.847L45,10.757a8.275,8.275,0,0,1,10.473,0l3.436,2.881a8.182,8.182,0,0,0,5.911,1.847l4.341-.314a8.257,8.257,0,0,1,8.423,5.8Z" fill="none" stroke="#fff" stroke-miterlimit="10" stroke-width="5"/>
    <path id="Path_30974" data-name="Path 30974" d="M29.778,34.237a6.964,6.964,0,1,0-6.964-6.964A6.964,6.964,0,0,0,29.778,34.237ZM51.02,63.495a6.964,6.964,0,1,0-6.964-6.964A6.964,6.964,0,0,0,51.02,63.495Zm6.963-39.712L21.3,60.484" transform="translate(10.129 9.674)" fill="none" stroke="#fff" stroke-linecap="round" stroke-linejoin="round" stroke-width="5"/>
  </g>
</svg>
