<svg xmlns="http://www.w3.org/2000/svg" width="29.209" height="17.104" viewBox="0 0 29.209 17.104">
  <g id="Group_3806" data-name="Group 3806" transform="translate(-161 -829.604)">
    <path id="Path_15525" data-name="Path 15525" d="M25.336,16.71l.371-.371a.487.487,0,0,0,0-.689L22.65,12.6a.487.487,0,0,0-.687,0,1.916,1.916,0,1,1-2.71-2.71.487.487,0,0,0,0-.687L16.2,6.144A.487.487,0,0,0,15.856,6h0a.487.487,0,0,0-.344.143L4.944,16.71S.536,16.928,25.336,16.71Zm-9.48-9.534,2.394,2.4A2.888,2.888,0,0,0,22.277,13.6l2.4,2.394-.715.716H6.321Z" transform="translate(160.464 823.775)" fill="#fff"/>
    <g id="discount-voucher" transform="translate(161 829.604)">
      <path id="Path_15521" data-name="Path 15521" d="M31.235,34.185V29H3v5.185a2.686,2.686,0,0,1,2.434,2.881A2.686,2.686,0,0,1,3,39.946v5.185H31.235V39.946a2.686,2.686,0,0,1-2.434-2.88A2.686,2.686,0,0,1,31.235,34.185Z" transform="translate(-2.513 -28.513)" fill="#fff"/>
      <path id="Path_15523" data-name="Path 15523" d="M30.722,12.89H2.487A.533.533,0,0,0,2,13.46v5.131a.533.533,0,0,0,.487.57,2.134,2.134,0,0,1,1.947,2.281,2.134,2.134,0,0,1-1.947,2.281.533.533,0,0,0-.487.57v5.131a.533.533,0,0,0,.487.57H30.722a.533.533,0,0,0,.487-.57V24.293a.533.533,0,0,0-.487-.57,2.134,2.134,0,0,1-1.947-2.281,2.134,2.134,0,0,1,1.947-2.281.533.533,0,0,0,.487-.57V13.46A.533.533,0,0,0,30.722,12.89Zm-22.937,0Zm22.45,5.179A3.311,3.311,0,0,0,27.8,21.442a3.311,3.311,0,0,0,2.437,3.374v4.038H2.974V24.816A3.311,3.311,0,0,0,5.41,21.442a3.311,3.311,0,0,0-2.437-3.374V14.03H30.235Z" transform="translate(-2 -12.89)" fill="#575757"/>
      <path id="Path_15524" data-name="Path 15524" d="M17.487,32a.553.553,0,0,0-.487.6V35a.5.5,0,1,0,.974,0V32.6A.553.553,0,0,0,17.487,32Zm0,4.8a.553.553,0,0,0-.487.6v2.4a.5.5,0,1,0,.974,0V37.4A.553.553,0,0,0,17.487,36.8Zm0,4.8a.553.553,0,0,0-.487.6v2.4a.5.5,0,1,0,.974,0v-2.4A.553.553,0,0,0,17.487,41.607Z" transform="translate(-9.698 -30.053)" fill="#575757"/>
    </g>
  </g>
</svg>
